STARTFONT 2.1
COMMENT
COMMENT Converted from OpenType font "UbuntuMono-Italic.ttf" by "otf2bdf 3.0".
COMMENT
FONT -FreeType-Ubuntu Mono-Medium-I-Normal--25-180-100-100-P-117-ISO10646-1
SIZE 18 100 100
FONTBOUNDINGBOX 22 25 -5 -4
STARTPROPERTIES 19
FOUNDRY "FreeType"
FAMILY_NAME "Ubuntu Mono"
WEIGHT_NAME "Medium"
SLANT "I"
SETWIDTH_NAME "Normal"
ADD_STYLE_NAME ""
PIXEL_SIZE 25
POINT_SIZE 180
RESOLUTION_X 100
RESOLUTION_Y 100
SPACING "P"
AVERAGE_WIDTH 117
CHARSET_REGISTRY "ISO10646"
CHARSET_ENCODING "1"
FONT_ASCENT 20
FONT_DESCENT 4
COPYRIGHT "Copyright 2011 Canonical Ltd.  Licensed under the Ubuntu Font Licence 1.0"
_OTF_FONTFILE "UbuntuMono-Italic.ttf"
_OTF_PSNAME "UbuntuMono-Italic"
ENDPROPERTIES
CHARS 1224
STARTCHAR 0000
ENCODING 0
SWIDTH 480 0
DWIDTH 12 0
BBX 0 0 0 0
BITMAP
ENDCHAR
STARTCHAR 0008
ENCODING 8
SWIDTH 480 0
DWIDTH 12 0
BBX 0 0 0 0
BITMAP
ENDCHAR
STARTCHAR 0009
ENCODING 9
SWIDTH 480 0
DWIDTH 12 0
BBX 0 0 0 0
BITMAP
ENDCHAR
STARTCHAR 000D
ENCODING 13
SWIDTH 480 0
DWIDTH 12 0
BBX 0 0 0 0
BITMAP
ENDCHAR
STARTCHAR 001D
ENCODING 29
SWIDTH 480 0
DWIDTH 12 0
BBX 0 0 0 0
BITMAP
ENDCHAR
STARTCHAR 0020
ENCODING 32
SWIDTH 480 0
DWIDTH 12 0
BBX 0 0 0 0
BITMAP
ENDCHAR
STARTCHAR 0021
ENCODING 33
SWIDTH 480 0
DWIDTH 12 0
BBX 6 15 4 0
BITMAP
0C
0C
1C
18
18
18
18
30
30
30
00
00
60
F0
E0
ENDCHAR
STARTCHAR 0022
ENCODING 34
SWIDTH 480 0
DWIDTH 12 0
BBX 7 6 6 11
BITMAP
C6
CC
CC
CC
88
88
ENDCHAR
STARTCHAR 0023
ENCODING 35
SWIDTH 480 0
DWIDTH 12 0
BBX 13 15 1 0
BITMAP
0318
0330
0630
0630
3FF8
0C60
0CC0
18C0
1980
FFF0
FFE0
6300
6300
6600
C600
ENDCHAR
STARTCHAR 0024
ENCODING 36
SWIDTH 480 0
DWIDTH 12 0
BBX 11 19 2 -2
BITMAP
0180
0180
03C0
0FE0
1820
3800
3000
1800
1E00
0F00
0380
01C0
00C0
01C0
C380
FF00
1C00
1800
1800
ENDCHAR
STARTCHAR 0025
ENCODING 37
SWIDTH 480 0
DWIDTH 12 0
BBX 14 16 1 0
BITMAP
0C00
1E1C
3610
2230
2660
66C0
3D80
3B00
0600
04E0
0D30
1B30
3330
6320
C360
81C0
ENDCHAR
STARTCHAR 0026
ENCODING 38
SWIDTH 480 0
DWIDTH 12 0
BBX 11 16 1 0
BITMAP
0380
07C0
0C60
1860
18C0
19C0
0F80
0E00
1E60
3660
63C0
63C0
E180
E3C0
7FC0
3CC0
ENDCHAR
STARTCHAR 0027
ENCODING 39
SWIDTH 480 0
DWIDTH 12 0
BBX 4 7 7 10
BITMAP
30
60
60
60
60
40
C0
ENDCHAR
STARTCHAR 0028
ENCODING 40
SWIDTH 480 0
DWIDTH 12 0
BBX 9 21 4 -3
BITMAP
0180
0700
0E00
1C00
1800
3000
7000
6000
E000
C000
C000
C000
C000
C000
C000
C000
C000
6000
6000
3000
3000
ENDCHAR
STARTCHAR 0029
ENCODING 41
SWIDTH 480 0
DWIDTH 12 0
BBX 9 21 2 -3
BITMAP
0C00
0600
0700
0300
0300
0180
0180
0180
0180
0180
0300
0300
0300
0600
0600
0C00
1C00
3800
7000
E000
8000
ENDCHAR
STARTCHAR 002A
ENCODING 42
SWIDTH 480 0
DWIDTH 12 0
BBX 9 9 4 6
BITMAP
1800
1800
C980
FF80
1C00
3C00
7600
6700
2200
ENDCHAR
STARTCHAR 002B
ENCODING 43
SWIDTH 480 0
DWIDTH 12 0
BBX 10 11 2 1
BITMAP
0300
0600
0600
0600
0600
FFC0
0C00
0C00
0C00
1800
1800
ENDCHAR
STARTCHAR 002C
ENCODING 44
SWIDTH 480 0
DWIDTH 12 0
BBX 5 7 3 -4
BITMAP
38
78
38
18
70
E0
80
ENDCHAR
STARTCHAR 002D
ENCODING 45
SWIDTH 480 0
DWIDTH 12 0
BBX 6 2 4 5
BITMAP
7C
FC
ENDCHAR
STARTCHAR 002E
ENCODING 46
SWIDTH 480 0
DWIDTH 12 0
BBX 4 3 4 1
BITMAP
70
F0
70
ENDCHAR
STARTCHAR 002F
ENCODING 47
SWIDTH 480 0
DWIDTH 12 0
BBX 13 21 0 -4
BITMAP
0018
0018
0030
0030
0060
00C0
00C0
0180
0180
0300
0300
0600
0E00
0C00
1800
1800
3000
3000
6000
E000
C000
ENDCHAR
STARTCHAR 0030
ENCODING 48
SWIDTH 480 0
DWIDTH 12 0
BBX 11 16 2 0
BITMAP
0380
0FC0
1CE0
3860
3060
7060
6460
6E60
EE60
C4C0
C0C0
C1C0
C180
C380
7F00
7C00
ENDCHAR
STARTCHAR 0031
ENCODING 49
SWIDTH 480 0
DWIDTH 12 0
BBX 9 15 2 0
BITMAP
0180
0780
1F80
1B00
0300
0300
0300
0700
0600
0600
0600
0E00
0C00
7F80
FF80
ENDCHAR
STARTCHAR 0032
ENCODING 50
SWIDTH 480 0
DWIDTH 12 0
BBX 11 16 2 0
BITMAP
0780
1FC0
18E0
0060
0060
0060
00C0
01C0
0380
0E00
1C00
3800
7000
6000
FF80
FF80
ENDCHAR
STARTCHAR 0033
ENCODING 51
SWIDTH 480 0
DWIDTH 12 0
BBX 11 16 2 0
BITMAP
0780
1FC0
10E0
0060
0060
00C0
01C0
0F00
0F80
0180
00C0
00C0
01C0
0180
FF80
FE00
ENDCHAR
STARTCHAR 0034
ENCODING 52
SWIDTH 480 0
DWIDTH 12 0
BBX 12 15 1 0
BITMAP
0070
01E0
03E0
0760
0E60
0CC0
18C0
30C0
60C0
7FE0
FFE0
0180
0180
0300
0300
ENDCHAR
STARTCHAR 0035
ENCODING 53
SWIDTH 480 0
DWIDTH 12 0
BBX 13 15 1 0
BITMAP
07F8
0600
0600
0C00
0C00
0C00
1F80
03C0
00E0
0060
0060
00C0
01C0
7F80
FF00
ENDCHAR
STARTCHAR 0036
ENCODING 54
SWIDTH 480 0
DWIDTH 12 0
BBX 12 16 2 0
BITMAP
0010
01F0
07C0
0E00
1800
3000
3000
7F80
71C0
60C0
E0C0
C0C0
E0C0
61C0
7780
3F00
ENDCHAR
STARTCHAR 0037
ENCODING 55
SWIDTH 480 0
DWIDTH 12 0
BBX 11 15 4 0
BITMAP
7FE0
00C0
0180
0300
0600
0E00
0C00
1800
3800
3000
7000
6000
E000
C000
C000
ENDCHAR
STARTCHAR 0038
ENCODING 56
SWIDTH 480 0
DWIDTH 12 0
BBX 11 16 2 0
BITMAP
0380
0FE0
1860
3860
3060
3060
38C0
1F80
1F80
7180
60C0
C0C0
C0C0
C1C0
E780
7F00
ENDCHAR
STARTCHAR 0039
ENCODING 57
SWIDTH 480 0
DWIDTH 12 0
BBX 11 16 2 0
BITMAP
0780
1FC0
1860
3060
3060
6060
6060
3060
3FE0
1FC0
00C0
0180
0380
0F00
FC00
F000
ENDCHAR
STARTCHAR 003A
ENCODING 58
SWIDTH 480 0
DWIDTH 12 0
BBX 6 11 4 1
BITMAP
3C
3C
38
00
00
00
00
00
70
F0
70
ENDCHAR
STARTCHAR 003B
ENCODING 59
SWIDTH 480 0
DWIDTH 12 0
BBX 7 15 3 -3
BITMAP
1E
1E
1C
00
00
00
00
00
38
78
38
18
70
E0
80
ENDCHAR
STARTCHAR 003C
ENCODING 60
SWIDTH 480 0
DWIDTH 12 0
BBX 11 10 2 1
BITMAP
0060
03E0
0F00
7C00
E000
F000
3C00
0F00
0380
0080
ENDCHAR
STARTCHAR 003D
ENCODING 61
SWIDTH 480 0
DWIDTH 12 0
BBX 11 7 2 3
BITMAP
7FE0
7FE0
0000
0000
0000
FFC0
FFC0
ENDCHAR
STARTCHAR 003E
ENCODING 62
SWIDTH 480 0
DWIDTH 12 0
BBX 10 9 2 1
BITMAP
3000
7C00
0F00
03C0
00C0
07C0
1F00
F800
E000
ENDCHAR
STARTCHAR 003F
ENCODING 63
SWIDTH 480 0
DWIDTH 12 0
BBX 9 16 4 0
BITMAP
1E00
3F00
0180
0180
0180
0300
0600
0C00
1800
3000
3000
0000
0000
6000
E000
E000
ENDCHAR
STARTCHAR 0040
ENCODING 64
SWIDTH 480 0
DWIDTH 12 0
BBX 12 19 2 -3
BITMAP
03C0
0FE0
1C30
3830
3030
60F0
67F0
CE60
CC60
CC60
D860
D8C0
CCC0
CFC0
C780
C000
6000
7800
3E00
ENDCHAR
STARTCHAR 0041
ENCODING 65
SWIDTH 480 0
DWIDTH 12 0
BBX 12 15 0 0
BITMAP
00E0
01E0
0360
0360
0660
0660
0C60
0860
1860
3FF0
3FF0
6030
6030
C030
C030
ENDCHAR
STARTCHAR 0042
ENCODING 66
SWIDTH 480 0
DWIDTH 12 0
BBX 12 16 1 0
BITMAP
0780
0FE0
1870
1830
1830
1830
3060
3FC0
3FC0
3060
6060
6060
6060
60C0
FFC0
FF00
ENDCHAR
STARTCHAR 0043
ENCODING 67
SWIDTH 480 0
DWIDTH 12 0
BBX 12 16 2 0
BITMAP
03E0
0FF0
1C10
3800
3000
7000
6000
6000
C000
C000
C000
C000
E000
6000
7F80
3F80
ENDCHAR
STARTCHAR 0044
ENCODING 68
SWIDTH 480 0
DWIDTH 12 0
BBX 12 16 1 0
BITMAP
0200
1FC0
18E0
1870
1830
3030
3030
3030
3030
6070
6060
6060
60C0
C1C0
FF00
FE00
ENDCHAR
STARTCHAR 0045
ENCODING 69
SWIDTH 480 0
DWIDTH 12 0
BBX 12 15 2 0
BITMAP
1FF0
1800
1800
1800
3000
3000
3FC0
3F80
6000
6000
6000
6000
C000
FF80
FF80
ENDCHAR
STARTCHAR 0046
ENCODING 70
SWIDTH 480 0
DWIDTH 12 0
BBX 12 15 2 0
BITMAP
1FF0
1800
1800
1800
3000
3000
3FC0
3FC0
6000
6000
6000
6000
C000
C000
C000
ENDCHAR
STARTCHAR 0047
ENCODING 71
SWIDTH 480 0
DWIDTH 12 0
BBX 12 16 2 0
BITMAP
03E0
0FF0
1C20
3800
3000
6000
6000
E000
C0C0
C0C0
C0C0
C0C0
C1C0
E180
7B80
3F80
ENDCHAR
STARTCHAR 0048
ENCODING 72
SWIDTH 480 0
DWIDTH 12 0
BBX 13 15 1 0
BITMAP
1818
1818
1818
1830
3030
3030
3FF0
3FF0
7060
6060
6060
60E0
E0C0
C0C0
C0C0
ENDCHAR
STARTCHAR 0049
ENCODING 73
SWIDTH 480 0
DWIDTH 12 0
BBX 11 15 2 0
BITMAP
1FE0
0300
0300
0300
0600
0600
0600
0600
0C00
0C00
0C00
0C00
1800
FF00
FF00
ENDCHAR
STARTCHAR 004A
ENCODING 74
SWIDTH 480 0
DWIDTH 12 0
BBX 12 15 2 0
BITMAP
0FF0
0060
0060
0060
0060
00C0
00C0
00C0
00C0
0180
0180
0180
0380
EF00
FE00
ENDCHAR
STARTCHAR 004B
ENCODING 75
SWIDTH 480 0
DWIDTH 12 0
BBX 13 15 1 0
BITMAP
0C38
1870
18E0
19C0
1B80
3700
3E00
3E00
3600
6300
6380
6180
61C0
E0C0
C0C0
ENDCHAR
STARTCHAR 004C
ENCODING 76
SWIDTH 480 0
DWIDTH 12 0
BBX 9 15 1 0
BITMAP
0C00
0C00
1800
1800
1800
1800
3000
3000
3000
3000
7000
6000
6000
7F80
FF80
ENDCHAR
STARTCHAR 004D
ENCODING 77
SWIDTH 480 0
DWIDTH 12 0
BBX 13 15 1 0
BITMAP
0C38
0C38
1C78
1650
16D0
36B0
37B0
2730
6730
6020
6060
C060
C060
C060
C0C0
ENDCHAR
STARTCHAR 004E
ENCODING 78
SWIDTH 480 0
DWIDTH 12 0
BBX 13 15 1 0
BITMAP
1C18
1C18
1E18
1E18
1630
3230
3330
3330
2360
6160
61E0
61E0
41C0
C1C0
C0C0
ENDCHAR
STARTCHAR 004F
ENCODING 79
SWIDTH 480 0
DWIDTH 12 0
BBX 12 16 2 0
BITMAP
0380
0FE0
1C60
3060
3070
6070
6060
6060
C060
C060
C0E0
C0C0
C1C0
C180
7700
3E00
ENDCHAR
STARTCHAR 0050
ENCODING 80
SWIDTH 480 0
DWIDTH 12 0
BBX 13 16 1 0
BITMAP
0380
0FE0
0C70
1830
1838
1830
1830
3070
3FE0
3F80
3000
6000
6000
6000
6000
E000
ENDCHAR
STARTCHAR 0051
ENCODING 81
SWIDTH 480 0
DWIDTH 12 0
BBX 12 20 2 -4
BITMAP
0380
0FE0
1C60
3060
3070
6070
6060
6060
C060
C060
C0E0
C0C0
C1C0
C180
7700
3E00
1800
1800
1F00
0700
ENDCHAR
STARTCHAR 0052
ENCODING 82
SWIDTH 480 0
DWIDTH 12 0
BBX 12 16 1 0
BITMAP
0780
0FE0
1870
1830
1830
1830
3030
3060
3FC0
3F00
6380
6180
6180
60C0
E0C0
C0C0
ENDCHAR
STARTCHAR 0053
ENCODING 83
SWIDTH 480 0
DWIDTH 12 0
BBX 11 16 2 0
BITMAP
07C0
0FE0
1820
3000
3000
3000
3800
1E00
0700
0380
01C0
00C0
01C0
0180
FF80
FE00
ENDCHAR
STARTCHAR 0054
ENCODING 84
SWIDTH 480 0
DWIDTH 12 0
BBX 10 15 4 0
BITMAP
FFC0
0C00
0C00
1C00
1800
1800
1800
1800
3000
3000
3000
3000
6000
6000
6000
ENDCHAR
STARTCHAR 0055
ENCODING 85
SWIDTH 480 0
DWIDTH 12 0
BBX 12 15 2 0
BITMAP
3030
3030
3030
3060
6060
6060
6060
60E0
E0C0
C0C0
C0C0
C180
C180
7700
7E00
ENDCHAR
STARTCHAR 0056
ENCODING 86
SWIDTH 480 0
DWIDTH 12 0
BBX 12 15 3 0
BITMAP
E030
E060
E060
60C0
60C0
6180
6180
6300
6300
6600
6600
6C00
7800
7800
7000
ENDCHAR
STARTCHAR 0057
ENCODING 87
SWIDTH 480 0
DWIDTH 12 0
BBX 14 15 1 0
BITMAP
180C
1818
3018
3018
3018
3330
3330
2730
6D20
6960
7960
5140
71C0
61C0
E180
ENDCHAR
STARTCHAR 0058
ENCODING 88
SWIDTH 480 0
DWIDTH 12 0
BBX 14 15 1 0
BITMAP
0C1C
0C38
0E30
0660
06C0
03C0
0380
0780
0780
0D80
18C0
38C0
70C0
E0C0
C060
ENDCHAR
STARTCHAR 0059
ENCODING 89
SWIDTH 480 0
DWIDTH 12 0
BBX 11 15 4 0
BITMAP
C060
C0C0
C1C0
C180
6300
6600
6600
3C00
3800
3000
3000
3000
7000
6000
6000
ENDCHAR
STARTCHAR 005A
ENCODING 90
SWIDTH 480 0
DWIDTH 12 0
BBX 13 15 1 0
BITMAP
0FF8
0038
0070
00E0
00C0
0180
0300
0600
0C00
1C00
3800
3000
6000
FFC0
FFC0
ENDCHAR
STARTCHAR 005B
ENCODING 91
SWIDTH 480 0
DWIDTH 12 0
BBX 10 21 3 -4
BITMAP
0FC0
0C00
0C00
0C00
1800
1800
1800
1800
3000
3000
3000
3000
3000
6000
6000
6000
6000
C000
C000
FC00
FC00
ENDCHAR
STARTCHAR 005C
ENCODING 92
SWIDTH 480 0
DWIDTH 12 0
BBX 3 21 6 -4
BITMAP
C0
C0
C0
C0
C0
C0
C0
C0
C0
C0
C0
E0
E0
60
60
60
60
60
60
60
60
ENDCHAR
STARTCHAR 005D
ENCODING 93
SWIDTH 480 0
DWIDTH 12 0
BBX 11 21 1 -4
BITMAP
07E0
00C0
00C0
00C0
00C0
0180
0180
0180
0180
0300
0300
0300
0300
0200
0600
0600
0600
0600
0C00
FC00
FC00
ENDCHAR
STARTCHAR 005E
ENCODING 94
SWIDTH 480 0
DWIDTH 12 0
BBX 10 8 3 7
BITMAP
0700
0F00
1F00
3980
3180
6180
C0C0
4080
ENDCHAR
STARTCHAR 005F
ENCODING 95
SWIDTH 480 0
DWIDTH 12 0
BBX 12 2 -1 -4
BITMAP
7FF0
FFF0
ENDCHAR
STARTCHAR 0060
ENCODING 96
SWIDTH 480 0
DWIDTH 12 0
BBX 4 4 7 13
BITMAP
C0
C0
60
30
ENDCHAR
STARTCHAR 0061
ENCODING 97
SWIDTH 480 0
DWIDTH 12 0
BBX 11 12 2 0
BITMAP
07C0
1FE0
38C0
70C0
60C0
C0C0
C180
C180
C180
C180
FF80
7D80
ENDCHAR
STARTCHAR 0062
ENCODING 98
SWIDTH 480 0
DWIDTH 12 0
BBX 11 17 2 0
BITMAP
1800
1800
1800
1800
3800
3780
3FC0
30C0
70E0
6060
60E0
60C0
60C0
C1C0
C380
FF00
FC00
ENDCHAR
STARTCHAR 0063
ENCODING 99
SWIDTH 480 0
DWIDTH 12 0
BBX 10 12 2 0
BITMAP
07C0
1FC0
3800
6000
E000
C000
C000
C000
C000
C000
7F80
3F80
ENDCHAR
STARTCHAR 0064
ENCODING 100
SWIDTH 480 0
DWIDTH 12 0
BBX 12 17 2 0
BITMAP
0030
0030
0030
0030
0060
07E0
1FE0
3860
70C0
60C0
E0C0
C0C0
C180
C180
C180
F780
7F80
ENDCHAR
STARTCHAR 0065
ENCODING 101
SWIDTH 480 0
DWIDTH 12 0
BBX 11 12 2 0
BITMAP
0780
1FC0
30E0
60E0
E0C0
C3C0
FF00
C000
C000
C000
7F80
3F80
ENDCHAR
STARTCHAR 0066
ENCODING 102
SWIDTH 480 0
DWIDTH 12 0
BBX 15 21 0 -4
BITMAP
007E
00F4
00C0
0180
0180
0FFC
0FF8
0380
0300
0300
0300
0300
0600
0600
0600
0600
0600
0C00
0C00
7C00
F800
ENDCHAR
STARTCHAR 0067
ENCODING 103
SWIDTH 480 0
DWIDTH 12 0
BBX 12 16 1 -4
BITMAP
01F0
0FF0
1C30
3870
3060
3060
6060
6060
60C0
71C0
3FC0
04C0
0180
0380
FF00
FE00
ENDCHAR
STARTCHAR 0068
ENCODING 104
SWIDTH 480 0
DWIDTH 12 0
BBX 11 17 1 0
BITMAP
0C00
0C00
0C00
1800
1800
1F80
1FC0
30E0
3060
3060
3060
70C0
60C0
60C0
60C0
E1C0
C180
ENDCHAR
STARTCHAR 0069
ENCODING 105
SWIDTH 480 0
DWIDTH 12 0
BBX 8 17 3 0
BITMAP
04
0E
0E
04
00
7C
FC
0C
18
18
18
18
30
30
30
1F
1F
ENDCHAR
STARTCHAR 006A
ENCODING 106
SWIDTH 480 0
DWIDTH 12 0
BBX 11 21 1 -4
BITMAP
0060
00E0
00E0
0040
0000
0FE0
0FE0
00C0
00C0
00C0
00C0
0180
0180
0180
0180
0380
0300
0300
0700
FE00
FC00
ENDCHAR
STARTCHAR 006B
ENCODING 107
SWIDTH 480 0
DWIDTH 12 0
BBX 12 17 2 0
BITMAP
0C00
1800
1800
1800
1800
3070
30E0
3180
3700
6E00
7C00
7C00
6E00
C700
C300
C380
C180
ENDCHAR
STARTCHAR 006C
ENCODING 108
SWIDTH 480 0
DWIDTH 12 0
BBX 7 17 4 0
BITMAP
7C
FC
0C
18
18
18
18
30
30
30
30
60
60
60
60
7E
3E
ENDCHAR
STARTCHAR 006D
ENCODING 109
SWIDTH 480 0
DWIDTH 12 0
BBX 12 12 1 0
BITMAP
1EE0
3FF0
3330
3330
2330
6620
6660
6660
4060
C060
C0C0
C0C0
ENDCHAR
STARTCHAR 006E
ENCODING 110
SWIDTH 480 0
DWIDTH 12 0
BBX 10 12 2 0
BITMAP
0F00
3FC0
30C0
30C0
60C0
60C0
60C0
60C0
C180
C180
C180
C180
ENDCHAR
STARTCHAR 006F
ENCODING 111
SWIDTH 480 0
DWIDTH 12 0
BBX 11 12 2 0
BITMAP
0F80
1FC0
38C0
70E0
6060
C0E0
C0C0
C0C0
C1C0
C180
7F00
7E00
ENDCHAR
STARTCHAR 0070
ENCODING 112
SWIDTH 480 0
DWIDTH 12 0
BBX 12 16 1 -4
BITMAP
0F80
1FE0
1860
3870
3030
3070
3060
3060
60E0
61C0
7F80
7E00
C000
C000
C000
C000
ENDCHAR
STARTCHAR 0071
ENCODING 113
SWIDTH 480 0
DWIDTH 12 0
BBX 11 16 2 -4
BITMAP
07E0
1FE0
3860
70C0
60C0
E0C0
C0C0
C180
C180
C180
F780
7F00
0300
0300
0300
0700
ENDCHAR
STARTCHAR 0072
ENCODING 114
SWIDTH 480 0
DWIDTH 12 0
BBX 11 12 2 0
BITMAP
07E0
1FE0
1800
3000
3000
3000
3000
6000
6000
6000
6000
C000
ENDCHAR
STARTCHAR 0073
ENCODING 115
SWIDTH 480 0
DWIDTH 12 0
BBX 10 12 2 0
BITMAP
07C0
1FC0
3800
3000
3800
1E00
0F00
0380
0180
0180
F700
FE00
ENDCHAR
STARTCHAR 0074
ENCODING 116
SWIDTH 480 0
DWIDTH 12 0
BBX 9 15 4 0
BITMAP
1800
1800
1800
FF80
FF80
3000
3000
6000
6000
6000
6000
C000
E000
7E00
7E00
ENDCHAR
STARTCHAR 0075
ENCODING 117
SWIDTH 480 0
DWIDTH 12 0
BBX 11 12 2 0
BITMAP
3060
3060
60C0
60C0
60C0
60C0
C180
C180
C180
C380
FF80
7D80
ENDCHAR
STARTCHAR 0076
ENCODING 118
SWIDTH 480 0
DWIDTH 12 0
BBX 10 12 3 0
BITMAP
C0C0
C0C0
E1C0
E180
6180
6300
6700
6600
6C00
7C00
7800
3000
ENDCHAR
STARTCHAR 0077
ENCODING 119
SWIDTH 480 0
DWIDTH 12 0
BBX 12 12 2 0
BITMAP
6030
6030
6030
C620
C660
CE60
DEC0
DAC0
F280
E380
E380
C300
ENDCHAR
STARTCHAR 0078
ENCODING 120
SWIDTH 480 0
DWIDTH 12 0
BBX 12 12 1 0
BITMAP
3830
1870
1C60
0CC0
0F80
0700
0700
0F00
1980
3180
61C0
C0C0
ENDCHAR
STARTCHAR 0079
ENCODING 121
SWIDTH 480 0
DWIDTH 12 0
BBX 13 16 0 -4
BITMAP
1C18
1C18
0C18
0C30
0C30
0C70
0C60
0C60
06C0
0780
0780
0700
0600
0E00
FC00
F000
ENDCHAR
STARTCHAR 007A
ENCODING 122
SWIDTH 480 0
DWIDTH 12 0
BBX 11 12 2 0
BITMAP
1FE0
3FC0
01C0
0380
0700
0E00
1C00
3800
7000
6000
FF00
FF00
ENDCHAR
STARTCHAR 007B
ENCODING 123
SWIDTH 480 0
DWIDTH 12 0
BBX 12 21 2 -4
BITMAP
01F0
0300
0600
0600
0600
0600
0C00
0C00
0C00
3800
F000
3800
1800
1800
3000
3000
3000
3000
3000
3F00
3E00
ENDCHAR
STARTCHAR 007C
ENCODING 124
SWIDTH 480 0
DWIDTH 12 0
BBX 7 21 4 -4
BITMAP
06
06
0C
0C
0C
0C
18
18
18
18
30
30
30
30
60
60
60
60
C0
C0
C0
ENDCHAR
STARTCHAR 007D
ENCODING 125
SWIDTH 480 0
DWIDTH 12 0
BBX 12 21 0 -4
BITMAP
07C0
00E0
0060
0040
00C0
00C0
00C0
00C0
00C0
00E0
00F0
0180
0100
0300
0300
0300
0600
0600
0600
FC00
F800
ENDCHAR
STARTCHAR 007E
ENCODING 126
SWIDTH 480 0
DWIDTH 12 0
BBX 11 3 2 5
BITMAP
7C60
EFC0
C780
ENDCHAR
STARTCHAR 00A0
ENCODING 160
SWIDTH 480 0
DWIDTH 12 0
BBX 0 0 0 0
BITMAP
ENDCHAR
STARTCHAR 00A1
ENCODING 161
SWIDTH 480 0
DWIDTH 12 0
BBX 6 16 4 -4
BITMAP
08
3C
3C
18
00
00
30
30
30
60
60
60
E0
C0
C0
C0
ENDCHAR
STARTCHAR 00A2
ENCODING 162
SWIDTH 480 0
DWIDTH 12 0
BBX 11 17 2 -2
BITMAP
0180
0180
0100
0FE0
1E40
3800
7000
6000
E000
C000
C000
6000
7B80
3F80
0800
1800
1800
ENDCHAR
STARTCHAR 00A3
ENCODING 163
SWIDTH 480 0
DWIDTH 12 0
BBX 12 16 2 0
BITMAP
01E0
07F0
0E00
0C00
0C00
1800
1800
1800
7F80
3000
3000
3000
7000
6000
7F80
FF80
ENDCHAR
STARTCHAR 00A4
ENCODING 164
SWIDTH 480 0
DWIDTH 12 0
BBX 11 11 2 2
BITMAP
4040
7FE0
3BC0
30C0
60C0
60C0
60C0
3180
7FC0
E4E0
4000
ENDCHAR
STARTCHAR 00A5
ENCODING 165
SWIDTH 480 0
DWIDTH 12 0
BBX 13 15 2 0
BITMAP
3038
3030
1860
18C0
19C0
0D80
0F00
7FC0
7FC0
0C00
0C00
FF80
FF80
1800
1800
ENDCHAR
STARTCHAR 00A6
ENCODING 166
SWIDTH 480 0
DWIDTH 12 0
BBX 7 21 4 -4
BITMAP
06
06
0C
0C
0C
0C
18
18
00
00
00
00
00
30
60
60
60
60
C0
C0
C0
ENDCHAR
STARTCHAR 00A7
ENCODING 167
SWIDTH 480 0
DWIDTH 12 0
BBX 12 18 1 -2
BITMAP
01E0
07F0
0E00
0C00
0C00
0F00
0FC0
18E0
3060
3060
30C0
3DC0
0F00
0380
0180
0180
4380
FE00
ENDCHAR
STARTCHAR 00A8
ENCODING 168
SWIDTH 480 0
DWIDTH 12 0
BBX 7 2 6 14
BITMAP
EE
CE
ENDCHAR
STARTCHAR 00A9
ENCODING 169
SWIDTH 480 0
DWIDTH 12 0
BBX 11 12 2 0
BITMAP
1E00
3F80
60C0
CEC0
DE40
9060
B060
9840
DE40
40C0
7180
3F00
ENDCHAR
STARTCHAR 00AA
ENCODING 170
SWIDTH 480 0
DWIDTH 12 0
BBX 8 9 4 7
BITMAP
07
3F
63
63
42
C6
46
7E
30
ENDCHAR
STARTCHAR 00AB
ENCODING 171
SWIDTH 480 0
DWIDTH 12 0
BBX 9 9 3 2
BITMAP
1080
3180
3300
6600
CE00
C600
4600
6200
6200
ENDCHAR
STARTCHAR 00AC
ENCODING 172
SWIDTH 480 0
DWIDTH 12 0
BBX 11 8 2 1
BITMAP
7FE0
FFE0
0040
00C0
00C0
00C0
00C0
0180
ENDCHAR
STARTCHAR 00AD
ENCODING 173
SWIDTH 480 0
DWIDTH 12 0
BBX 6 2 4 5
BITMAP
7C
FC
ENDCHAR
STARTCHAR 00AE
ENCODING 174
SWIDTH 480 0
DWIDTH 12 0
BBX 11 12 2 0
BITMAP
1E00
3F80
60C0
DEC0
D240
9360
9E60
9640
D240
40C0
7180
3F00
ENDCHAR
STARTCHAR 00AF
ENCODING 175
SWIDTH 480 0
DWIDTH 12 0
BBX 6 2 6 14
BITMAP
FC
FC
ENDCHAR
STARTCHAR 00B0
ENCODING 176
SWIDTH 480 0
DWIDTH 12 0
BBX 6 6 6 11
BITMAP
78
CC
8C
8C
F8
70
ENDCHAR
STARTCHAR 00B1
ENCODING 177
SWIDTH 480 0
DWIDTH 12 0
BBX 12 14 1 0
BITMAP
0180
0180
0180
0300
0300
3FF0
0300
0600
0600
0600
0600
0000
FFC0
FFC0
ENDCHAR
STARTCHAR 00B2
ENCODING 178
SWIDTH 480 0
DWIDTH 12 0
BBX 7 9 5 7
BITMAP
38
7C
06
04
18
30
60
C0
FC
ENDCHAR
STARTCHAR 00B3
ENCODING 179
SWIDTH 480 0
DWIDTH 12 0
BBX 7 9 5 7
BITMAP
1C
3E
06
0C
38
0C
04
8C
F8
ENDCHAR
STARTCHAR 00B4
ENCODING 180
SWIDTH 480 0
DWIDTH 12 0
BBX 4 4 8 13
BITMAP
30
70
E0
80
ENDCHAR
STARTCHAR 00B5
ENCODING 181
SWIDTH 480 0
DWIDTH 12 0
BBX 13 16 0 -4
BITMAP
0C18
0C38
1830
1830
1830
1870
3060
3060
3060
3060
7FF0
6FB0
6000
6000
E000
C000
ENDCHAR
STARTCHAR 00B6
ENCODING 182
SWIDTH 480 0
DWIDTH 12 0
BBX 12 20 2 -4
BITMAP
01E0
1FF0
3F30
7F20
7E60
FE60
FE60
FE40
7CC0
3CC0
0CC0
0CC0
0880
1980
1980
1980
1900
1300
3300
3300
ENDCHAR
STARTCHAR 00B7
ENCODING 183
SWIDTH 480 0
DWIDTH 12 0
BBX 4 3 5 5
BITMAP
70
F0
70
ENDCHAR
STARTCHAR 00B8
ENCODING 184
SWIDTH 480 0
DWIDTH 12 0
BBX 4 4 3 -4
BITMAP
30
30
30
F0
ENDCHAR
STARTCHAR 00B9
ENCODING 185
SWIDTH 480 0
DWIDTH 12 0
BBX 6 9 5 7
BITMAP
08
38
78
18
10
10
30
30
FC
ENDCHAR
STARTCHAR 00BA
ENCODING 186
SWIDTH 480 0
DWIDTH 12 0
BBX 7 9 5 7
BITMAP
1C
7E
C2
C2
82
86
86
FC
70
ENDCHAR
STARTCHAR 00BB
ENCODING 187
SWIDTH 480 0
DWIDTH 12 0
BBX 9 9 3 2
BITMAP
2000
6300
3300
3180
3180
3300
6600
C600
8C00
ENDCHAR
STARTCHAR 00BC
ENCODING 188
SWIDTH 480 0
DWIDTH 12 0
BBX 13 16 1 0
BITMAP
0600
0C18
1430
0C60
0C60
08C0
0980
0300
0200
0600
0C60
18E0
3160
3240
63E0
C040
ENDCHAR
STARTCHAR 00BD
ENCODING 189
SWIDTH 480 0
DWIDTH 12 0
BBX 13 16 1 0
BITMAP
0600
0C18
1430
0C60
0CC0
08C0
0980
0300
0600
0400
0DE0
1920
3060
60C0
6300
C3E0
ENDCHAR
STARTCHAR 00BE
ENCODING 190
SWIDTH 480 0
DWIDTH 12 0
BBX 13 16 1 0
BITMAP
1C00
1618
0430
1C60
0460
4CC0
7980
0300
0200
0600
0C60
18E0
3160
3240
63E0
C040
ENDCHAR
STARTCHAR 00BF
ENCODING 191
SWIDTH 480 0
DWIDTH 12 0
BBX 9 16 2 -4
BITMAP
0100
0380
0380
0300
0000
0000
0600
0600
0C00
3800
7000
C000
C000
C000
FE00
7E00
ENDCHAR
STARTCHAR 00C0
ENCODING 192
SWIDTH 480 0
DWIDTH 12 0
BBX 12 20 0 1
BITMAP
01C0
00E0
0060
0020
0000
00E0
01E0
0360
0360
0660
0660
0C60
0860
1860
3FF0
3FF0
6030
6030
C030
C030
ENDCHAR
STARTCHAR 00C1
ENCODING 193
SWIDTH 480 0
DWIDTH 12 0
BBX 13 20 0 1
BITMAP
0018
0030
0060
0040
0000
00E0
01E0
0360
0360
0660
0660
0C60
0860
1860
3FF0
3FF0
6030
6030
C030
C030
ENDCHAR
STARTCHAR 00C2
ENCODING 194
SWIDTH 480 0
DWIDTH 12 0
BBX 13 21 0 0
BITMAP
0020
0060
00F0
0198
0000
0000
00E0
01E0
0360
0360
0660
0660
0C60
0860
1860
3FF0
3FF0
6030
6030
C030
C030
ENDCHAR
STARTCHAR 00C3
ENCODING 195
SWIDTH 480 0
DWIDTH 12 0
BBX 13 20 0 0
BITMAP
00C8
01F8
0030
0000
0000
00E0
01E0
0360
0360
0660
0660
0C60
0860
1860
3FF0
3FF0
6030
6030
C030
C030
ENDCHAR
STARTCHAR 00C4
ENCODING 196
SWIDTH 480 0
DWIDTH 12 0
BBX 14 20 0 0
BITMAP
0188
019C
0188
0000
0000
00E0
01E0
0360
0360
0660
0660
0C60
0860
1860
3FF0
3FF0
6030
6030
C030
C030
ENDCHAR
STARTCHAR 00C5
ENCODING 197
SWIDTH 480 0
DWIDTH 12 0
BBX 12 19 0 0
BITMAP
00C0
01B0
0110
01B0
00E0
01E0
0360
0360
0660
0660
0C60
0860
1860
3FE0
3FF0
6030
6030
C030
C030
ENDCHAR
STARTCHAR 00C6
ENCODING 198
SWIDTH 480 0
DWIDTH 12 0
BBX 15 15 0 0
BITMAP
00FE
01E0
01E0
0360
0360
06C0
04F8
0CF8
18C0
1F80
3F80
3180
6180
63F0
C3F0
ENDCHAR
STARTCHAR 00C7
ENCODING 199
SWIDTH 480 0
DWIDTH 12 0
BBX 12 20 2 -4
BITMAP
03E0
0FF0
1C10
3800
3000
7000
6000
6000
C000
C000
C000
C000
E000
6000
7F80
3F80
0800
1C00
0C00
3800
ENDCHAR
STARTCHAR 00C8
ENCODING 200
SWIDTH 480 0
DWIDTH 12 0
BBX 12 21 2 0
BITMAP
0100
0380
0180
00C0
0040
0000
1FF0
1800
1800
1800
3000
3000
3FC0
3F80
6000
6000
6000
6000
C000
FF80
FF80
ENDCHAR
STARTCHAR 00C9
ENCODING 201
SWIDTH 480 0
DWIDTH 12 0
BBX 12 20 2 1
BITMAP
0060
00C0
0180
0100
0000
1FF0
1800
1800
1800
3000
3000
3FC0
3F80
6000
6000
6000
6000
C000
FF80
FF80
ENDCHAR
STARTCHAR 00CA
ENCODING 202
SWIDTH 480 0
DWIDTH 12 0
BBX 12 20 2 1
BITMAP
00C0
01E0
0660
0020
0000
1FF0
1800
1800
1800
3000
3000
3FC0
3F80
6000
6000
6000
6000
C000
FF80
FF80
ENDCHAR
STARTCHAR 00CB
ENCODING 203
SWIDTH 480 0
DWIDTH 12 0
BBX 12 20 2 0
BITMAP
0620
0670
0660
0000
0000
1FF0
1800
1800
1800
3000
3000
3FC0
3F80
6000
6000
6000
6000
C000
FF80
FF80
ENDCHAR
STARTCHAR 00CC
ENCODING 204
SWIDTH 480 0
DWIDTH 12 0
BBX 11 20 2 1
BITMAP
0700
0380
01C0
0080
0000
1FE0
0300
0300
0300
0600
0600
0600
0600
0C00
0C00
0C00
0C00
1800
FF00
FF00
ENDCHAR
STARTCHAR 00CD
ENCODING 205
SWIDTH 480 0
DWIDTH 12 0
BBX 11 21 2 0
BITMAP
0040
00E0
01C0
0380
0000
0000
1FE0
0300
0300
0300
0600
0600
0600
0600
0C00
0C00
0C00
0C00
1800
FF00
FF00
ENDCHAR
STARTCHAR 00CE
ENCODING 206
SWIDTH 480 0
DWIDTH 12 0
BBX 11 21 2 0
BITMAP
0080
0180
03C0
0660
0000
0000
1FE0
0300
0300
0300
0600
0600
0600
0600
0C00
0C00
0C00
0C00
1800
FF00
FF00
ENDCHAR
STARTCHAR 00CF
ENCODING 207
SWIDTH 480 0
DWIDTH 12 0
BBX 12 20 2 0
BITMAP
0220
0670
0620
0000
0000
1FE0
0300
0300
0300
0600
0600
0600
0600
0C00
0C00
0C00
0C00
1800
FF00
FF00
ENDCHAR
STARTCHAR 00D0
ENCODING 208
SWIDTH 480 0
DWIDTH 12 0
BBX 11 16 2 0
BITMAP
0600
1F80
19C0
18E0
3860
3060
3060
FC60
FC60
60E0
60C0
60C0
6180
C380
FF00
FC00
ENDCHAR
STARTCHAR 00D1
ENCODING 209
SWIDTH 480 0
DWIDTH 12 0
BBX 13 20 1 0
BITMAP
0188
03F0
0260
0000
0000
1C18
1C18
1E18
1E18
1630
3230
3330
3330
2360
6160
61E0
61E0
41C0
C1C0
C0C0
ENDCHAR
STARTCHAR 00D2
ENCODING 210
SWIDTH 480 0
DWIDTH 12 0
BBX 12 20 2 1
BITMAP
0300
0180
01C0
0080
0380
0FE0
1C60
3060
3070
6070
6060
6060
C060
C060
C0E0
C0C0
C1C0
C180
7700
3E00
ENDCHAR
STARTCHAR 00D3
ENCODING 211
SWIDTH 480 0
DWIDTH 12 0
BBX 12 20 2 1
BITMAP
0060
00C0
0180
0100
0380
0FE0
1C60
3060
3070
6070
6060
6060
C060
C060
C0E0
C0C0
C1C0
C180
7700
3E00
ENDCHAR
STARTCHAR 00D4
ENCODING 212
SWIDTH 480 0
DWIDTH 12 0
BBX 12 20 2 1
BITMAP
01C0
03C0
0660
0000
0380
0FE0
1C60
3060
3070
6070
6060
6060
C060
C060
C0E0
C0C0
C1C0
C180
7700
3E00
ENDCHAR
STARTCHAR 00D5
ENCODING 213
SWIDTH 480 0
DWIDTH 12 0
BBX 12 20 2 0
BITMAP
0310
07F0
04C0
0000
0380
0FE0
1C60
3060
3070
6070
6060
6060
C060
C060
C0E0
C0C0
C1C0
C180
7700
3E00
ENDCHAR
STARTCHAR 00D6
ENCODING 214
SWIDTH 480 0
DWIDTH 12 0
BBX 12 20 2 0
BITMAP
0230
0770
0620
0000
0380
0FE0
1C60
3060
3070
6070
6060
6060
C060
C060
C0E0
C0C0
C1C0
C180
7700
3E00
ENDCHAR
STARTCHAR 00D7
ENCODING 215
SWIDTH 480 0
DWIDTH 12 0
BBX 10 9 2 2
BITMAP
1040
30C0
1B80
0F00
0E00
1E00
3300
E180
4100
ENDCHAR
STARTCHAR 00D8
ENCODING 216
SWIDTH 480 0
DWIDTH 12 0
BBX 13 17 1 -1
BITMAP
03D8
07F0
0C70
1870
38F0
30F0
31B0
6330
6630
6630
6C60
7860
70C0
71C0
7F80
FF00
4000
ENDCHAR
STARTCHAR 00D9
ENCODING 217
SWIDTH 480 0
DWIDTH 12 0
BBX 12 20 2 1
BITMAP
0600
0300
0180
0000
0000
3030
3030
3030
3060
6060
6060
6060
60E0
E0C0
C0C0
C0C0
C180
C180
7700
7E00
ENDCHAR
STARTCHAR 00DA
ENCODING 218
SWIDTH 480 0
DWIDTH 12 0
BBX 12 20 2 1
BITMAP
0060
00C0
0180
0100
0000
3030
3030
3030
3060
6060
6060
6060
60E0
E0C0
C0C0
C0C0
C180
C180
7700
7E00
ENDCHAR
STARTCHAR 00DB
ENCODING 219
SWIDTH 480 0
DWIDTH 12 0
BBX 12 21 2 0
BITMAP
0080
0180
03C0
0660
0000
0000
3030
3030
3030
3060
6060
6060
6060
60E0
E0C0
C0C0
C0C0
C180
C180
7700
7E00
ENDCHAR
STARTCHAR 00DC
ENCODING 220
SWIDTH 480 0
DWIDTH 12 0
BBX 12 20 2 0
BITMAP
0220
0670
0620
0000
0000
3030
3030
3030
3060
6060
6060
6060
60E0
E0C0
C0C0
C0C0
C180
C180
7700
7E00
ENDCHAR
STARTCHAR 00DD
ENCODING 221
SWIDTH 480 0
DWIDTH 12 0
BBX 11 20 4 1
BITMAP
0180
0380
0600
0400
0000
C060
C0C0
C1C0
C180
6300
6600
6600
3C00
3800
3000
3000
3000
7000
6000
6000
ENDCHAR
STARTCHAR 00DE
ENCODING 222
SWIDTH 480 0
DWIDTH 12 0
BBX 12 15 1 0
BITMAP
0C00
0C00
1FC0
1FE0
1870
1830
3030
3030
3060
30E0
7FC0
7E00
6000
6000
E000
ENDCHAR
STARTCHAR 00DF
ENCODING 223
SWIDTH 480 0
DWIDTH 12 0
BBX 15 21 -2 -4
BITMAP
007C
00FE
01C6
0186
018C
031C
0338
0370
0360
0770
0638
061C
060C
060C
0E0C
0CFC
0DF8
0C00
1800
F800
F000
ENDCHAR
STARTCHAR 00E0
ENCODING 224
SWIDTH 480 0
DWIDTH 12 0
BBX 11 17 2 0
BITMAP
0200
0300
0380
0180
0000
07C0
1FE0
38C0
70C0
60C0
C0C0
C180
C180
C180
C180
FF80
7D80
ENDCHAR
STARTCHAR 00E1
ENCODING 225
SWIDTH 480 0
DWIDTH 12 0
BBX 11 17 2 0
BITMAP
0040
00E0
0180
0300
0000
07C0
1FE0
38C0
70C0
60C0
C0C0
C180
C180
C180
C180
FF80
7D80
ENDCHAR
STARTCHAR 00E2
ENCODING 226
SWIDTH 480 0
DWIDTH 12 0
BBX 11 17 2 0
BITMAP
0180
0380
06C0
0440
0000
07C0
1FE0
38C0
70C0
60C0
C0C0
C180
C180
C180
C180
FF80
7D80
ENDCHAR
STARTCHAR 00E3
ENCODING 227
SWIDTH 480 0
DWIDTH 12 0
BBX 12 16 2 0
BITMAP
07B0
0DE0
0000
0000
07C0
1FE0
38C0
70C0
60C0
C0C0
C180
C180
C180
C180
FF80
7D80
ENDCHAR
STARTCHAR 00E4
ENCODING 228
SWIDTH 480 0
DWIDTH 12 0
BBX 12 16 2 0
BITMAP
0670
0660
0000
0000
07C0
1FE0
38C0
70C0
60C0
C0C0
C180
C180
C180
C180
FF80
7D80
ENDCHAR
STARTCHAR 00E5
ENCODING 229
SWIDTH 480 0
DWIDTH 12 0
BBX 11 17 2 0
BITMAP
03C0
0240
0240
03C0
0000
07C0
1FE0
38C0
70C0
60C0
C0C0
C180
C180
C180
C180
FF80
7D80
ENDCHAR
STARTCHAR 00E6
ENCODING 230
SWIDTH 480 0
DWIDTH 12 0
BBX 13 12 1 0
BITMAP
1C70
3EF0
0798
0318
0330
1E70
3FE0
6600
C600
CE00
FBE0
73E0
ENDCHAR
STARTCHAR 00E7
ENCODING 231
SWIDTH 480 0
DWIDTH 12 0
BBX 10 16 2 -4
BITMAP
07C0
1FC0
3800
6000
E000
C000
C000
C000
C000
C000
7F80
3F80
1800
1800
1800
7800
ENDCHAR
STARTCHAR 00E8
ENCODING 232
SWIDTH 480 0
DWIDTH 12 0
BBX 11 17 2 0
BITMAP
0200
0300
0180
0080
0000
0780
1FC0
30E0
60E0
E0C0
C3C0
FF00
C000
C000
C000
7F80
3F80
ENDCHAR
STARTCHAR 00E9
ENCODING 233
SWIDTH 480 0
DWIDTH 12 0
BBX 11 17 2 0
BITMAP
00C0
01C0
0380
0200
0000
0780
1FC0
30E0
60E0
E0C0
C3C0
FF00
C000
C000
C000
7F80
3F80
ENDCHAR
STARTCHAR 00EA
ENCODING 234
SWIDTH 480 0
DWIDTH 12 0
BBX 11 17 2 0
BITMAP
0100
0380
06C0
0440
0000
0780
1FC0
30E0
60E0
E0C0
C3C0
FF00
C000
C000
C000
7F80
3F80
ENDCHAR
STARTCHAR 00EB
ENCODING 235
SWIDTH 480 0
DWIDTH 12 0
BBX 11 16 2 0
BITMAP
0660
0660
0000
0000
0780
1FC0
30E0
60E0
E0C0
C3C0
FF00
C000
C000
C000
7F80
3F80
ENDCHAR
STARTCHAR 00EC
ENCODING 236
SWIDTH 480 0
DWIDTH 12 0
BBX 8 17 3 0
BITMAP
18
1C
0C
06
00
7C
FC
0C
18
18
18
18
30
30
30
1F
1F
ENDCHAR
STARTCHAR 00ED
ENCODING 237
SWIDTH 480 0
DWIDTH 12 0
BBX 8 17 3 0
BITMAP
03
07
0E
0C
00
7C
FC
0C
18
18
18
18
30
30
30
1F
1F
ENDCHAR
STARTCHAR 00EE
ENCODING 238
SWIDTH 480 0
DWIDTH 12 0
BBX 8 17 3 0
BITMAP
04
0E
1B
11
00
7C
FC
0C
18
18
18
18
30
30
30
1F
1F
ENDCHAR
STARTCHAR 00EF
ENCODING 239
SWIDTH 480 0
DWIDTH 12 0
BBX 9 16 3 0
BITMAP
3980
3B80
0000
0000
7C00
FC00
0C00
1800
1800
1800
1800
3000
3000
3000
1F00
1F00
ENDCHAR
STARTCHAR 00F0
ENCODING 240
SWIDTH 480 0
DWIDTH 12 0
BBX 12 17 2 0
BITMAP
0300
03B0
01F0
07C0
00C0
00C0
0FC0
3FC0
70C0
60C0
C0C0
C0C0
C0C0
C180
C380
7F00
3E00
ENDCHAR
STARTCHAR 00F1
ENCODING 241
SWIDTH 480 0
DWIDTH 12 0
BBX 11 16 2 0
BITMAP
0F60
1BC0
0000
0000
0F00
3FC0
30C0
30C0
60C0
60C0
60C0
60C0
C180
C180
C180
C180
ENDCHAR
STARTCHAR 00F2
ENCODING 242
SWIDTH 480 0
DWIDTH 12 0
BBX 11 17 2 0
BITMAP
0600
0700
0300
0180
0000
0F80
1FC0
38C0
70E0
6060
C0E0
C0C0
C0C0
C1C0
C180
7F00
7E00
ENDCHAR
STARTCHAR 00F3
ENCODING 243
SWIDTH 480 0
DWIDTH 12 0
BBX 11 17 2 0
BITMAP
00C0
01C0
0380
0200
0000
0F80
1FC0
38C0
70E0
6060
C0E0
C0C0
C0C0
C1C0
C180
7F00
7E00
ENDCHAR
STARTCHAR 00F4
ENCODING 244
SWIDTH 480 0
DWIDTH 12 0
BBX 11 17 2 0
BITMAP
0100
0380
06C0
0440
0000
0F80
1FC0
38C0
70E0
6060
C0E0
C0C0
C0C0
C1C0
C180
7F00
7E00
ENDCHAR
STARTCHAR 00F5
ENCODING 245
SWIDTH 480 0
DWIDTH 12 0
BBX 11 16 2 0
BITMAP
0F60
09C0
0000
0000
0F80
1FC0
38C0
70E0
6060
C0E0
C0C0
C0C0
C1C0
C180
7F00
7E00
ENDCHAR
STARTCHAR 00F6
ENCODING 246
SWIDTH 480 0
DWIDTH 12 0
BBX 11 16 2 0
BITMAP
0E60
0EE0
0000
0000
0F80
1FC0
38C0
70E0
6060
C0E0
C0C0
C0C0
C1C0
C180
7F00
7E00
ENDCHAR
STARTCHAR 00F7
ENCODING 247
SWIDTH 480 0
DWIDTH 12 0
BBX 10 11 2 1
BITMAP
0700
0700
0600
0000
0000
FFC0
0000
0000
0C00
1C00
1C00
ENDCHAR
STARTCHAR 00F8
ENCODING 248
SWIDTH 480 0
DWIDTH 12 0
BBX 13 13 1 -1
BITMAP
07D8
0FF0
1C60
38F0
31B0
6330
6660
6C60
78E0
70C0
7F80
FF00
8000
ENDCHAR
STARTCHAR 00F9
ENCODING 249
SWIDTH 480 0
DWIDTH 12 0
BBX 11 17 2 0
BITMAP
0400
0600
0300
0100
0000
3060
3060
60C0
60C0
60C0
60C0
C180
C180
C180
C380
FF80
7D80
ENDCHAR
STARTCHAR 00FA
ENCODING 250
SWIDTH 480 0
DWIDTH 12 0
BBX 11 17 2 0
BITMAP
0080
01C0
0300
0200
0000
3060
3060
60C0
60C0
60C0
60C0
C180
C180
C180
C380
FF80
7D80
ENDCHAR
STARTCHAR 00FB
ENCODING 251
SWIDTH 480 0
DWIDTH 12 0
BBX 11 17 2 0
BITMAP
0100
0380
0F80
0880
0000
3060
3060
60C0
60C0
60C0
60C0
C180
C180
C180
C380
FF80
7D80
ENDCHAR
STARTCHAR 00FC
ENCODING 252
SWIDTH 480 0
DWIDTH 12 0
BBX 11 16 2 0
BITMAP
0CC0
0CC0
0000
0000
3060
3060
60C0
60C0
60C0
60C0
C180
C180
C180
C380
FF80
7D80
ENDCHAR
STARTCHAR 00FD
ENCODING 253
SWIDTH 480 0
DWIDTH 12 0
BBX 13 21 0 -4
BITMAP
0020
0070
00C0
0080
0000
1C18
1C18
0C18
0C30
0C30
0C70
0C60
0C60
06C0
0780
0780
0700
0600
0E00
FC00
F000
ENDCHAR
STARTCHAR 00FE
ENCODING 254
SWIDTH 480 0
DWIDTH 12 0
BBX 12 21 1 -4
BITMAP
0C00
0C00
0C00
0C00
1C00
1BC0
1FE0
1860
3870
3030
3070
3060
3060
60E0
61C0
7F80
7E00
C000
C000
C000
C000
ENDCHAR
STARTCHAR 00FF
ENCODING 255
SWIDTH 480 0
DWIDTH 12 0
BBX 13 20 0 -4
BITMAP
0330
0330
0000
0000
1C18
1C18
0C18
0C30
0C30
0C70
0C60
0C60
06C0
0780
0780
0700
0600
0E00
FC00
F000
ENDCHAR
STARTCHAR 0100
ENCODING 256
SWIDTH 480 0
DWIDTH 12 0
BBX 13 19 0 0
BITMAP
01F8
0000
0000
0000
00E0
01E0
0360
0360
0660
0660
0C60
0860
1860
3FF0
3FF0
6030
6030
C030
C030
ENDCHAR
STARTCHAR 0101
ENCODING 257
SWIDTH 480 0
DWIDTH 12 0
BBX 11 16 2 0
BITMAP
07E0
07E0
0000
0000
07C0
1FE0
38C0
70C0
60C0
C0C0
C180
C180
C180
C180
FF80
7D80
ENDCHAR
STARTCHAR 0102
ENCODING 258
SWIDTH 480 0
DWIDTH 12 0
BBX 13 20 0 0
BITMAP
0188
00F8
00F0
0000
0000
00E0
01E0
0360
0360
0660
0660
0C60
0860
1860
3FF0
3FF0
6030
6030
C030
C030
ENDCHAR
STARTCHAR 0103
ENCODING 259
SWIDTH 480 0
DWIDTH 12 0
BBX 11 17 2 0
BITMAP
0220
0260
03C0
0000
0000
07C0
1FE0
38C0
70C0
60C0
C0C0
C180
C180
C180
C180
FF80
7D80
ENDCHAR
STARTCHAR 0104
ENCODING 260
SWIDTH 480 0
DWIDTH 12 0
BBX 12 19 0 -4
BITMAP
00E0
01E0
0360
0360
0660
0660
0C60
0860
1860
3FF0
3FF0
6030
6030
C030
C030
0060
00C0
00C0
00E0
ENDCHAR
STARTCHAR 0105
ENCODING 261
SWIDTH 480 0
DWIDTH 12 0
BBX 11 16 2 -4
BITMAP
07C0
1FE0
38C0
70C0
60C0
C0C0
C180
C180
C180
C180
FF80
7D80
0300
0600
0600
0700
ENDCHAR
STARTCHAR 0106
ENCODING 262
SWIDTH 480 0
DWIDTH 12 0
BBX 12 20 2 1
BITMAP
0060
00E0
0180
0100
03E0
0FF0
1C10
3800
3000
7000
6000
6000
C000
C000
C000
C000
E000
6000
7F80
3F80
ENDCHAR
STARTCHAR 0107
ENCODING 263
SWIDTH 480 0
DWIDTH 12 0
BBX 11 17 2 0
BITMAP
0040
00E0
0180
0300
0000
07C0
1FC0
3800
6000
E000
C000
C000
C000
C000
C000
7F80
3F80
ENDCHAR
STARTCHAR 0108
ENCODING 264
SWIDTH 480 0
DWIDTH 12 0
BBX 12 21 2 0
BITMAP
0040
00C0
01E0
0330
0000
03E0
0FF0
1C10
3800
3000
7000
6000
6000
C000
C000
C000
C000
E000
6000
7F80
3F80
ENDCHAR
STARTCHAR 0109
ENCODING 265
SWIDTH 480 0
DWIDTH 12 0
BBX 10 17 2 0
BITMAP
0180
0380
06C0
0440
0000
07C0
1FC0
3800
6000
E000
C000
C000
C000
C000
C000
7F80
3F80
ENDCHAR
STARTCHAR 010A
ENCODING 266
SWIDTH 480 0
DWIDTH 12 0
BBX 12 20 2 0
BITMAP
00C0
01C0
0080
0000
03E0
0FF0
1C10
3800
3000
7000
6000
6000
C000
C000
C000
C000
E000
6000
7F80
3F80
ENDCHAR
STARTCHAR 010B
ENCODING 267
SWIDTH 480 0
DWIDTH 12 0
BBX 10 16 2 0
BITMAP
0180
0180
0000
0000
07C0
1FC0
3800
6000
E000
C000
C000
C000
C000
C000
7F80
3F80
ENDCHAR
STARTCHAR 010C
ENCODING 268
SWIDTH 480 0
DWIDTH 12 0
BBX 12 21 2 0
BITMAP
0010
0330
01E0
00C0
0000
03E0
0FF0
1C10
3800
3000
7000
6000
6000
C000
C000
C000
C000
E000
6000
7F80
3F80
ENDCHAR
STARTCHAR 010D
ENCODING 269
SWIDTH 480 0
DWIDTH 12 0
BBX 11 17 2 0
BITMAP
0660
03C0
0380
0100
0000
07C0
1FC0
3800
6000
E000
C000
C000
C000
C000
C000
7F80
3F80
ENDCHAR
STARTCHAR 010E
ENCODING 270
SWIDTH 480 0
DWIDTH 12 0
BBX 12 21 1 0
BITMAP
0200
0360
01C0
0180
0000
0200
1FC0
18E0
1870
1830
3030
3030
3030
3030
6070
6060
6060
60C0
C1C0
FF00
FE00
ENDCHAR
STARTCHAR 010F
ENCODING 271
SWIDTH 480 0
DWIDTH 12 0
BBX 15 17 1 0
BITMAP
0076
0064
006C
006C
00E8
07C0
1FC0
38C0
70C0
6180
6180
C180
C180
C300
C300
7F00
7D80
ENDCHAR
STARTCHAR 0110
ENCODING 272
SWIDTH 480 0
DWIDTH 12 0
BBX 11 16 2 0
BITMAP
0600
1F80
19C0
18E0
3860
3060
3060
FC60
FC60
60E0
60C0
60C0
6180
C380
FF00
FC00
ENDCHAR
STARTCHAR 0111
ENCODING 273
SWIDTH 480 0
DWIDTH 12 0
BBX 13 17 2 0
BITMAP
0030
0030
07F8
0060
0060
07E0
1FC0
38C0
70C0
60C0
E180
C180
C180
C180
C380
FF80
7D80
ENDCHAR
STARTCHAR 0112
ENCODING 274
SWIDTH 480 0
DWIDTH 12 0
BBX 12 19 2 0
BITMAP
07F0
0000
0000
0000
1FF0
1800
1800
1800
3000
3000
3FC0
3F80
6000
6000
6000
6000
C000
FF80
FF80
ENDCHAR
STARTCHAR 0113
ENCODING 275
SWIDTH 480 0
DWIDTH 12 0
BBX 11 16 2 0
BITMAP
07E0
0FE0
0000
0000
0780
1FC0
30E0
60E0
E0C0
C3C0
FF00
C000
C000
C000
7F80
3F80
ENDCHAR
STARTCHAR 0114
ENCODING 276
SWIDTH 480 0
DWIDTH 12 0
BBX 12 20 2 0
BITMAP
0230
03E0
01C0
0000
0000
1FF0
1800
1800
1800
3000
3000
3FC0
3F80
6000
6000
6000
6000
C000
FF80
FF80
ENDCHAR
STARTCHAR 0115
ENCODING 277
SWIDTH 480 0
DWIDTH 12 0
BBX 11 17 2 0
BITMAP
0420
0660
03C0
0000
0000
0780
1FC0
30E0
60E0
E0C0
C3C0
FF00
C000
C000
C000
7F80
3F80
ENDCHAR
STARTCHAR 0116
ENCODING 278
SWIDTH 480 0
DWIDTH 12 0
BBX 12 20 2 0
BITMAP
0080
01C0
0180
0000
0000
1FF0
1800
1800
1800
3000
3000
3FC0
3F80
6000
6000
6000
6000
C000
FF80
FF80
ENDCHAR
STARTCHAR 0117
ENCODING 279
SWIDTH 480 0
DWIDTH 12 0
BBX 11 16 2 0
BITMAP
0380
0380
0000
0000
0780
1FC0
30E0
60E0
E0C0
C3C0
FF00
C000
C000
C000
7F80
3F80
ENDCHAR
STARTCHAR 0118
ENCODING 280
SWIDTH 480 0
DWIDTH 12 0
BBX 12 19 2 -4
BITMAP
1FF0
1800
1800
1800
3000
3000
3FC0
3F80
6000
6000
6000
6000
C000
FF80
FF80
0300
0600
0600
0700
ENDCHAR
STARTCHAR 0119
ENCODING 281
SWIDTH 480 0
DWIDTH 12 0
BBX 11 16 2 -4
BITMAP
0780
1FC0
30E0
60E0
E0C0
C3C0
FF00
C000
C000
C000
7F80
3F80
0600
0C00
0C00
0E00
ENDCHAR
STARTCHAR 011A
ENCODING 282
SWIDTH 480 0
DWIDTH 12 0
BBX 12 20 2 1
BITMAP
0330
01E0
0080
0000
0000
1FF0
1800
1800
1800
3000
3000
3FC0
3F80
6000
6000
6000
6000
C000
FF80
FF80
ENDCHAR
STARTCHAR 011B
ENCODING 283
SWIDTH 480 0
DWIDTH 12 0
BBX 11 17 2 0
BITMAP
0660
06C0
0380
0100
0000
0780
1FC0
30E0
60E0
E0C0
C3C0
FF00
C000
C000
C000
7F80
3F80
ENDCHAR
STARTCHAR 011C
ENCODING 284
SWIDTH 480 0
DWIDTH 12 0
BBX 12 20 2 1
BITMAP
00C0
01E0
0660
0020
03E0
0FF0
1C20
3800
3000
6000
6000
E000
C0C0
C0C0
C0C0
C0C0
C1C0
E180
7B80
3F80
ENDCHAR
STARTCHAR 011D
ENCODING 285
SWIDTH 480 0
DWIDTH 12 0
BBX 12 21 1 -4
BITMAP
0040
01E0
03E0
0220
0000
01F0
0FF0
1C30
3870
3060
3060
6060
6060
60C0
71C0
3FC0
04C0
0180
0380
FF00
FE00
ENDCHAR
STARTCHAR 011E
ENCODING 286
SWIDTH 480 0
DWIDTH 12 0
BBX 12 20 2 0
BITMAP
0230
03E0
01C0
0000
03E0
0FF0
1C20
3800
3000
6000
6000
E000
C0C0
C0C0
C0C0
C0C0
C1C0
E180
7B80
3F80
ENDCHAR
STARTCHAR 011F
ENCODING 287
SWIDTH 480 0
DWIDTH 12 0
BBX 12 21 1 -4
BITMAP
0310
0330
01E0
0000
0000
01F0
0FF0
1C30
3870
3060
3060
6060
6060
60C0
71C0
3FC0
04C0
0180
0380
FF00
FE00
ENDCHAR
STARTCHAR 0120
ENCODING 288
SWIDTH 480 0
DWIDTH 12 0
BBX 12 20 2 0
BITMAP
0080
01C0
0180
0000
03E0
0FF0
1C20
3800
3000
6000
6000
E000
C0C0
C0C0
C0C0
C0C0
C1C0
E180
7B80
3F80
ENDCHAR
STARTCHAR 0121
ENCODING 289
SWIDTH 480 0
DWIDTH 12 0
BBX 12 20 1 -4
BITMAP
00C0
00C0
0000
0000
01F0
0FF0
1C30
3870
3060
3060
6060
6060
60C0
71C0
3FC0
04C0
0180
0380
FF00
FE00
ENDCHAR
STARTCHAR 0122
ENCODING 290
SWIDTH 480 0
DWIDTH 12 0
BBX 12 20 2 -4
BITMAP
03E0
0FF0
1C20
3800
3000
6000
6000
E000
C0C0
C0C0
C0C0
C0C0
C1C0
E180
7B80
3F80
0000
1800
1800
7000
ENDCHAR
STARTCHAR 0123
ENCODING 291
SWIDTH 480 0
DWIDTH 12 0
BBX 12 21 1 -4
BITMAP
0070
0060
00C0
0000
0000
01F0
0FF0
1C30
3870
3060
3060
6060
6060
60C0
71C0
3FC0
04C0
0180
0380
FF00
FE00
ENDCHAR
STARTCHAR 0124
ENCODING 292
SWIDTH 480 0
DWIDTH 12 0
BBX 13 21 1 0
BITMAP
0040
00C0
01E0
0330
0000
0000
1818
1818
1818
1830
3030
3030
3FF0
3FF0
7060
6060
6060
60E0
E0C0
C0C0
C0C0
ENDCHAR
STARTCHAR 0125
ENCODING 293
SWIDTH 480 0
DWIDTH 12 0
BBX 11 20 1 1
BITMAP
0700
0D80
0000
0C00
0C00
0C00
1800
1800
1F80
1FC0
30E0
3060
3060
3060
70C0
60C0
60C0
60C0
E1C0
C180
ENDCHAR
STARTCHAR 0126
ENCODING 294
SWIDTH 480 0
DWIDTH 12 0
BBX 13 15 2 0
BITMAP
1870
1860
7FF8
3060
30E0
30C0
3FC0
7FC0
60C0
6180
6180
C180
C180
C300
C300
ENDCHAR
STARTCHAR 0127
ENCODING 295
SWIDTH 480 0
DWIDTH 12 0
BBX 10 17 2 0
BITMAP
0C00
0C00
3F80
1800
1800
1F80
1FC0
30C0
30C0
30C0
30C0
60C0
60C0
6180
6180
C180
C180
ENDCHAR
STARTCHAR 0128
ENCODING 296
SWIDTH 480 0
DWIDTH 12 0
BBX 11 20 2 0
BITMAP
0320
07E0
04C0
0000
0000
1FE0
0300
0300
0300
0600
0600
0600
0600
0C00
0C00
0C00
0C00
1800
FF00
FF00
ENDCHAR
STARTCHAR 0129
ENCODING 297
SWIDTH 480 0
DWIDTH 12 0
BBX 9 16 3 0
BITMAP
1F80
3780
0000
0000
7C00
FC00
0C00
1800
1800
1800
1800
3000
3000
3000
1F00
1F00
ENDCHAR
STARTCHAR 012A
ENCODING 298
SWIDTH 480 0
DWIDTH 12 0
BBX 11 19 2 0
BITMAP
07E0
0000
0000
0000
1FE0
0300
0300
0300
0600
0600
0600
0600
0C00
0C00
0C00
0C00
1800
FF00
FF00
ENDCHAR
STARTCHAR 012B
ENCODING 299
SWIDTH 480 0
DWIDTH 12 0
BBX 9 16 3 0
BITMAP
1F80
3F80
0000
0000
7C00
FC00
0C00
1800
1800
1800
1800
3000
3000
3000
1F00
1F00
ENDCHAR
STARTCHAR 012C
ENCODING 300
SWIDTH 480 0
DWIDTH 12 0
BBX 11 20 2 0
BITMAP
0620
03E0
03C0
0000
0000
1FE0
0300
0300
0300
0600
0600
0600
0600
0C00
0C00
0C00
0C00
1800
FF00
FF00
ENDCHAR
STARTCHAR 012D
ENCODING 301
SWIDTH 480 0
DWIDTH 12 0
BBX 9 17 3 0
BITMAP
1880
1980
0F00
0000
0000
7C00
FC00
0C00
1800
1800
1800
1800
3000
3000
3000
1F00
1F00
ENDCHAR
STARTCHAR 012E
ENCODING 302
SWIDTH 480 0
DWIDTH 12 0
BBX 11 19 2 -4
BITMAP
1FE0
0300
0300
0300
0600
0600
0600
0600
0C00
0C00
0C00
0C00
1800
FF00
FF00
3000
6000
6000
7000
ENDCHAR
STARTCHAR 012F
ENCODING 303
SWIDTH 480 0
DWIDTH 12 0
BBX 8 21 3 -4
BITMAP
04
0E
0E
04
00
7C
FC
0C
18
18
18
18
30
30
30
1F
1F
06
08
18
1E
ENDCHAR
STARTCHAR 0130
ENCODING 304
SWIDTH 480 0
DWIDTH 12 0
BBX 11 20 2 0
BITMAP
0180
0180
0180
0000
0000
1FE0
0300
0300
0300
0600
0600
0600
0600
0C00
0C00
0C00
0C00
1800
FF00
FF00
ENDCHAR
STARTCHAR 0131
ENCODING 305
SWIDTH 480 0
DWIDTH 12 0
BBX 8 12 3 0
BITMAP
7C
FC
0C
18
18
18
18
30
30
30
1F
1F
ENDCHAR
STARTCHAR 0132
ENCODING 306
SWIDTH 480 0
DWIDTH 12 0
BBX 14 15 1 0
BITMAP
180C
1818
3818
3018
3018
3030
3030
6030
6030
6070
6060
C060
C0E0
CDC0
CF80
ENDCHAR
STARTCHAR 0133
ENCODING 307
SWIDTH 480 0
DWIDTH 12 0
BBX 11 20 3 -3
BITMAP
18E0
18C0
0000
0000
3180
3180
3180
7180
6300
6300
6300
E300
C600
C600
C600
C600
0C00
0C00
7C00
F800
ENDCHAR
STARTCHAR 0134
ENCODING 308
SWIDTH 480 0
DWIDTH 12 0
BBX 12 21 2 0
BITMAP
0040
00C0
01E0
0330
0000
0000
0FF0
0060
0060
0060
0060
00C0
00C0
00C0
00C0
0180
0180
0180
0380
EF00
FE00
ENDCHAR
STARTCHAR 0135
ENCODING 309
SWIDTH 480 0
DWIDTH 12 0
BBX 11 21 1 -4
BITMAP
00C0
01C0
0360
0220
0000
0FE0
0FE0
00C0
00C0
00C0
00C0
0180
0180
0180
0180
0380
0300
0300
0700
FE00
FC00
ENDCHAR
STARTCHAR 0136
ENCODING 310
SWIDTH 480 0
DWIDTH 12 0
BBX 13 19 1 -4
BITMAP
0C38
1870
18E0
19C0
1B80
3700
3E00
3E00
3600
6300
6380
6180
61C0
E0C0
C0C0
0000
0C00
1800
3800
ENDCHAR
STARTCHAR 0137
ENCODING 311
SWIDTH 480 0
DWIDTH 12 0
BBX 12 21 2 -4
BITMAP
0C00
1800
1800
1800
1800
3070
30E0
3180
3700
6E00
7C00
7C00
6E00
C700
C300
C380
C180
0000
1800
1800
7000
ENDCHAR
STARTCHAR 0138
ENCODING 312
SWIDTH 480 0
DWIDTH 12 0
BBX 12 12 2 0
BITMAP
3070
30C0
3180
3700
6E00
7800
7C00
6E00
C700
C300
C380
C180
ENDCHAR
STARTCHAR 0139
ENCODING 313
SWIDTH 480 0
DWIDTH 12 0
BBX 9 21 1 0
BITMAP
0080
0180
0380
0600
0000
0000
0C00
0C00
1800
1800
1800
1800
3000
3000
3000
3000
7000
6000
6000
7F80
FF80
ENDCHAR
STARTCHAR 013A
ENCODING 314
SWIDTH 480 0
DWIDTH 12 0
BBX 7 20 4 1
BITMAP
0E
1C
00
7C
FC
0C
18
18
18
18
30
30
30
30
70
60
60
60
7E
3E
ENDCHAR
STARTCHAR 013B
ENCODING 315
SWIDTH 480 0
DWIDTH 12 0
BBX 9 19 1 -4
BITMAP
0C00
0C00
1800
1800
1800
1800
3000
3000
3000
3000
7000
6000
6000
7F80
FF80
0000
0C00
0C00
3800
ENDCHAR
STARTCHAR 013C
ENCODING 316
SWIDTH 480 0
DWIDTH 12 0
BBX 7 21 4 -4
BITMAP
7C
FC
0C
18
18
18
18
30
30
30
30
60
60
60
60
7E
3E
00
38
30
E0
ENDCHAR
STARTCHAR 013D
ENCODING 317
SWIDTH 480 0
DWIDTH 12 0
BBX 10 16 1 0
BITMAP
00C0
0CC0
0C80
1980
1980
1800
1800
3000
3000
3000
3000
7000
6000
6000
7F80
FF80
ENDCHAR
STARTCHAR 013E
ENCODING 318
SWIDTH 480 0
DWIDTH 12 0
BBX 10 17 4 0
BITMAP
7CC0
FC80
0D80
1980
1900
1800
1800
3000
3000
3000
3000
6000
6000
6000
6000
7E00
3E00
ENDCHAR
STARTCHAR 013F
ENCODING 319
SWIDTH 480 0
DWIDTH 12 0
BBX 10 15 1 0
BITMAP
0C00
0C00
1800
1800
1800
1800
30C0
30C0
3000
3000
7000
6000
6000
7F80
FF80
ENDCHAR
STARTCHAR 0140
ENCODING 320
SWIDTH 480 0
DWIDTH 12 0
BBX 10 17 4 0
BITMAP
7C00
FC00
0C00
1800
1800
1800
1800
3000
30C0
30C0
3000
6000
6000
6000
6000
7E00
3E00
ENDCHAR
STARTCHAR 0141
ENCODING 321
SWIDTH 480 0
DWIDTH 12 0
BBX 9 15 1 0
BITMAP
0C00
0C00
0C00
1800
1800
1B00
1E00
7800
F000
3000
3000
7000
6000
7F80
7F80
ENDCHAR
STARTCHAR 0142
ENCODING 322
SWIDTH 480 0
DWIDTH 12 0
BBX 7 17 4 0
BITMAP
7C
FC
0C
18
18
18
1E
3C
F0
F0
30
60
60
60
60
7E
3E
ENDCHAR
STARTCHAR 0143
ENCODING 323
SWIDTH 480 0
DWIDTH 12 0
BBX 13 20 1 1
BITMAP
0030
0060
00C0
0080
0000
1C18
1C18
1E18
1E18
1630
3230
3330
3330
2360
6160
61E0
61E0
41C0
C1C0
C0C0
ENDCHAR
STARTCHAR 0144
ENCODING 324
SWIDTH 480 0
DWIDTH 12 0
BBX 10 17 2 0
BITMAP
00C0
01C0
0380
0200
0000
0F00
3FC0
30C0
30C0
60C0
60C0
60C0
60C0
C180
C180
C180
C180
ENDCHAR
STARTCHAR 0145
ENCODING 325
SWIDTH 480 0
DWIDTH 12 0
BBX 13 19 1 -4
BITMAP
1C18
1C18
1E18
1E18
1630
3230
3330
3330
2360
6160
61E0
61E0
41C0
C1C0
C0C0
0000
0C00
1800
3800
ENDCHAR
STARTCHAR 0146
ENCODING 326
SWIDTH 480 0
DWIDTH 12 0
BBX 10 16 2 -4
BITMAP
0F00
3FC0
30C0
30C0
60C0
60C0
60C0
60C0
C180
C180
C180
C180
0000
1800
3000
7000
ENDCHAR
STARTCHAR 0147
ENCODING 327
SWIDTH 480 0
DWIDTH 12 0
BBX 13 21 1 0
BITMAP
0100
01B0
01E0
00C0
0000
0000
1C18
1C18
1E18
1E18
1630
3230
3330
3330
2360
6160
61E0
61E0
41C0
C1C0
C0C0
ENDCHAR
STARTCHAR 0148
ENCODING 328
SWIDTH 480 0
DWIDTH 12 0
BBX 10 17 2 0
BITMAP
0440
06C0
0380
0000
0000
0F00
3FC0
30C0
30C0
60C0
60C0
60C0
60C0
C180
C180
C180
C180
ENDCHAR
STARTCHAR 0149
ENCODING 329
SWIDTH 480 0
DWIDTH 12 0
BBX 10 17 2 0
BITMAP
1800
3000
3000
6000
0000
0F00
3FC0
30C0
30C0
60C0
60C0
60C0
60C0
C180
C180
C180
C180
ENDCHAR
STARTCHAR 014A
ENCODING 330
SWIDTH 480 0
DWIDTH 12 0
BBX 13 19 1 -4
BITMAP
1C18
1C18
1E18
1E18
1630
3330
3330
3330
2160
61E0
61E0
61E0
40C0
C0C0
C0C0
00C0
0180
0780
0700
ENDCHAR
STARTCHAR 014B
ENCODING 331
SWIDTH 480 0
DWIDTH 12 0
BBX 10 16 2 -4
BITMAP
0F80
3FC0
30C0
30C0
60C0
60C0
60C0
60C0
C180
C180
C180
C180
0300
0300
1F00
1E00
ENDCHAR
STARTCHAR 014C
ENCODING 332
SWIDTH 480 0
DWIDTH 12 0
BBX 12 19 2 0
BITMAP
07E0
0000
0000
0380
0FE0
1C60
3060
3070
6070
6060
6060
C060
C060
C0E0
C0C0
C1C0
C180
7700
3E00
ENDCHAR
STARTCHAR 014D
ENCODING 333
SWIDTH 480 0
DWIDTH 12 0
BBX 11 16 2 0
BITMAP
07E0
0FE0
0000
0000
0F80
1FC0
38C0
70E0
6060
C0E0
C0C0
C0C0
C1C0
C180
7F00
7E00
ENDCHAR
STARTCHAR 014E
ENCODING 334
SWIDTH 480 0
DWIDTH 12 0
BBX 12 20 2 0
BITMAP
0230
03E0
01C0
0000
0380
0FE0
1C60
3060
3070
6070
6060
6060
C060
C060
C0E0
C0C0
C1C0
C180
7700
3E00
ENDCHAR
STARTCHAR 014F
ENCODING 335
SWIDTH 480 0
DWIDTH 12 0
BBX 11 17 2 0
BITMAP
0420
0660
03C0
0000
0000
0F80
1FC0
38C0
70E0
6060
C0E0
C0C0
C0C0
C1C0
C180
7F00
7E00
ENDCHAR
STARTCHAR 0150
ENCODING 336
SWIDTH 480 0
DWIDTH 12 0
BBX 13 20 2 1
BITMAP
0198
0330
0660
0040
0380
0FE0
1C60
3060
3070
6070
6060
6060
C060
C060
C0E0
C0C0
C1C0
C180
7700
3E00
ENDCHAR
STARTCHAR 0151
ENCODING 337
SWIDTH 480 0
DWIDTH 12 0
BBX 11 17 2 0
BITMAP
0320
0760
0CC0
0880
0000
0F80
1FC0
38C0
70E0
6060
C0E0
C0C0
C0C0
C1C0
C180
7F00
7E00
ENDCHAR
STARTCHAR 0152
ENCODING 338
SWIDTH 480 0
DWIDTH 12 0
BBX 13 16 2 0
BITMAP
0300
1FF8
3980
3180
6180
6180
C300
C3E0
C3E0
C300
C600
C600
C600
C600
FFC0
7FC0
ENDCHAR
STARTCHAR 0153
ENCODING 339
SWIDTH 480 0
DWIDTH 12 0
BBX 13 12 1 0
BITMAP
0E70
1EF8
3398
6318
6330
6370
E3E0
E700
C700
E700
7FE0
79E0
ENDCHAR
STARTCHAR 0154
ENCODING 340
SWIDTH 480 0
DWIDTH 12 0
BBX 12 21 1 0
BITMAP
0020
0060
00E0
01C0
0000
0780
0FE0
1870
1830
1830
1830
3030
3060
3FC0
3F00
6380
6180
6180
60C0
E0C0
C0C0
ENDCHAR
STARTCHAR 0155
ENCODING 341
SWIDTH 480 0
DWIDTH 12 0
BBX 11 17 2 0
BITMAP
0040
00E0
0180
0300
0000
07E0
1FE0
1800
3000
3000
3000
3000
6000
6000
6000
6000
C000
ENDCHAR
STARTCHAR 0156
ENCODING 342
SWIDTH 480 0
DWIDTH 12 0
BBX 12 20 1 -4
BITMAP
0780
0FE0
1870
1830
1830
1830
3030
3060
3FC0
3F00
6380
6180
6180
60C0
E0C0
C0C0
0000
0C00
1800
3800
ENDCHAR
STARTCHAR 0157
ENCODING 343
SWIDTH 480 0
DWIDTH 12 0
BBX 13 16 0 -4
BITMAP
01F8
07F8
0600
0C00
0C00
0C00
0C00
1800
1800
1800
1800
3000
0000
3000
7000
E000
ENDCHAR
STARTCHAR 0158
ENCODING 344
SWIDTH 480 0
DWIDTH 12 0
BBX 12 21 1 0
BITMAP
0200
0360
01C0
0180
0000
0780
0FE0
1870
1830
1830
1830
3030
3060
3FC0
3F00
6380
6180
6180
60C0
E0C0
C0C0
ENDCHAR
STARTCHAR 0159
ENCODING 345
SWIDTH 480 0
DWIDTH 12 0
BBX 11 17 2 0
BITMAP
0620
03E0
0180
0100
0000
07E0
1FE0
1800
3000
3000
3000
3000
6000
6000
6000
6000
C000
ENDCHAR
STARTCHAR 015A
ENCODING 346
SWIDTH 480 0
DWIDTH 12 0
BBX 11 21 2 0
BITMAP
0040
00C0
01C0
0380
0000
07C0
0FE0
1820
3000
3000
3000
3800
1E00
0700
0380
01C0
00C0
01C0
0180
FF80
FE00
ENDCHAR
STARTCHAR 015B
ENCODING 347
SWIDTH 480 0
DWIDTH 12 0
BBX 10 17 2 0
BITMAP
00C0
01C0
0380
0200
0000
07C0
1FC0
3800
3000
3800
1E00
0F00
0380
0180
0180
F700
FE00
ENDCHAR
STARTCHAR 015C
ENCODING 348
SWIDTH 480 0
DWIDTH 12 0
BBX 11 21 2 0
BITMAP
0080
0180
03C0
0660
0000
07C0
0FE0
1820
3000
3000
3000
3800
1E00
0700
0380
01C0
00C0
01C0
0180
FF80
FE00
ENDCHAR
STARTCHAR 015D
ENCODING 349
SWIDTH 480 0
DWIDTH 12 0
BBX 10 17 2 0
BITMAP
0180
0380
06C0
0440
0000
07C0
1FC0
3800
3000
3800
1E00
0F00
0380
0180
0180
F700
FE00
ENDCHAR
STARTCHAR 015E
ENCODING 350
SWIDTH 480 0
DWIDTH 12 0
BBX 11 20 2 -4
BITMAP
07C0
0FE0
1820
3000
3000
3000
3800
1E00
0700
0380
01C0
00C0
01C0
0180
FF80
FE00
1000
3800
1800
7000
ENDCHAR
STARTCHAR 015F
ENCODING 351
SWIDTH 480 0
DWIDTH 12 0
BBX 10 16 2 -4
BITMAP
07C0
1FC0
3800
3000
3800
1E00
0F00
0380
0180
0180
F700
FE00
1800
3800
1800
7800
ENDCHAR
STARTCHAR 0160
ENCODING 352
SWIDTH 480 0
DWIDTH 12 0
BBX 12 21 2 0
BITMAP
0200
0370
01C0
0180
0000
07C0
0FE0
1820
3000
3000
3000
3800
1E00
0700
0380
01C0
00C0
01C0
0180
FF80
FE00
ENDCHAR
STARTCHAR 0161
ENCODING 353
SWIDTH 480 0
DWIDTH 12 0
BBX 11 17 2 0
BITMAP
0620
03C0
0180
0100
0000
07C0
1FC0
3800
3000
3800
1E00
0F00
0380
0180
0180
F700
FE00
ENDCHAR
STARTCHAR 0162
ENCODING 354
SWIDTH 480 0
DWIDTH 12 0
BBX 12 19 2 -4
BITMAP
3FF0
0300
0300
0700
0600
0600
0600
0600
0C00
0C00
0C00
0C00
1800
1800
1800
3000
3000
1800
F000
ENDCHAR
STARTCHAR 0163
ENCODING 355
SWIDTH 480 0
DWIDTH 12 0
BBX 9 19 3 -4
BITMAP
0C00
1C00
1800
FF80
FF80
3800
3000
3000
3000
7000
6000
6000
6000
7F00
3F00
1000
3800
1800
7800
ENDCHAR
STARTCHAR 0164
ENCODING 356
SWIDTH 480 0
DWIDTH 12 0
BBX 10 21 4 0
BITMAP
0800
0D80
0F00
0600
0000
0000
FFC0
0C00
0C00
1C00
1800
1800
1800
1800
3000
3000
3000
3000
6000
6000
6000
ENDCHAR
STARTCHAR 0165
ENCODING 357
SWIDTH 480 0
DWIDTH 12 0
BBX 9 17 4 0
BITMAP
0180
0180
1900
1900
1800
FF80
FF80
3000
3000
6000
6000
6000
6000
C000
E000
7E00
7E00
ENDCHAR
STARTCHAR 0166
ENCODING 358
SWIDTH 480 0
DWIDTH 12 0
BBX 10 15 4 0
BITMAP
FFC0
0C00
0C00
1C00
1800
1800
FE00
FE00
3000
3000
3000
3000
6000
6000
6000
ENDCHAR
STARTCHAR 0167
ENCODING 359
SWIDTH 480 0
DWIDTH 12 0
BBX 11 15 2 0
BITMAP
0600
0600
0600
3FE0
3FE0
0C00
0C00
1800
7FC0
FF80
1800
3000
3000
1F80
1F80
ENDCHAR
STARTCHAR 0168
ENCODING 360
SWIDTH 480 0
DWIDTH 12 0
BBX 12 20 2 0
BITMAP
0320
07E0
04C0
0000
0000
3030
3030
3030
3060
6060
6060
6060
60E0
E0C0
C0C0
C0C0
C180
C180
7700
7E00
ENDCHAR
STARTCHAR 0169
ENCODING 361
SWIDTH 480 0
DWIDTH 12 0
BBX 11 16 2 0
BITMAP
0F60
1BC0
0000
0000
3060
3060
60C0
60C0
60C0
60C0
C180
C180
C180
C380
FF80
7D80
ENDCHAR
STARTCHAR 016A
ENCODING 362
SWIDTH 480 0
DWIDTH 12 0
BBX 12 19 2 0
BITMAP
07E0
0000
0000
0000
3030
3030
3030
3060
6060
6060
6060
60E0
E0C0
C0C0
C0C0
C180
C180
7700
7E00
ENDCHAR
STARTCHAR 016B
ENCODING 363
SWIDTH 480 0
DWIDTH 12 0
BBX 11 16 2 0
BITMAP
0FC0
0FC0
0000
0000
3060
3060
60C0
60C0
60C0
60C0
C180
C180
C180
C380
FF80
7D80
ENDCHAR
STARTCHAR 016C
ENCODING 364
SWIDTH 480 0
DWIDTH 12 0
BBX 12 20 2 0
BITMAP
0620
03E0
03C0
0000
0000
3030
3030
3030
3060
6060
6060
6060
60E0
E0C0
C0C0
C0C0
C180
C180
7700
7E00
ENDCHAR
STARTCHAR 016D
ENCODING 365
SWIDTH 480 0
DWIDTH 12 0
BBX 11 17 2 0
BITMAP
0460
04C0
07C0
0000
0000
3060
3060
60C0
60C0
60C0
60C0
C180
C180
C180
C380
FF80
7D80
ENDCHAR
STARTCHAR 016E
ENCODING 366
SWIDTH 480 0
DWIDTH 12 0
BBX 12 21 2 0
BITMAP
0180
0240
0240
03C0
0180
0000
3030
3030
3030
3060
6060
6060
6060
60E0
E0C0
C0C0
C0C0
C180
C180
7700
7E00
ENDCHAR
STARTCHAR 016F
ENCODING 367
SWIDTH 480 0
DWIDTH 12 0
BBX 11 17 2 0
BITMAP
0780
0480
0480
0780
0000
3060
3060
60C0
60C0
60C0
60C0
C180
C180
C180
C380
FF80
7D80
ENDCHAR
STARTCHAR 0170
ENCODING 368
SWIDTH 480 0
DWIDTH 12 0
BBX 12 21 2 0
BITMAP
0100
03B0
0770
06C0
0000
0000
3030
3030
3030
3060
6060
6060
6060
60E0
E0C0
C0C0
C0C0
C180
C180
7700
7E00
ENDCHAR
STARTCHAR 0171
ENCODING 369
SWIDTH 480 0
DWIDTH 12 0
BBX 11 17 2 0
BITMAP
0220
0660
0CC0
0980
0000
3060
3060
60C0
60C0
60C0
60C0
C180
C180
C180
C380
FF80
7D80
ENDCHAR
STARTCHAR 0172
ENCODING 370
SWIDTH 480 0
DWIDTH 12 0
BBX 12 19 2 -4
BITMAP
3030
3030
3030
3060
6060
6060
6060
60E0
E0C0
C0C0
C0C0
C180
C180
7700
7E00
0C00
1800
3800
1C00
ENDCHAR
STARTCHAR 0173
ENCODING 371
SWIDTH 480 0
DWIDTH 12 0
BBX 11 16 2 -4
BITMAP
3060
3060
60C0
60C0
60C0
60C0
C180
C180
C180
C380
FF80
7D80
0300
0600
0600
0700
ENDCHAR
STARTCHAR 0174
ENCODING 372
SWIDTH 480 0
DWIDTH 12 0
BBX 14 21 1 0
BITMAP
0040
00C0
01E0
0330
0000
0000
180C
1818
3018
3018
3018
3330
3330
2730
6D20
6960
7960
5140
71C0
61C0
E180
ENDCHAR
STARTCHAR 0175
ENCODING 373
SWIDTH 480 0
DWIDTH 12 0
BBX 12 17 2 0
BITMAP
0180
0380
06C0
0440
0000
6030
6030
6030
C620
C660
CE60
DEC0
DAC0
F280
E380
E380
C300
ENDCHAR
STARTCHAR 0176
ENCODING 374
SWIDTH 480 0
DWIDTH 12 0
BBX 11 20 4 1
BITMAP
0700
0F00
1980
0000
0000
C060
C0C0
C1C0
C180
6300
6600
6600
3C00
3800
3000
3000
3000
7000
6000
6000
ENDCHAR
STARTCHAR 0177
ENCODING 375
SWIDTH 480 0
DWIDTH 12 0
BBX 13 21 0 -4
BITMAP
0040
00E0
03E0
0220
0000
1C18
1C18
0C18
0C30
0C30
0C70
0C60
0C60
06C0
0780
0780
0700
0600
0E00
FC00
F000
ENDCHAR
STARTCHAR 0178
ENCODING 376
SWIDTH 480 0
DWIDTH 12 0
BBX 11 20 4 0
BITMAP
1880
1980
1980
0000
0000
C060
C0C0
C1C0
C180
6300
6600
6600
3C00
3800
3000
3000
3000
7000
6000
6000
ENDCHAR
STARTCHAR 0179
ENCODING 377
SWIDTH 480 0
DWIDTH 12 0
BBX 13 20 1 1
BITMAP
0030
0060
00C0
0080
0000
0FF8
0038
0070
00E0
00C0
0180
0300
0600
0C00
1C00
3800
3000
6000
FFC0
FFC0
ENDCHAR
STARTCHAR 017A
ENCODING 378
SWIDTH 480 0
DWIDTH 12 0
BBX 11 17 2 0
BITMAP
00C0
01C0
0380
0200
0000
1FE0
3FC0
01C0
0380
0700
0E00
1C00
3800
7000
6000
FF00
FF00
ENDCHAR
STARTCHAR 017B
ENCODING 379
SWIDTH 480 0
DWIDTH 12 0
BBX 13 20 1 0
BITMAP
00C0
00C0
00C0
0000
0000
0FF8
0038
0070
00E0
00C0
0180
0300
0600
0C00
1C00
3800
3000
6000
FFC0
FFC0
ENDCHAR
STARTCHAR 017C
ENCODING 380
SWIDTH 480 0
DWIDTH 12 0
BBX 11 16 2 0
BITMAP
0380
0380
0000
0000
1FE0
3FC0
01C0
0380
0700
0E00
1C00
3800
7000
6000
FF00
FF00
ENDCHAR
STARTCHAR 017D
ENCODING 381
SWIDTH 480 0
DWIDTH 12 0
BBX 13 21 1 0
BITMAP
0100
01B0
01E0
00C0
0000
0000
0FF8
0038
0070
00E0
00C0
0180
0300
0600
0C00
1C00
3800
3000
6000
FFC0
FFC0
ENDCHAR
STARTCHAR 017E
ENCODING 382
SWIDTH 480 0
DWIDTH 12 0
BBX 11 17 2 0
BITMAP
0440
06C0
0380
0000
0000
1FE0
3FC0
01C0
0380
0700
0E00
1C00
3800
7000
6000
FF00
FF00
ENDCHAR
STARTCHAR 017F
ENCODING 383
SWIDTH 480 0
DWIDTH 12 0
BBX 15 21 0 -4
BITMAP
007E
00F4
00C0
0180
0180
0180
0180
0380
0300
0300
0300
0300
0600
0600
0600
0600
0600
0C00
0C00
7C00
F800
ENDCHAR
STARTCHAR 0180
ENCODING 384
SWIDTH 480 0
DWIDTH 12 0
BBX 11 17 2 0
BITMAP
0C00
1800
7F80
1800
1800
3F80
3FC0
30E0
3060
7060
6060
60E0
60C0
E1C0
C380
FF00
FE00
ENDCHAR
STARTCHAR 0181
ENCODING 385
SWIDTH 480 0
DWIDTH 12 0
BBX 10 16 3 0
BITMAP
0E00
7F80
DCC0
98C0
98C0
18C0
1980
3F00
3F80
3180
3180
6180
6180
6380
7F00
FE00
ENDCHAR
STARTCHAR 0182
ENCODING 386
SWIDTH 480 0
DWIDTH 12 0
BBX 12 15 1 0
BITMAP
0FF0
1C00
1800
1800
1800
1E00
3FC0
30E0
3060
3060
6060
6060
60C0
7FC0
FF00
ENDCHAR
STARTCHAR 0183
ENCODING 387
SWIDTH 480 0
DWIDTH 12 0
BBX 11 17 2 0
BITMAP
1FE0
1FE0
1800
1800
3800
3780
3FC0
30C0
70E0
6060
60E0
60C0
60C0
C1C0
C380
FF00
FC00
ENDCHAR
STARTCHAR 0184
ENCODING 388
SWIDTH 480 0
DWIDTH 12 0
BBX 11 17 2 0
BITMAP
1C00
3800
1800
1800
1800
3F80
3FC0
30E0
3060
7060
6060
60E0
60C0
61C0
C380
FF00
FE00
ENDCHAR
STARTCHAR 0185
ENCODING 389
SWIDTH 480 0
DWIDTH 12 0
BBX 11 15 2 1
BITMAP
3800
3800
1800
3800
3000
3F00
3FC0
70C0
60E0
6060
60C0
60C0
C1C0
FF80
FE00
ENDCHAR
STARTCHAR 0186
ENCODING 390
SWIDTH 480 0
DWIDTH 12 0
BBX 12 16 1 0
BITMAP
0780
0FE0
0870
0030
0030
0030
0030
0030
0030
0030
0070
0060
00E0
01C0
7F80
FE00
ENDCHAR
STARTCHAR 0187
ENCODING 391
SWIDTH 480 0
DWIDTH 12 0
BBX 14 17 2 1
BITMAP
001C
01F0
07E0
1C20
3800
3000
6000
6000
6000
C000
C000
C000
C000
E000
6000
7F00
3F00
ENDCHAR
STARTCHAR 0188
ENCODING 392
SWIDTH 480 0
DWIDTH 12 0
BBX 13 14 2 0
BITMAP
0078
00F0
07C0
1F80
3800
6000
6000
C000
C000
C000
C000
E000
7F00
3F00
ENDCHAR
STARTCHAR 0189
ENCODING 393
SWIDTH 480 0
DWIDTH 12 0
BBX 11 16 2 0
BITMAP
0600
1F80
19C0
18E0
3860
3060
3060
FC60
FC60
60E0
60C0
60C0
6180
C380
FF00
FC00
ENDCHAR
STARTCHAR 018A
ENCODING 394
SWIDTH 480 0
DWIDTH 12 0
BBX 11 16 3 0
BITMAP
0C00
7F80
DDC0
98C0
98C0
18C0
18E0
30C0
30C0
30C0
30C0
6180
6380
6300
7E00
FC00
ENDCHAR
STARTCHAR 018B
ENCODING 395
SWIDTH 480 0
DWIDTH 12 0
BBX 12 15 2 0
BITMAP
1FF0
0030
0030
0060
0060
03E0
3FE0
70C0
60C0
C0C0
C0C0
C180
C180
7F80
3F80
ENDCHAR
STARTCHAR 018C
ENCODING 396
SWIDTH 480 0
DWIDTH 12 0
BBX 12 17 2 0
BITMAP
0FF0
0FF0
0030
0030
0060
03E0
1FE0
3860
70C0
60C0
E0C0
C0C0
C180
C180
C180
7780
7F80
ENDCHAR
STARTCHAR 018D
ENCODING 397
SWIDTH 480 0
DWIDTH 12 0
BBX 12 16 1 -4
BITMAP
07C0
0FE0
1860
3070
3030
3070
3060
3060
30C0
1B80
0E00
0700
0300
0300
EF00
FE00
ENDCHAR
STARTCHAR 018E
ENCODING 398
SWIDTH 480 0
DWIDTH 12 0
BBX 13 15 1 0
BITMAP
0FF8
0030
0030
0030
0070
0060
1FE0
1FE0
0060
00C0
00C0
00C0
00C0
FF80
FF80
ENDCHAR
STARTCHAR 018F
ENCODING 399
SWIDTH 480 0
DWIDTH 12 0
BBX 11 16 2 0
BITMAP
0F00
1FC0
10E0
0060
0060
0060
0060
0060
FFE0
C060
C060
C0C0
C0C0
C180
7700
7E00
ENDCHAR
STARTCHAR 0190
ENCODING 400
SWIDTH 480 0
DWIDTH 12 0
BBX 12 16 2 0
BITMAP
03E0
0FF0
1C10
1800
3000
3000
1800
0F80
3F80
7000
E000
C000
C000
C000
7BC0
3F80
ENDCHAR
STARTCHAR 0191
ENCODING 401
SWIDTH 480 0
DWIDTH 12 0
BBX 16 19 -2 -4
BITMAP
01FF
0180
0180
0180
0300
0300
03FC
03FC
0600
0600
0600
0600
0C00
0C00
0C00
0C00
1800
7800
F000
ENDCHAR
STARTCHAR 0192
ENCODING 402
SWIDTH 480 0
DWIDTH 12 0
BBX 15 21 0 -4
BITMAP
007E
00F4
00C0
0180
0180
0FFC
0FF8
0380
0300
0300
0300
0300
0600
0600
0600
0600
0600
0C00
0C00
7C00
F800
ENDCHAR
STARTCHAR 0193
ENCODING 403
SWIDTH 480 0
DWIDTH 12 0
BBX 14 18 2 0
BITMAP
0008
003C
03F0
0FE0
1C00
3000
7000
6000
6000
C000
C0C0
C0C0
C0C0
C0C0
C180
E180
7B80
3F80
ENDCHAR
STARTCHAR 0194
ENCODING 404
SWIDTH 480 0
DWIDTH 12 0
BBX 12 19 3 -4
BITMAP
6030
6060
60E0
60C0
6180
3180
3300
3600
3600
1C00
1800
3800
3800
6C00
CC00
CC00
CC00
FC00
F800
ENDCHAR
STARTCHAR 0195
ENCODING 405
SWIDTH 480 0
DWIDTH 12 0
BBX 13 17 1 0
BITMAP
0C00
1800
1800
1800
1800
3E18
3F18
3330
3330
6330
6630
6660
6660
C660
C660
C7C0
C780
ENDCHAR
STARTCHAR 0196
ENCODING 406
SWIDTH 480 0
DWIDTH 12 0
BBX 8 15 5 0
BITMAP
FF
38
30
30
30
70
60
60
60
60
C0
C0
C0
F4
7C
ENDCHAR
STARTCHAR 0197
ENCODING 407
SWIDTH 480 0
DWIDTH 12 0
BBX 11 15 2 0
BITMAP
1FE0
0300
0300
0300
0600
0600
1F80
3F80
0C00
0C00
0C00
0C00
1800
FF00
FF00
ENDCHAR
STARTCHAR 0198
ENCODING 408
SWIDTH 480 0
DWIDTH 12 0
BBX 14 16 1 0
BITMAP
000C
0C3C
1864
18C0
1980
1B00
3700
3E00
3E00
3600
6300
6380
6180
61C0
E0C0
C0C0
ENDCHAR
STARTCHAR 0199
ENCODING 409
SWIDTH 480 0
DWIDTH 12 0
BBX 12 17 2 0
BITMAP
0F00
1C00
1800
1800
1800
3070
30E0
3180
3700
6E00
7C00
7C00
6E00
C700
C300
C380
C180
ENDCHAR
STARTCHAR 019A
ENCODING 410
SWIDTH 480 0
DWIDTH 12 0
BBX 9 17 3 0
BITMAP
3E00
7E00
0600
0C00
0C00
0C00
0C00
FF80
FF80
1800
1800
3000
3000
3000
3000
3F00
1F00
ENDCHAR
STARTCHAR 019B
ENCODING 411
SWIDTH 480 0
DWIDTH 12 0
BBX 11 17 1 0
BITMAP
0F00
0720
03E0
0F80
0980
0180
0380
0780
06C0
0CC0
18C0
18C0
30C0
70C0
60C0
E0C0
C0C0
ENDCHAR
STARTCHAR 019C
ENCODING 412
SWIDTH 480 0
DWIDTH 12 0
BBX 13 15 1 0
BITMAP
1818
1818
1818
3018
3030
3330
3330
6230
6660
6660
6660
4660
CC40
EEC0
7FC0
ENDCHAR
STARTCHAR 019D
ENCODING 413
SWIDTH 480 0
DWIDTH 12 0
BBX 16 19 -2 -4
BITMAP
0383
0383
03C3
03C3
02C6
0666
0666
0666
042C
0C3C
0C3C
0C3C
0C38
1818
1818
1800
1800
F000
E000
ENDCHAR
STARTCHAR 019E
ENCODING 414
SWIDTH 480 0
DWIDTH 12 0
BBX 10 16 2 -4
BITMAP
0F00
3FC0
30C0
30C0
60C0
60C0
60C0
60C0
C180
C180
C180
C180
0300
0300
0300
0300
ENDCHAR
STARTCHAR 019F
ENCODING 415
SWIDTH 480 0
DWIDTH 12 0
BBX 11 16 2 0
BITMAP
0380
0FC0
1860
3060
3060
6060
6060
FFE0
FFE0
C060
C0C0
C0C0
C1C0
C180
7F00
7E00
ENDCHAR
STARTCHAR 01A0
ENCODING 416
SWIDTH 480 0
DWIDTH 12 0
BBX 13 18 2 0
BITMAP
0018
0018
0798
0FF0
18E0
3060
7060
6060
6060
C060
C060
C0C0
C0C0
C0C0
C180
C380
7F00
7E00
ENDCHAR
STARTCHAR 01A1
ENCODING 417
SWIDTH 480 0
DWIDTH 12 0
BBX 13 14 2 0
BITMAP
0018
0030
0F30
1FE0
30C0
60C0
60C0
C0C0
C0C0
C1C0
C180
C380
FF00
7E00
ENDCHAR
STARTCHAR 01A2
ENCODING 418
SWIDTH 480 0
DWIDTH 12 0
BBX 13 16 1 0
BITMAP
0770
0FF8
1998
3198
3198
3190
61B0
61B0
6330
6330
C360
C360
C660
C660
7CC0
78C0
ENDCHAR
STARTCHAR 01A3
ENCODING 419
SWIDTH 480 0
DWIDTH 12 0
BBX 12 16 1 -4
BITMAP
0CE0
3FF0
3330
6330
6330
6360
4660
C660
C660
C6C0
7CC0
78C0
00C0
00C0
0180
0180
ENDCHAR
STARTCHAR 01A4
ENCODING 420
SWIDTH 480 0
DWIDTH 12 0
BBX 11 16 3 0
BITMAP
0E00
7FC0
DCC0
9860
9860
1860
18C0
30C0
3F80
3F00
3000
6000
6000
6000
6000
C000
ENDCHAR
STARTCHAR 01A5
ENCODING 421
SWIDTH 480 0
DWIDTH 12 0
BBX 12 21 1 -4
BITMAP
0780
0E80
0C00
0C00
1C00
1F80
1FE0
1860
3870
3030
3070
3060
3060
60E0
61C0
7F80
7E00
C000
C000
C000
C000
ENDCHAR
STARTCHAR 01A6
ENCODING 422
SWIDTH 480 0
DWIDTH 12 0
BBX 12 19 1 -2
BITMAP
0C00
0F80
0FE0
1870
1830
1830
1830
3030
3060
3FC0
3F00
6380
6180
6180
60C0
E0C0
C0C0
0060
0060
ENDCHAR
STARTCHAR 01A7
ENCODING 423
SWIDTH 480 0
DWIDTH 12 0
BBX 11 16 2 0
BITMAP
0780
1FE0
1060
0060
0060
0060
01C0
0780
3E00
7800
E000
C000
C000
C000
FF80
7F80
ENDCHAR
STARTCHAR 01A8
ENCODING 424
SWIDTH 480 0
DWIDTH 12 0
BBX 10 12 2 0
BITMAP
1F00
3FC0
00C0
00C0
01C0
0F80
3E00
7000
C000
C000
F300
7F00
ENDCHAR
STARTCHAR 01A9
ENCODING 425
SWIDTH 480 0
DWIDTH 12 0
BBX 13 15 1 0
BITMAP
1FF8
1C00
0C00
0E00
0600
0700
0300
0300
0600
0C00
1800
3000
6000
FFC0
FFC0
ENDCHAR
STARTCHAR 01AA
ENCODING 426
SWIDTH 480 0
DWIDTH 12 0
BBX 7 21 4 -4
BITMAP
7C
66
C6
C6
FE
7C
0C
0C
0C
1C
18
18
18
38
30
30
30
30
30
3C
1C
ENDCHAR
STARTCHAR 01AB
ENCODING 427
SWIDTH 480 0
DWIDTH 12 0
BBX 10 19 3 -4
BITMAP
0C00
1C00
1800
FFC0
FFC0
3800
3000
3000
3000
3000
6000
6000
6000
7F00
3F00
0300
0300
1E00
1C00
ENDCHAR
STARTCHAR 01AC
ENCODING 428
SWIDTH 480 0
DWIDTH 12 0
BBX 12 15 3 0
BITMAP
7FF0
6600
C600
C600
0600
0E00
0C00
0C00
0C00
1C00
1800
1800
1800
1800
3000
ENDCHAR
STARTCHAR 01AD
ENCODING 429
SWIDTH 480 0
DWIDTH 12 0
BBX 11 17 3 0
BITMAP
03E0
0F60
0C00
1C00
1800
7FC0
FF80
3800
3000
3000
3000
3000
6000
6000
6000
7F00
3F00
ENDCHAR
STARTCHAR 01AE
ENCODING 430
SWIDTH 480 0
DWIDTH 12 0
BBX 10 19 4 -4
BITMAP
FFC0
0C00
0C00
1C00
1800
1800
1800
1800
3000
3000
3000
3000
6000
6000
6000
6000
E000
7800
7800
ENDCHAR
STARTCHAR 01AF
ENCODING 431
SWIDTH 480 0
DWIDTH 12 0
BBX 15 18 2 0
BITMAP
0006
000C
001C
3078
3060
7060
60C0
60C0
60C0
E0C0
C1C0
C180
C180
C180
C300
C300
EE00
7C00
ENDCHAR
STARTCHAR 01B0
ENCODING 432
SWIDTH 480 0
DWIDTH 12 0
BBX 13 14 2 0
BITMAP
0018
0018
30F0
60E0
60C0
6180
6180
C180
C180
C380
C300
C300
FF00
7F00
ENDCHAR
STARTCHAR 01B1
ENCODING 433
SWIDTH 480 0
DWIDTH 12 0
BBX 13 15 2 0
BITMAP
7CF8
0CC0
1860
3060
6060
6060
E060
C060
C060
C0E0
C0C0
C0C0
C180
FF00
7E00
ENDCHAR
STARTCHAR 01B2
ENCODING 434
SWIDTH 480 0
DWIDTH 12 0
BBX 11 16 2 0
BITMAP
0100
33C0
3060
3060
6060
6060
6060
6060
E060
C060
C0C0
C0C0
C180
C380
EF00
7C00
ENDCHAR
STARTCHAR 01B3
ENCODING 435
SWIDTH 480 0
DWIDTH 12 0
BBX 13 16 3 0
BITMAP
0030
C078
C0C0
6180
6380
6300
6600
3E00
3C00
3800
1800
3000
3000
3000
3000
6000
ENDCHAR
STARTCHAR 01B4
ENCODING 436
SWIDTH 480 0
DWIDTH 12 0
BBX 15 16 -1 -4
BITMAP
0C0E
0C1E
0C18
0C30
0C30
0660
0660
06C0
06C0
0780
0780
0300
0700
0600
7C00
F800
ENDCHAR
STARTCHAR 01B5
ENCODING 437
SWIDTH 480 0
DWIDTH 12 0
BBX 13 15 1 0
BITMAP
0FF8
0038
0070
00E0
00C0
0180
1FE0
1FE0
0C00
1C00
3800
3000
6000
FFC0
FFC0
ENDCHAR
STARTCHAR 01B6
ENCODING 438
SWIDTH 480 0
DWIDTH 12 0
BBX 11 12 2 0
BITMAP
1FE0
3FC0
01C0
0380
0700
3F80
7F80
3800
7000
6000
FF00
FF00
ENDCHAR
STARTCHAR 01B7
ENCODING 439
SWIDTH 480 0
DWIDTH 12 0
BBX 13 15 1 0
BITMAP
0FF8
0030
0060
00C0
0180
0300
0780
03C0
0060
0060
0060
0060
00C0
F7C0
FF00
ENDCHAR
STARTCHAR 01B8
ENCODING 440
SWIDTH 480 0
DWIDTH 12 0
BBX 12 15 2 0
BITMAP
1FF0
1800
0C00
0400
0600
0300
0F00
3F00
7000
E000
C000
C000
E000
7B80
3F80
ENDCHAR
STARTCHAR 01B9
ENCODING 441
SWIDTH 480 0
DWIDTH 12 0
BBX 11 16 2 -4
BITMAP
1FE0
1FE0
1800
0C00
0C00
0600
0600
1F00
7E00
6000
C000
C000
C000
C000
FF00
3F00
ENDCHAR
STARTCHAR 01BA
ENCODING 442
SWIDTH 480 0
DWIDTH 12 0
BBX 12 16 1 -4
BITMAP
1FF0
1FE0
0060
01C0
0300
0600
0F80
01C0
00C0
00C0
01C0
0F80
7E00
E000
C000
8000
ENDCHAR
STARTCHAR 01BB
ENCODING 443
SWIDTH 480 0
DWIDTH 12 0
BBX 11 16 2 0
BITMAP
0780
1FC0
10E0
0060
0060
0060
00C0
0180
3FE0
3FC0
1C00
3000
6000
E000
FF80
FF80
ENDCHAR
STARTCHAR 01BC
ENCODING 444
SWIDTH 480 0
DWIDTH 12 0
BBX 12 15 2 0
BITMAP
3FF0
0C00
0C00
1800
1800
1800
3F00
0380
01C0
00C0
00C0
00C0
0180
EF80
FE00
ENDCHAR
STARTCHAR 01BD
ENCODING 445
SWIDTH 480 0
DWIDTH 12 0
BBX 11 12 2 0
BITMAP
3FE0
3FC0
1800
1800
1800
3F00
0780
0180
0180
0180
7F80
FE00
ENDCHAR
STARTCHAR 01BE
ENCODING 446
SWIDTH 480 0
DWIDTH 12 0
BBX 11 15 2 0
BITMAP
0600
0E00
0C00
3FE0
7FC0
1C00
1800
1C00
0F00
0780
01C0
00C0
01C0
7780
FF00
ENDCHAR
STARTCHAR 01BF
ENCODING 447
SWIDTH 480 0
DWIDTH 12 0
BBX 12 16 1 -4
BITMAP
0780
1FE0
1860
3070
3070
3060
3060
7060
60C0
6180
6700
FE00
F000
C000
C000
C000
ENDCHAR
STARTCHAR 01C0
ENCODING 448
SWIDTH 480 0
DWIDTH 12 0
BBX 7 21 4 -4
BITMAP
06
06
0C
0C
0C
0C
18
18
18
18
30
30
30
30
60
60
60
60
C0
C0
C0
ENDCHAR
STARTCHAR 01C1
ENCODING 449
SWIDTH 480 0
DWIDTH 12 0
BBX 11 21 2 -4
BITMAP
0460
0C60
0C40
0CC0
0CC0
18C0
18C0
1980
1980
3180
3180
3300
3300
6300
6300
6600
6600
C600
C600
CC00
CC00
ENDCHAR
STARTCHAR 01C2
ENCODING 450
SWIDTH 480 0
DWIDTH 12 0
BBX 12 21 1 -4
BITMAP
00C0
0080
0180
0180
0180
0100
0300
3FF0
7FF0
0300
0600
0600
FFE0
0600
0C00
0C00
0C00
0C00
1800
1800
1800
ENDCHAR
STARTCHAR 01C3
ENCODING 451
SWIDTH 480 0
DWIDTH 12 0
BBX 6 15 4 0
BITMAP
0C
0C
1C
18
18
18
18
30
30
30
00
00
60
F0
E0
ENDCHAR
STARTCHAR 01C4
ENCODING 452
SWIDTH 480 0
DWIDTH 12 0
BBX 16 20 1 0
BITMAP
0033
001E
000C
0000
0C00
1E3C
1B0C
3308
3318
3310
3330
2320
6260
6640
66C0
4480
CD80
D980
FBE0
E3E0
ENDCHAR
STARTCHAR 01C5
ENCODING 453
SWIDTH 480 0
DWIDTH 12 0
BBX 15 16 1 0
BITMAP
0C26
1E1C
1310
3300
337C
337C
2318
6318
6630
6620
6660
CCC0
CCC0
D980
F9F0
E1E0
ENDCHAR
STARTCHAR 01C6
ENCODING 454
SWIDTH 480 0
DWIDTH 12 0
BBX 15 17 1 0
BITMAP
0180
01B2
019C
0308
0300
1F7C
3F78
6218
6610
C630
C620
C460
CCC0
8CC0
8D80
C9E0
F9E0
ENDCHAR
STARTCHAR 01C7
ENCODING 455
SWIDTH 480 0
DWIDTH 12 0
BBX 15 15 0 0
BITMAP
0C06
0C0C
180C
180C
180C
181C
3018
3018
3018
3038
6030
6030
6070
7DE0
FDC0
ENDCHAR
STARTCHAR 01C8
ENCODING 456
SWIDTH 480 0
DWIDTH 12 0
BBX 14 20 1 -3
BITMAP
001C
1818
1800
1800
3030
3030
3030
3030
6060
6060
6060
6060
C0C0
C0C0
FCC0
FCC0
0180
0180
0F80
1F00
ENDCHAR
STARTCHAR 01C9
ENCODING 457
SWIDTH 480 0
DWIDTH 12 0
BBX 11 21 2 -4
BITMAP
1840
18E0
18E0
3800
3000
30C0
3180
7180
6180
6180
6300
E300
C300
C300
C600
E600
6600
0600
0C00
7C00
7800
ENDCHAR
STARTCHAR 01CA
ENCODING 458
SWIDTH 480 0
DWIDTH 12 0
BBX 15 15 0 0
BITMAP
0CC6
0CC4
1C8C
1D8C
1D8C
1D8C
3D18
3D18
2F18
2F18
6E30
6E30
4630
46E0
C5C0
ENDCHAR
STARTCHAR 01CB
ENCODING 459
SWIDTH 480 0
DWIDTH 12 0
BBX 14 20 1 -3
BITMAP
001C
199C
1980
1980
3918
3B18
2B30
2B30
6A30
6A30
4E20
4E60
CC60
CC60
8C40
8CC0
00C0
00C0
0F80
0F00
ENDCHAR
STARTCHAR 01CC
ENCODING 460
SWIDTH 480 0
DWIDTH 12 0
BBX 14 20 1 -3
BITMAP
001C
001C
0000
0000
1E18
3F18
3330
3330
6330
6330
6620
6660
C660
C660
CC40
CCC0
00C0
00C0
0F80
0F00
ENDCHAR
STARTCHAR 01CD
ENCODING 461
SWIDTH 480 0
DWIDTH 12 0
BBX 13 20 0 1
BITMAP
0198
00F0
0060
0000
0000
00E0
01E0
0360
0360
0660
0660
0C60
0860
1860
3FF0
3FF0
6030
6030
C030
C030
ENDCHAR
STARTCHAR 01CE
ENCODING 462
SWIDTH 480 0
DWIDTH 12 0
BBX 11 17 2 0
BITMAP
0660
03C0
0380
0100
0000
07C0
1FE0
38C0
70C0
60C0
C0C0
C180
C180
C180
C180
FF80
7D80
ENDCHAR
STARTCHAR 01CF
ENCODING 463
SWIDTH 480 0
DWIDTH 12 0
BBX 11 21 2 0
BITMAP
0020
0660
03C0
0180
0000
0000
1FE0
0300
0300
0300
0600
0600
0600
0600
0C00
0C00
0C00
0C00
1800
FF00
FF00
ENDCHAR
STARTCHAR 01D0
ENCODING 464
SWIDTH 480 0
DWIDTH 12 0
BBX 8 17 3 0
BITMAP
11
1B
0E
04
00
7C
FC
0C
18
18
18
18
30
30
30
1F
1F
ENDCHAR
STARTCHAR 01D1
ENCODING 465
SWIDTH 480 0
DWIDTH 12 0
BBX 12 21 2 0
BITMAP
0200
0360
03C0
0180
0000
0380
0FE0
1C60
3060
3070
6070
6060
6060
C060
C060
C0E0
C0C0
C1C0
C180
7700
3E00
ENDCHAR
STARTCHAR 01D2
ENCODING 466
SWIDTH 480 0
DWIDTH 12 0
BBX 11 17 2 0
BITMAP
0440
06C0
0380
0000
0000
0F80
1FC0
38C0
70E0
6060
C0E0
C0C0
C0C0
C1C0
C180
7F00
7E00
ENDCHAR
STARTCHAR 01D3
ENCODING 467
SWIDTH 480 0
DWIDTH 12 0
BBX 12 21 2 0
BITMAP
0220
0260
03C0
0180
0000
0000
3030
3030
3030
3060
6060
6060
6060
60E0
E0C0
C0C0
C0C0
C180
C180
7700
7E00
ENDCHAR
STARTCHAR 01D4
ENCODING 468
SWIDTH 480 0
DWIDTH 12 0
BBX 11 17 2 0
BITMAP
0440
07C0
0300
0200
0000
3060
3060
60C0
60C0
60C0
60C0
C180
C180
C180
C380
FF80
7D80
ENDCHAR
STARTCHAR 01D5
ENCODING 469
SWIDTH 480 0
DWIDTH 12 0
BBX 12 21 2 0
BITMAP
03E0
07E0
0400
0E60
0460
0000
3030
3030
3030
3060
6060
6060
6060
60E0
E0C0
C0C0
C0C0
C180
C180
7700
7E00
ENDCHAR
STARTCHAR 01D6
ENCODING 470
SWIDTH 480 0
DWIDTH 12 0
BBX 11 18 2 0
BITMAP
07C0
07C0
0840
1CC0
08C0
0000
3060
3060
60C0
60C0
60C0
60C0
C180
C180
C180
C380
FF80
7D80
ENDCHAR
STARTCHAR 01D7
ENCODING 471
SWIDTH 480 0
DWIDTH 12 0
BBX 12 21 2 0
BITMAP
0080
00C0
0DB0
0D30
0800
0000
3030
3030
3030
3060
6060
6060
6060
60E0
E0C0
C0C0
C0C0
C180
C180
7700
7E00
ENDCHAR
STARTCHAR 01D8
ENCODING 472
SWIDTH 480 0
DWIDTH 12 0
BBX 11 19 2 0
BITMAP
0080
0180
0100
0840
1CE0
08C0
0000
3060
3060
60C0
60C0
60C0
60C0
C180
C180
C180
C380
FF80
7D80
ENDCHAR
STARTCHAR 01D9
ENCODING 473
SWIDTH 480 0
DWIDTH 12 0
BBX 12 21 2 0
BITMAP
0040
03C0
0D30
0C30
0800
0000
3030
3030
3030
3060
6060
6060
6060
60E0
E0C0
C0C0
C0C0
C180
C180
7700
7E00
ENDCHAR
STARTCHAR 01DA
ENCODING 474
SWIDTH 480 0
DWIDTH 12 0
BBX 11 18 2 1
BITMAP
06C0
0380
0840
1CE0
08C0
0000
3060
3060
60C0
60C0
60C0
60C0
C180
C180
C180
C380
FF80
7D80
ENDCHAR
STARTCHAR 01DB
ENCODING 475
SWIDTH 480 0
DWIDTH 12 0
BBX 12 21 2 0
BITMAP
0100
0300
0DB0
0C30
0800
0000
3030
3030
3030
3060
6060
6060
6060
60E0
E0C0
C0C0
C0C0
C180
C180
7700
7E00
ENDCHAR
STARTCHAR 01DC
ENCODING 476
SWIDTH 480 0
DWIDTH 12 0
BBX 11 19 2 0
BITMAP
0600
0600
0300
0940
1CE0
08C0
0000
3060
3060
60C0
60C0
60C0
60C0
C180
C180
C180
C380
FF80
7D80
ENDCHAR
STARTCHAR 01DD
ENCODING 477
SWIDTH 480 0
DWIDTH 12 0
BBX 11 12 2 0
BITMAP
1F00
3FC0
00C0
0060
0060
1FE0
7FE0
E0C0
C0C0
C180
EF00
7E00
ENDCHAR
STARTCHAR 01DE
ENCODING 478
SWIDTH 480 0
DWIDTH 12 0
BBX 13 21 0 0
BITMAP
00F8
01F8
0110
0398
0318
0000
00E0
01E0
0160
0360
0660
0660
0C60
0860
1860
1FE0
3FF0
6030
6030
C030
C030
ENDCHAR
STARTCHAR 01DF
ENCODING 479
SWIDTH 480 0
DWIDTH 12 0
BBX 11 18 2 0
BITMAP
07E0
07E0
0000
0C60
0C60
0000
07C0
1FE0
38C0
70C0
60C0
C0C0
C180
C180
C180
C180
FF80
7D80
ENDCHAR
STARTCHAR 01E0
ENCODING 480
SWIDTH 480 0
DWIDTH 12 0
BBX 13 21 0 0
BITMAP
00F8
01F8
0000
0060
0060
0000
00E0
01E0
0160
0360
0660
0660
0C60
0860
1860
1FE0
3FF0
6030
6030
C030
C030
ENDCHAR
STARTCHAR 01E1
ENCODING 481
SWIDTH 480 0
DWIDTH 12 0
BBX 11 18 2 0
BITMAP
07E0
07E0
0000
0380
0100
0000
07C0
1FE0
38C0
70C0
60C0
C0C0
C180
C180
C180
C180
FF80
7D80
ENDCHAR
STARTCHAR 01E2
ENCODING 482
SWIDTH 480 0
DWIDTH 12 0
BBX 15 19 0 0
BITMAP
007E
0000
0000
0000
00FE
01E0
01E0
0360
0360
06C0
04F8
0CF8
18C0
1F80
3F80
3180
6180
63F0
C3F0
ENDCHAR
STARTCHAR 01E3
ENCODING 483
SWIDTH 480 0
DWIDTH 12 0
BBX 13 16 1 0
BITMAP
07F0
07E0
0000
0000
1C70
3EF0
0798
0318
0330
1E70
3FE0
6600
C600
CE00
FBE0
73E0
ENDCHAR
STARTCHAR 01E4
ENCODING 484
SWIDTH 480 0
DWIDTH 12 0
BBX 11 16 2 0
BITMAP
03C0
0FE0
1C20
3800
3000
6000
6000
C000
C0C0
C0C0
C3E0
C7C0
C180
E180
7F80
3F00
ENDCHAR
STARTCHAR 01E5
ENCODING 485
SWIDTH 480 0
DWIDTH 12 0
BBX 12 16 1 -4
BITMAP
03E0
0FF0
1C60
3860
3060
33F0
63F0
60C0
60C0
71C0
3F80
0980
0180
0300
FF00
FC00
ENDCHAR
STARTCHAR 01E6
ENCODING 486
SWIDTH 480 0
DWIDTH 12 0
BBX 12 21 2 0
BITMAP
0010
0330
01E0
00C0
0000
03E0
0FF0
1C20
3800
3000
6000
6000
E000
C0C0
C0C0
C0C0
C0C0
C1C0
E180
7B80
3F80
ENDCHAR
STARTCHAR 01E7
ENCODING 487
SWIDTH 480 0
DWIDTH 12 0
BBX 12 21 1 -4
BITMAP
0110
01B0
00E0
0040
0000
01F0
0FF0
1C30
3870
3060
3060
6060
6060
60C0
71C0
3FC0
04C0
0180
0380
FF00
FE00
ENDCHAR
STARTCHAR 01E8
ENCODING 488
SWIDTH 480 0
DWIDTH 12 0
BBX 13 20 1 1
BITMAP
0330
01E0
00C0
0000
0000
0C38
1870
18E0
19C0
1B80
3700
3E00
3E00
3600
6300
6380
6180
61C0
E0C0
C0C0
ENDCHAR
STARTCHAR 01E9
ENCODING 489
SWIDTH 480 0
DWIDTH 12 0
BBX 12 21 2 0
BITMAP
0880
0D80
0600
0000
0400
1800
1800
1800
1800
3070
30E0
3180
3700
6E00
7C00
7C00
6E00
C700
C300
C380
C180
ENDCHAR
STARTCHAR 01EA
ENCODING 490
SWIDTH 480 0
DWIDTH 12 0
BBX 11 20 2 -4
BITMAP
0380
0FC0
1860
3060
3060
6060
6060
C060
C060
C060
C0C0
C0C0
C1C0
C180
7F00
7E00
1800
3000
3000
3800
ENDCHAR
STARTCHAR 01EB
ENCODING 491
SWIDTH 480 0
DWIDTH 12 0
BBX 11 16 2 -4
BITMAP
0F80
1FC0
38C0
70E0
6060
C0E0
C0C0
C0C0
C1C0
C180
7F00
7E00
1800
3000
3000
3800
ENDCHAR
STARTCHAR 01EC
ENCODING 492
SWIDTH 480 0
DWIDTH 12 0
BBX 11 23 2 -4
BITMAP
07E0
0000
0000
0380
0FC0
1860
3060
3060
6060
6060
C060
C060
C060
C0C0
C0C0
C1C0
C180
7F00
7E00
1800
3000
3000
3800
ENDCHAR
STARTCHAR 01ED
ENCODING 493
SWIDTH 480 0
DWIDTH 12 0
BBX 11 20 2 -4
BITMAP
07E0
0FE0
0000
0000
0F80
1FC0
38C0
70E0
6060
C0E0
C0C0
C0C0
C1C0
C180
7F00
7E00
1800
3000
3000
3800
ENDCHAR
STARTCHAR 01EE
ENCODING 494
SWIDTH 480 0
DWIDTH 12 0
BBX 13 21 1 0
BITMAP
0110
0130
01E0
00C0
0000
0000
0FF8
0030
0060
00C0
0180
0300
0780
03C0
0060
0060
0060
0060
00C0
F7C0
FF00
ENDCHAR
STARTCHAR 01EF
ENCODING 495
SWIDTH 480 0
DWIDTH 12 0
BBX 12 21 1 -4
BITMAP
0220
0360
01C0
0000
0000
1FF0
1FE0
0060
00C0
0180
0300
0E00
0F00
0780
01C0
00C0
00C0
0180
0380
FF00
FE00
ENDCHAR
STARTCHAR 01F0
ENCODING 496
SWIDTH 480 0
DWIDTH 12 0
BBX 12 21 1 -4
BITMAP
0110
01F0
00E0
0000
0000
0FE0
0FE0
00C0
00C0
00C0
00C0
0180
0180
0180
0180
0380
0300
0300
0700
FE00
FC00
ENDCHAR
STARTCHAR 01F1
ENCODING 497
SWIDTH 480 0
DWIDTH 12 0
BBX 14 16 1 0
BITMAP
0C00
1E3C
1B0C
3308
3318
3310
3330
2320
6260
6640
66C0
4480
CD80
D980
FBE0
E3E0
ENDCHAR
STARTCHAR 01F2
ENCODING 498
SWIDTH 480 0
DWIDTH 12 0
BBX 14 16 1 0
BITMAP
0C00
1E00
1300
3300
337C
337C
2318
6318
6630
6620
6660
CCC0
CCC0
D980
F9F0
E1E0
ENDCHAR
STARTCHAR 01F3
ENCODING 499
SWIDTH 480 0
DWIDTH 12 0
BBX 14 17 1 0
BITMAP
0180
0180
0180
0300
0300
1F7C
3F78
6218
6610
C630
C620
C460
CCC0
8CC0
8D80
C9E0
F9E0
ENDCHAR
STARTCHAR 01F4
ENCODING 500
SWIDTH 480 0
DWIDTH 12 0
BBX 12 21 2 0
BITMAP
0040
00C0
01C0
0380
0000
03E0
0FF0
1C20
3800
3000
6000
6000
E000
C0C0
C0C0
C0C0
C0C0
C1C0
E180
7B80
3F80
ENDCHAR
STARTCHAR 01F5
ENCODING 501
SWIDTH 480 0
DWIDTH 12 0
BBX 12 21 1 -4
BITMAP
0020
0070
00C0
0180
0000
01F0
0FF0
1C30
3870
3060
3060
6060
6060
60C0
71C0
3FC0
04C0
0180
0380
FF00
FE00
ENDCHAR
STARTCHAR 01F6
ENCODING 502
SWIDTH 480 0
DWIDTH 12 0
BBX 13 15 1 0
BITMAP
1980
1980
3180
3198
3318
3330
7F30
7F30
6630
6630
4660
C660
C660
C6C0
C780
ENDCHAR
STARTCHAR 01F7
ENCODING 503
SWIDTH 480 0
DWIDTH 12 0
BBX 13 20 1 -4
BITMAP
01C0
0FF0
0C70
1C38
1818
1818
1830
3830
3030
3060
30E0
31C0
6380
6F00
7C00
7000
C000
C000
C000
C000
ENDCHAR
STARTCHAR 01F8
ENCODING 504
SWIDTH 480 0
DWIDTH 12 0
BBX 13 21 1 0
BITMAP
0100
0300
0180
00C0
0040
0000
1C18
1C18
1E18
1E18
1630
3230
3330
3330
2360
6160
61E0
61E0
41C0
C1C0
C0C0
ENDCHAR
STARTCHAR 01F9
ENCODING 505
SWIDTH 480 0
DWIDTH 12 0
BBX 10 17 2 0
BITMAP
0600
0600
0300
0180
0000
0F00
3FC0
30C0
30C0
60C0
60C0
60C0
60C0
C180
C180
C180
C180
ENDCHAR
STARTCHAR 01FA
ENCODING 506
SWIDTH 480 0
DWIDTH 12 0
BBX 12 21 0 0
BITMAP
0010
0070
00C0
0040
00A0
0110
00A0
01E0
01E0
0360
0260
0660
0C60
0C20
1820
1FF0
3FF0
3030
6030
6030
C030
ENDCHAR
STARTCHAR 01FB
ENCODING 507
SWIDTH 480 0
DWIDTH 12 0
BBX 11 20 2 0
BITMAP
0040
01C0
0000
0180
0240
0240
0380
0000
07C0
1FE0
38C0
70C0
60C0
C0C0
C180
C180
C180
C180
FF80
7D80
ENDCHAR
STARTCHAR 01FC
ENCODING 508
SWIDTH 480 0
DWIDTH 12 0
BBX 15 21 0 0
BITMAP
0004
000C
001C
0030
0000
0000
00FE
01E0
01E0
0360
0360
06C0
04F8
0CF8
18C0
1F80
3F80
3180
6180
63F0
C3F0
ENDCHAR
STARTCHAR 01FD
ENCODING 509
SWIDTH 480 0
DWIDTH 12 0
BBX 13 17 1 0
BITMAP
0060
00E0
01C0
0100
0000
1C70
3EF0
0798
0318
0330
1E70
3FE0
6600
C600
CE00
FBE0
73E0
ENDCHAR
STARTCHAR 01FE
ENCODING 510
SWIDTH 480 0
DWIDTH 12 0
BBX 13 22 1 -1
BITMAP
0040
00C0
01C0
0300
0000
03D8
07F0
0C70
1870
38F0
30F0
31B0
6330
6630
6630
6C60
7860
70C0
71C0
7F80
FF00
4000
ENDCHAR
STARTCHAR 01FF
ENCODING 511
SWIDTH 480 0
DWIDTH 12 0
BBX 13 18 1 -1
BITMAP
0040
00C0
0180
0300
0000
07D8
0FF0
1C60
38F0
31B0
6330
6660
6C60
78E0
70C0
7F80
FF00
8000
ENDCHAR
STARTCHAR 0200
ENCODING 512
SWIDTH 480 0
DWIDTH 12 0
BBX 13 21 0 0
BITMAP
0020
0360
0330
0198
0000
0000
00E0
01E0
0360
0360
0660
0660
0C60
0860
1860
3FF0
3FF0
6030
6030
C030
C030
ENDCHAR
STARTCHAR 0201
ENCODING 513
SWIDTH 480 0
DWIDTH 12 0
BBX 11 17 2 0
BITMAP
0980
1D80
0CC0
0640
0000
07C0
1FE0
38C0
70C0
60C0
C0C0
C180
C180
C180
C180
FF80
7D80
ENDCHAR
STARTCHAR 0202
ENCODING 514
SWIDTH 480 0
DWIDTH 12 0
BBX 13 20 0 0
BITMAP
00F0
0198
0118
0000
0000
00E0
01E0
0360
0360
0660
0660
0C60
0860
1860
3FF0
3FF0
6030
6030
C030
C030
ENDCHAR
STARTCHAR 0203
ENCODING 515
SWIDTH 480 0
DWIDTH 12 0
BBX 11 17 2 0
BITMAP
0380
07C0
0440
0000
0000
07C0
1FE0
38C0
70C0
60C0
C0C0
C180
C180
C180
C180
FF80
7D80
ENDCHAR
STARTCHAR 0204
ENCODING 516
SWIDTH 480 0
DWIDTH 12 0
BBX 12 21 2 0
BITMAP
0400
0CC0
0640
0260
0220
0000
1FF0
1800
1800
1800
3000
3000
3FC0
3F80
6000
6000
6000
6000
C000
FF80
FF80
ENDCHAR
STARTCHAR 0205
ENCODING 517
SWIDTH 480 0
DWIDTH 12 0
BBX 11 17 2 0
BITMAP
0980
1D80
0CC0
0640
0000
0780
1FC0
30E0
60E0
E0C0
C3C0
FF00
C000
C000
C000
7F80
3F80
ENDCHAR
STARTCHAR 0206
ENCODING 518
SWIDTH 480 0
DWIDTH 12 0
BBX 12 20 2 0
BITMAP
03E0
0220
0620
0000
0000
1FF0
1800
1800
1800
3000
3000
3FC0
3F80
6000
6000
6000
6000
C000
FF80
FF80
ENDCHAR
STARTCHAR 0207
ENCODING 519
SWIDTH 480 0
DWIDTH 12 0
BBX 11 17 2 0
BITMAP
0380
07C0
0C40
0000
0000
0780
1FC0
30E0
60E0
E0C0
C3C0
FF00
C000
C000
C000
7F80
3F80
ENDCHAR
STARTCHAR 0208
ENCODING 520
SWIDTH 480 0
DWIDTH 12 0
BBX 11 21 2 0
BITMAP
0080
0D80
0CC0
0660
0000
0000
1FE0
0300
0300
0300
0600
0600
0600
0600
0C00
0C00
0C00
0C00
1800
FF00
FF00
ENDCHAR
STARTCHAR 0209
ENCODING 521
SWIDTH 480 0
DWIDTH 12 0
BBX 8 17 3 0
BITMAP
22
36
33
19
00
7C
FC
0C
18
18
18
18
30
30
30
1F
1F
ENDCHAR
STARTCHAR 020A
ENCODING 522
SWIDTH 480 0
DWIDTH 12 0
BBX 11 20 2 0
BITMAP
03C0
0660
0460
0000
0000
1FE0
0300
0300
0300
0600
0600
0600
0600
0C00
0C00
0C00
0C00
1800
FF00
FF00
ENDCHAR
STARTCHAR 020B
ENCODING 523
SWIDTH 480 0
DWIDTH 12 0
BBX 8 17 3 0
BITMAP
0E
1F
31
00
00
7C
FC
0C
18
18
18
18
30
30
30
1F
1F
ENDCHAR
STARTCHAR 020C
ENCODING 524
SWIDTH 480 0
DWIDTH 12 0
BBX 12 20 2 1
BITMAP
0DC0
06C0
0660
0200
0380
0FE0
1C60
3060
3070
6070
6060
6060
C060
C060
C0E0
C0C0
C1C0
C180
7700
3E00
ENDCHAR
STARTCHAR 020D
ENCODING 525
SWIDTH 480 0
DWIDTH 12 0
BBX 11 17 2 0
BITMAP
1900
1980
0CC0
0640
0000
0F80
1FC0
38C0
70E0
6060
C0E0
C0C0
C0C0
C1C0
C180
7F00
7E00
ENDCHAR
STARTCHAR 020E
ENCODING 526
SWIDTH 480 0
DWIDTH 12 0
BBX 12 20 2 0
BITMAP
03C0
0660
0620
0000
0380
0FE0
1C60
3060
3070
6070
6060
6060
C060
C060
C0E0
C0C0
C1C0
C180
7700
3E00
ENDCHAR
STARTCHAR 020F
ENCODING 527
SWIDTH 480 0
DWIDTH 12 0
BBX 11 17 2 0
BITMAP
0380
07C0
0C40
0000
0000
0F80
1FC0
38C0
70E0
6060
C0E0
C0C0
C0C0
C1C0
C180
7F00
7E00
ENDCHAR
STARTCHAR 0210
ENCODING 528
SWIDTH 480 0
DWIDTH 12 0
BBX 12 21 1 0
BITMAP
0400
0CC0
0660
0360
0020
0780
0FE0
1870
1830
1830
1830
3030
3060
3FC0
3F00
6380
6180
6180
60C0
E0C0
C0C0
ENDCHAR
STARTCHAR 0211
ENCODING 529
SWIDTH 480 0
DWIDTH 12 0
BBX 11 17 2 0
BITMAP
0980
1D80
0CC0
0640
0000
07E0
1FE0
1800
3000
3000
3000
3000
6000
6000
6000
6000
C000
ENDCHAR
STARTCHAR 0212
ENCODING 530
SWIDTH 480 0
DWIDTH 12 0
BBX 12 20 1 0
BITMAP
01E0
0330
0230
0000
0780
0FE0
1870
1830
1830
1830
3030
3060
3FC0
3F00
6380
6180
6180
60C0
E0C0
C0C0
ENDCHAR
STARTCHAR 0213
ENCODING 531
SWIDTH 480 0
DWIDTH 12 0
BBX 11 17 2 0
BITMAP
0380
07C0
0440
0000
0000
07E0
1FE0
1800
3000
3000
3000
3000
6000
6000
6000
6000
C000
ENDCHAR
STARTCHAR 0214
ENCODING 532
SWIDTH 480 0
DWIDTH 12 0
BBX 12 21 2 0
BITMAP
0080
0D80
0CC0
0660
0000
0000
3030
3030
3030
3060
6060
6060
6060
60E0
E0C0
C0C0
C0C0
C180
C180
7700
7E00
ENDCHAR
STARTCHAR 0215
ENCODING 533
SWIDTH 480 0
DWIDTH 12 0
BBX 11 17 2 0
BITMAP
1900
1980
0CC0
0640
0000
3060
3060
60C0
60C0
60C0
60C0
C180
C180
C180
C380
FF80
7D80
ENDCHAR
STARTCHAR 0216
ENCODING 534
SWIDTH 480 0
DWIDTH 12 0
BBX 12 20 2 0
BITMAP
03C0
0660
0460
0000
0000
3030
3030
3030
3060
6060
6060
6060
60E0
E0C0
C0C0
C0C0
C180
C180
7700
7E00
ENDCHAR
STARTCHAR 0217
ENCODING 535
SWIDTH 480 0
DWIDTH 12 0
BBX 11 17 2 0
BITMAP
0380
07C0
0C40
0000
0000
3060
3060
60C0
60C0
60C0
60C0
C180
C180
C180
C380
FF80
7D80
ENDCHAR
STARTCHAR 0218
ENCODING 536
SWIDTH 480 0
DWIDTH 12 0
BBX 11 20 2 -4
BITMAP
07C0
0FE0
1820
3000
3000
3000
3800
1E00
0700
0380
01C0
00C0
01C0
0180
FF80
FE00
0000
3000
3000
E000
ENDCHAR
STARTCHAR 0219
ENCODING 537
SWIDTH 480 0
DWIDTH 12 0
BBX 10 16 2 -4
BITMAP
07C0
1FC0
3800
3000
3800
1E00
0F00
0380
0180
0180
F700
FE00
0000
1800
3000
7000
ENDCHAR
STARTCHAR 021A
ENCODING 538
SWIDTH 480 0
DWIDTH 12 0
BBX 12 19 2 -4
BITMAP
3FF0
0300
0300
0700
0600
0600
0600
0600
0C00
0C00
0C00
0C00
1800
1800
1800
0000
3000
3000
E000
ENDCHAR
STARTCHAR 021B
ENCODING 539
SWIDTH 480 0
DWIDTH 12 0
BBX 9 19 4 -4
BITMAP
1800
1800
1800
FF80
FF80
3000
3000
6000
6000
6000
6000
C000
E000
7E00
7E00
0000
3000
3000
E000
ENDCHAR
STARTCHAR 021C
ENCODING 540
SWIDTH 480 0
DWIDTH 12 0
BBX 13 20 0 -4
BITMAP
03C0
0FF0
0838
0018
0018
0018
0038
0070
0FE0
0FC0
01E0
0060
0070
0030
0060
0060
00E0
03C0
FF80
FC00
ENDCHAR
STARTCHAR 021D
ENCODING 541
SWIDTH 480 0
DWIDTH 12 0
BBX 11 16 1 -4
BITMAP
0F80
1FC0
0060
0060
0060
00C0
0780
1F00
0780
00C0
00C0
00C0
0180
0780
FE00
F800
ENDCHAR
STARTCHAR 021E
ENCODING 542
SWIDTH 480 0
DWIDTH 12 0
BBX 13 21 1 0
BITMAP
0010
0330
01E0
00C0
0000
0000
1818
1818
1818
1830
3030
3030
3FF0
3FF0
7060
6060
6060
60E0
E0C0
C0C0
C0C0
ENDCHAR
STARTCHAR 021F
ENCODING 543
SWIDTH 480 0
DWIDTH 12 0
BBX 11 20 1 1
BITMAP
0780
0300
0200
0000
0C00
0C00
1800
1800
1F80
1FC0
30E0
3060
3060
3060
70C0
60C0
60C0
60C0
E1C0
C180
ENDCHAR
STARTCHAR 0220
ENCODING 544
SWIDTH 480 0
DWIDTH 12 0
BBX 13 20 1 -4
BITMAP
07C0
1FF0
1830
1838
1830
3830
3030
3030
3030
7060
6060
6060
6060
E0C0
C0C0
C0C0
00C0
0180
0180
0180
ENDCHAR
STARTCHAR 0221
ENCODING 545
SWIDTH 480 0
DWIDTH 12 0
BBX 11 21 1 -4
BITMAP
00E0
00C0
00C0
00C0
01C0
0F80
1F80
3180
6180
6300
6300
C300
C300
C600
C600
7FE0
7F60
0C20
1C60
36E0
27C0
ENDCHAR
STARTCHAR 0222
ENCODING 546
SWIDTH 480 0
DWIDTH 12 0
BBX 11 15 2 0
BITMAP
1860
1860
1860
3060
30E0
19C0
1F80
7FC0
E0C0
C0C0
C0C0
C0C0
C1C0
FF80
7E00
ENDCHAR
STARTCHAR 0223
ENCODING 547
SWIDTH 480 0
DWIDTH 12 0
BBX 12 17 2 0
BITMAP
0C30
1830
1830
1860
1860
18E0
1FC0
1F80
71C0
60C0
C0C0
C0C0
C0C0
C0C0
C180
7F80
7E00
ENDCHAR
STARTCHAR 0224
ENCODING 548
SWIDTH 480 0
DWIDTH 12 0
BBX 13 19 1 -4
BITMAP
0FF8
0038
0070
00E0
00C0
0180
0300
0600
0C00
1C00
3800
3000
6000
FFC0
FFC0
00C0
0180
0780
0F00
ENDCHAR
STARTCHAR 0225
ENCODING 549
SWIDTH 480 0
DWIDTH 12 0
BBX 11 16 2 -4
BITMAP
1FE0
3FC0
01C0
0380
0700
0E00
1C00
3800
7000
6000
FF00
FF00
0300
0300
1600
1E00
ENDCHAR
STARTCHAR 0226
ENCODING 550
SWIDTH 480 0
DWIDTH 12 0
BBX 12 20 0 0
BITMAP
0060
0060
0060
0000
0000
00E0
01E0
0360
0360
0660
0660
0C60
0860
1860
3FF0
3FF0
6030
6030
C030
C030
ENDCHAR
STARTCHAR 0227
ENCODING 551
SWIDTH 480 0
DWIDTH 12 0
BBX 11 16 2 0
BITMAP
0180
0180
0000
0000
07C0
1FE0
38C0
70C0
60C0
C0C0
C180
C180
C180
C180
FF80
7D80
ENDCHAR
STARTCHAR 0228
ENCODING 552
SWIDTH 480 0
DWIDTH 12 0
BBX 12 19 1 -4
BITMAP
0FF0
0C00
1800
1800
1800
1800
3FC0
3FC0
3000
3000
6000
6000
6000
7FC0
FFC0
0400
0E00
0600
1C00
ENDCHAR
STARTCHAR 0229
ENCODING 553
SWIDTH 480 0
DWIDTH 12 0
BBX 11 16 2 -4
BITMAP
0780
1FC0
30E0
60E0
E0C0
C3C0
FF00
C000
C000
C000
7F80
3F80
0800
1C00
0C00
3800
ENDCHAR
STARTCHAR 022A
ENCODING 554
SWIDTH 480 0
DWIDTH 12 0
BBX 12 21 2 0
BITMAP
03E0
07E0
0400
0E60
0460
0000
07C0
1FE0
3860
3060
6070
6060
6060
C060
C060
C0E0
C0C0
C1C0
E180
7700
7E00
ENDCHAR
STARTCHAR 022B
ENCODING 555
SWIDTH 480 0
DWIDTH 12 0
BBX 11 18 2 0
BITMAP
07E0
07E0
0400
0C60
0C60
0000
0F80
1FC0
38C0
70E0
6060
C0E0
C0C0
C0C0
C1C0
C180
7F00
7E00
ENDCHAR
STARTCHAR 022C
ENCODING 556
SWIDTH 480 0
DWIDTH 12 0
BBX 12 21 2 0
BITMAP
03E0
03E0
0020
07E0
00C0
0000
07C0
1FE0
3860
3060
6070
6060
6060
C060
C060
C0E0
C0C0
C1C0
E180
7700
7E00
ENDCHAR
STARTCHAR 022D
ENCODING 557
SWIDTH 480 0
DWIDTH 12 0
BBX 11 18 2 0
BITMAP
07E0
07E0
0000
07E0
08C0
0000
0F80
1FC0
38C0
70E0
6060
C0E0
C0C0
C0C0
C1C0
C180
7F00
7E00
ENDCHAR
STARTCHAR 022E
ENCODING 558
SWIDTH 480 0
DWIDTH 12 0
BBX 12 20 2 0
BITMAP
0080
01C0
0180
0000
0380
0FE0
1C60
3060
3070
6070
6060
6060
C060
C060
C0E0
C0C0
C1C0
C180
7700
3E00
ENDCHAR
STARTCHAR 022F
ENCODING 559
SWIDTH 480 0
DWIDTH 12 0
BBX 11 16 2 0
BITMAP
0380
0380
0000
0000
0F80
1FC0
38C0
70E0
6060
C0E0
C0C0
C0C0
C1C0
C180
7F00
7E00
ENDCHAR
STARTCHAR 0230
ENCODING 560
SWIDTH 480 0
DWIDTH 12 0
BBX 12 21 2 0
BITMAP
03F0
03E0
0080
0180
0180
0000
07C0
1FE0
3860
3060
6070
6060
6060
C060
C060
C0E0
C0C0
C1C0
E180
7700
7E00
ENDCHAR
STARTCHAR 0231
ENCODING 561
SWIDTH 480 0
DWIDTH 12 0
BBX 11 18 2 0
BITMAP
07E0
07E0
0100
0380
0300
0000
0F80
1FC0
38C0
70E0
6060
C0E0
C0C0
C0C0
C1C0
C180
7F00
7E00
ENDCHAR
STARTCHAR 0232
ENCODING 562
SWIDTH 480 0
DWIDTH 12 0
BBX 11 19 4 0
BITMAP
1F80
0000
0000
0000
C060
C0C0
C1C0
C180
6300
6600
6600
3C00
3800
3000
3000
3000
7000
6000
6000
ENDCHAR
STARTCHAR 0233
ENCODING 563
SWIDTH 480 0
DWIDTH 12 0
BBX 13 20 0 -4
BITMAP
03F0
03F0
0000
0000
1C18
1C18
0C18
0C30
0C30
0C70
0C60
0C60
06C0
0780
0780
0700
0600
0E00
FC00
F000
ENDCHAR
STARTCHAR 0234
ENCODING 564
SWIDTH 480 0
DWIDTH 12 0
BBX 10 21 1 -4
BITMAP
0F80
1F80
0180
0300
0300
0300
0300
0600
0600
0600
0600
0E00
0C00
0C00
0C00
1F80
1CC0
18C0
38C0
7D80
CF00
ENDCHAR
STARTCHAR 0235
ENCODING 565
SWIDTH 480 0
DWIDTH 12 0
BBX 11 16 1 -4
BITMAP
1E00
3F00
3300
7380
6300
6300
6300
6300
C600
C600
C7E0
C760
0E20
1C60
36E0
27C0
ENDCHAR
STARTCHAR 0236
ENCODING 566
SWIDTH 480 0
DWIDTH 12 0
BBX 12 19 1 -4
BITMAP
0300
0300
0300
1FF0
1FF0
0600
0600
0E00
0C00
0C00
0C00
1C00
1800
1F80
1D80
3880
7080
DF80
8F00
ENDCHAR
STARTCHAR 0237
ENCODING 567
SWIDTH 480 0
DWIDTH 12 0
BBX 11 16 1 -4
BITMAP
0FE0
0FE0
00C0
00C0
00C0
00C0
0180
0180
0180
0180
0380
0300
0300
0700
FE00
FC00
ENDCHAR
STARTCHAR 0238
ENCODING 568
SWIDTH 480 0
DWIDTH 12 0
BBX 12 17 1 0
BITMAP
00C0
00C0
0180
0180
0180
0FE0
1FF0
3330
6330
6330
6630
C630
C630
C660
C460
6CC0
7F80
ENDCHAR
STARTCHAR 0239
ENCODING 569
SWIDTH 480 0
DWIDTH 12 0
BBX 12 16 1 -4
BITMAP
0EE0
1FF0
3330
6330
6330
6630
C630
C630
C660
C460
ECC0
7F80
0C00
0800
1800
1800
ENDCHAR
STARTCHAR 023A
ENCODING 570
SWIDTH 480 0
DWIDTH 12 0
BBX 14 19 0 -2
BITMAP
000C
0008
00F8
01F0
0370
0360
0660
0660
0CE0
0CB0
19B0
1FF0
3FF0
3230
6630
6430
CC30
0800
1800
ENDCHAR
STARTCHAR 023B
ENCODING 571
SWIDTH 480 0
DWIDTH 12 0
BBX 13 19 2 -2
BITMAP
0030
01E0
07F8
1E50
18C0
3180
7180
6300
6300
C600
C600
CC00
CC00
F800
7800
7F80
3F80
6000
6000
ENDCHAR
STARTCHAR 023C
ENCODING 572
SWIDTH 480 0
DWIDTH 12 0
BBX 11 16 2 -2
BITMAP
0040
0040
07C0
1FE0
3980
7100
6300
C200
C600
C400
CC00
E800
7F80
3F80
3000
2000
ENDCHAR
STARTCHAR 023D
ENCODING 573
SWIDTH 480 0
DWIDTH 12 0
BBX 9 15 2 0
BITMAP
0C00
0C00
1800
1800
1800
1800
7F00
FF00
3000
3000
6000
6000
6000
7F80
FF80
ENDCHAR
STARTCHAR 023E
ENCODING 574
SWIDTH 480 0
DWIDTH 12 0
BBX 15 18 1 -1
BITMAP
0002
0006
1FFC
0198
01B0
03E0
0340
03C0
0380
0300
0600
0E00
1E00
3600
3C00
6C00
CC00
8000
ENDCHAR
STARTCHAR 023F
ENCODING 575
SWIDTH 480 0
DWIDTH 12 0
BBX 10 16 2 -4
BITMAP
07C0
1FC0
3800
3000
3800
1C00
0F00
0380
0180
0180
FF00
FE00
6000
3000
3E00
1E00
ENDCHAR
STARTCHAR 0240
ENCODING 576
SWIDTH 480 0
DWIDTH 12 0
BBX 11 16 2 -4
BITMAP
3FE0
3FE0
01C0
0380
0700
0E00
1C00
3800
7000
6000
C000
F000
3800
1800
0F00
0700
ENDCHAR
STARTCHAR 0241
ENCODING 577
SWIDTH 480 0
DWIDTH 12 0
BBX 10 16 3 0
BITMAP
0F00
3FC0
20C0
00C0
00C0
01C0
0380
0F00
1C00
3000
3000
6000
6000
6000
6000
E000
ENDCHAR
STARTCHAR 0242
ENCODING 578
SWIDTH 480 0
DWIDTH 12 0
BBX 8 12 4 0
BITMAP
3E
7F
03
03
03
0E
3C
70
60
C0
C0
C0
ENDCHAR
STARTCHAR 0243
ENCODING 579
SWIDTH 480 0
DWIDTH 12 0
BBX 11 16 2 0
BITMAP
0700
1FE0
18E0
1860
1860
3060
30C0
3F80
3F80
60C0
60C0
FCC0
60C0
C1C0
FF80
FE00
ENDCHAR
STARTCHAR 0244
ENCODING 580
SWIDTH 480 0
DWIDTH 12 0
BBX 12 15 2 0
BITMAP
1830
1870
3060
3060
3060
30E0
FFF0
60C0
60C0
60C0
E180
C180
E380
7700
7E00
ENDCHAR
STARTCHAR 0245
ENCODING 581
SWIDTH 480 0
DWIDTH 12 0
BBX 12 15 0 0
BITMAP
00E0
01E0
0360
0360
0660
0660
0C60
0860
1860
3030
3030
6030
6030
C030
C030
ENDCHAR
STARTCHAR 0246
ENCODING 582
SWIDTH 480 0
DWIDTH 12 0
BBX 14 20 1 -3
BITMAP
0004
000C
0FF8
0C18
1830
1860
1860
18C0
3FE0
3FE0
3300
3300
6600
6C00
6C00
7FE0
FFC0
3000
6000
2000
ENDCHAR
STARTCHAR 0247
ENCODING 583
SWIDTH 480 0
DWIDTH 12 0
BBX 11 16 2 -2
BITMAP
0080
0180
0780
1FC0
3B60
7260
66E0
C5C0
FF00
C800
D800
D800
7380
3F80
2000
6000
ENDCHAR
STARTCHAR 0248
ENCODING 584
SWIDTH 480 0
DWIDTH 12 0
BBX 13 15 1 0
BITMAP
07F0
0030
0030
0060
0060
0060
03F8
07F0
00C0
00C0
00C0
0180
4180
FF00
7E00
ENDCHAR
STARTCHAR 0249
ENCODING 585
SWIDTH 480 0
DWIDTH 12 0
BBX 12 21 0 -4
BITMAP
0020
0070
0070
0020
0000
07E0
0FE0
0060
0060
00C0
0FF0
1FF0
00C0
01C0
0180
0180
0180
0380
0300
FF00
FC00
ENDCHAR
STARTCHAR 024A
ENCODING 586
SWIDTH 480 0
DWIDTH 12 0
BBX 11 20 2 -4
BITMAP
0780
0FC0
18E0
3060
7060
6060
6060
C060
C060
C0C0
C0C0
C0C0
C1C0
C380
7F80
7D80
0180
0300
03C0
01C0
ENDCHAR
STARTCHAR 024B
ENCODING 587
SWIDTH 480 0
DWIDTH 12 0
BBX 11 16 2 -4
BITMAP
07E0
1FE0
3860
70C0
60C0
E0C0
C0C0
C1C0
C180
C180
F780
7F80
0300
0300
03C0
03C0
ENDCHAR
STARTCHAR 024C
ENCODING 588
SWIDTH 480 0
DWIDTH 12 0
BBX 12 16 1 0
BITMAP
0380
0FE0
0C70
0C30
1830
1830
1830
1860
7FC0
FF00
3180
3180
6180
60C0
60C0
60C0
ENDCHAR
STARTCHAR 024D
ENCODING 589
SWIDTH 480 0
DWIDTH 12 0
BBX 11 12 2 0
BITMAP
07E0
1FE0
3800
3000
3000
3000
FF00
6000
6000
6000
6000
C000
ENDCHAR
STARTCHAR 024E
ENCODING 590
SWIDTH 480 0
DWIDTH 12 0
BBX 12 15 3 0
BITMAP
6030
6060
60E0
FFF0
3180
3300
3300
1E00
1C00
1800
1800
1800
3800
3000
3000
ENDCHAR
STARTCHAR 024F
ENCODING 591
SWIDTH 480 0
DWIDTH 12 0
BBX 13 16 0 -4
BITMAP
1C18
1C18
0C18
0C30
0C30
3FF8
0C60
0C60
06C0
07C0
0780
0700
0600
0E00
FC00
F000
ENDCHAR
STARTCHAR 0292
ENCODING 658
SWIDTH 480 0
DWIDTH 12 0
BBX 12 16 1 -4
BITMAP
1FF0
1FE0
0060
00C0
0180
0300
0E00
0F00
0780
01C0
00C0
00C0
0180
0380
FF00
FE00
ENDCHAR
STARTCHAR 02BC
ENCODING 700
SWIDTH 480 0
DWIDTH 12 0
BBX 3 4 7 13
BITMAP
60
60
40
C0
ENDCHAR
STARTCHAR 02C6
ENCODING 710
SWIDTH 480 0
DWIDTH 12 0
BBX 6 4 6 13
BITMAP
10
38
6C
84
ENDCHAR
STARTCHAR 02C7
ENCODING 711
SWIDTH 480 0
DWIDTH 12 0
BBX 5 3 7 13
BITMAP
88
D8
70
ENDCHAR
STARTCHAR 02C9
ENCODING 713
SWIDTH 480 0
DWIDTH 12 0
BBX 6 2 6 14
BITMAP
FC
FC
ENDCHAR
STARTCHAR 02D8
ENCODING 728
SWIDTH 480 0
DWIDTH 12 0
BBX 6 3 7 14
BITMAP
8C
98
F8
ENDCHAR
STARTCHAR 02D9
ENCODING 729
SWIDTH 480 0
DWIDTH 12 0
BBX 2 2 8 14
BITMAP
C0
C0
ENDCHAR
STARTCHAR 02DA
ENCODING 730
SWIDTH 480 0
DWIDTH 12 0
BBX 4 4 7 13
BITMAP
F0
90
90
F0
ENDCHAR
STARTCHAR 02DB
ENCODING 731
SWIDTH 480 0
DWIDTH 12 0
BBX 4 4 3 -4
BITMAP
30
40
C0
F0
ENDCHAR
STARTCHAR 02DC
ENCODING 732
SWIDTH 480 0
DWIDTH 12 0
BBX 8 2 5 14
BITMAP
7B
DE
ENDCHAR
STARTCHAR 02DD
ENCODING 733
SWIDTH 480 0
DWIDTH 12 0
BBX 7 4 6 13
BITMAP
26
6E
DC
90
ENDCHAR
STARTCHAR 0311
ENCODING 785
SWIDTH 480 0
DWIDTH 12 0
BBX 6 3 6 14
BITMAP
38
7C
CC
ENDCHAR
STARTCHAR 0384
ENCODING 900
SWIDTH 480 0
DWIDTH 12 0
BBX 4 4 7 14
BITMAP
30
30
60
C0
ENDCHAR
STARTCHAR 0385
ENCODING 901
SWIDTH 480 0
DWIDTH 12 0
BBX 9 4 5 13
BITMAP
0C00
DB80
DB00
3000
ENDCHAR
STARTCHAR 0386
ENCODING 902
SWIDTH 480 0
DWIDTH 12 0
BBX 12 16 0 0
BITMAP
0400
0CE0
0DE0
1960
1360
0660
0660
0C30
0C30
1830
1FF0
3FF0
3030
6030
6030
C030
ENDCHAR
STARTCHAR 0388
ENCODING 904
SWIDTH 480 0
DWIDTH 12 0
BBX 13 16 0 0
BITMAP
2000
67F8
6C00
CC00
CC00
0C00
1800
1FE0
1FE0
1800
3800
3000
3000
3000
7FE0
7FC0
ENDCHAR
STARTCHAR 0389
ENCODING 905
SWIDTH 480 0
DWIDTH 12 0
BBX 14 16 0 0
BITMAP
6000
6C0C
6C0C
CC0C
8C18
1818
1818
1FF8
1FF8
3830
3030
3030
3070
7060
6060
6060
ENDCHAR
STARTCHAR 038A
ENCODING 906
SWIDTH 480 0
DWIDTH 12 0
BBX 12 16 1 0
BITMAP
4000
6FF0
C180
C180
8180
0300
0300
0300
0300
0600
0600
0600
0600
0C00
7F80
7F80
ENDCHAR
STARTCHAR 038C
ENCODING 908
SWIDTH 480 0
DWIDTH 12 0
BBX 12 16 1 0
BITMAP
43C0
67E0
CC70
D830
B830
3030
3030
6030
6030
6030
6060
6060
60C0
61C0
7F80
3F00
ENDCHAR
STARTCHAR 038E
ENCODING 910
SWIDTH 480 0
DWIDTH 12 0
BBX 16 16 -1 0
BITMAP
2000
6607
6606
C60C
C61C
0618
0330
0360
03E0
01C0
0180
0180
0380
0300
0300
0300
ENDCHAR
STARTCHAR 038F
ENCODING 911
SWIDTH 480 0
DWIDTH 12 0
BBX 14 16 0 0
BITMAP
20E0
33F0
6638
6C18
D81C
181C
3818
3018
3018
3038
3030
3070
3060
18C0
F9F0
F9F0
ENDCHAR
STARTCHAR 0390
ENCODING 912
SWIDTH 480 0
DWIDTH 12 0
BBX 10 17 3 0
BITMAP
0600
66C0
6CC0
0800
0000
7C00
FC00
0C00
1800
1800
1800
1800
3000
3000
3000
1F00
1F00
ENDCHAR
STARTCHAR 0391
ENCODING 913
SWIDTH 480 0
DWIDTH 12 0
BBX 12 15 0 0
BITMAP
00E0
01E0
0360
0360
0660
0660
0C60
0860
1860
3FF0
3FF0
6030
6030
C030
C030
ENDCHAR
STARTCHAR 0392
ENCODING 914
SWIDTH 480 0
DWIDTH 12 0
BBX 12 16 1 0
BITMAP
0780
0FE0
1870
1830
1830
1830
3060
3FC0
3FC0
3060
6060
6060
6060
60C0
FFC0
FF00
ENDCHAR
STARTCHAR 0393
ENCODING 915
SWIDTH 480 0
DWIDTH 12 0
BBX 13 15 1 0
BITMAP
07F8
0600
0600
0600
0C00
0C00
0C00
0C00
1C00
1800
1800
1800
3800
FF00
FE00
ENDCHAR
STARTCHAR 0394
ENCODING 916
SWIDTH 480 0
DWIDTH 12 0
BBX 12 15 0 0
BITMAP
00E0
01E0
0360
0360
0660
0660
0C60
0860
1820
3030
3030
6030
6030
FFF0
FFF0
ENDCHAR
STARTCHAR 0395
ENCODING 917
SWIDTH 480 0
DWIDTH 12 0
BBX 12 15 2 0
BITMAP
1FF0
1800
1800
1800
3000
3000
3FC0
3F80
6000
6000
6000
6000
C000
FF80
FF80
ENDCHAR
STARTCHAR 0396
ENCODING 918
SWIDTH 480 0
DWIDTH 12 0
BBX 13 15 1 0
BITMAP
0FF8
0038
0070
00E0
00C0
0180
0300
0600
0C00
1C00
3800
3000
6000
FFC0
FFC0
ENDCHAR
STARTCHAR 0397
ENCODING 919
SWIDTH 480 0
DWIDTH 12 0
BBX 13 15 1 0
BITMAP
1818
1818
1818
1830
3030
3030
3FF0
3FF0
7060
6060
6060
60E0
E0C0
C0C0
C0C0
ENDCHAR
STARTCHAR 0398
ENCODING 920
SWIDTH 480 0
DWIDTH 12 0
BBX 12 16 2 0
BITMAP
0380
0FE0
1C60
3060
3070
6070
6060
6F60
CF60
C060
C0E0
C0C0
C1C0
C180
7700
3E00
ENDCHAR
STARTCHAR 0399
ENCODING 921
SWIDTH 480 0
DWIDTH 12 0
BBX 11 15 2 0
BITMAP
1FE0
0300
0300
0300
0600
0600
0600
0600
0C00
0C00
0C00
0C00
1800
FF00
FF00
ENDCHAR
STARTCHAR 039A
ENCODING 922
SWIDTH 480 0
DWIDTH 12 0
BBX 13 15 1 0
BITMAP
0C38
1870
18E0
19C0
1B80
3700
3E00
3E00
3600
6300
6380
6180
61C0
E0C0
C0C0
ENDCHAR
STARTCHAR 039B
ENCODING 923
SWIDTH 480 0
DWIDTH 12 0
BBX 12 15 0 0
BITMAP
00E0
01E0
0360
0360
0660
0660
0C60
0860
1860
3030
3030
6030
6030
C030
C030
ENDCHAR
STARTCHAR 039C
ENCODING 924
SWIDTH 480 0
DWIDTH 12 0
BBX 13 15 1 0
BITMAP
0C38
0C38
1C78
1650
16D0
36B0
37B0
2730
6730
6020
6060
C060
C060
C060
C0C0
ENDCHAR
STARTCHAR 039D
ENCODING 925
SWIDTH 480 0
DWIDTH 12 0
BBX 13 15 1 0
BITMAP
1C18
1C18
1E18
1E18
1630
3230
3330
3330
2360
6160
61E0
61E0
41C0
C1C0
C0C0
ENDCHAR
STARTCHAR 039E
ENCODING 926
SWIDTH 480 0
DWIDTH 12 0
BBX 13 15 1 0
BITMAP
1FF8
0000
0000
0000
0000
0000
1FE0
1FE0
0000
0000
0000
0000
0000
FFC0
FFC0
ENDCHAR
STARTCHAR 039F
ENCODING 927
SWIDTH 480 0
DWIDTH 12 0
BBX 12 16 2 0
BITMAP
0380
0FE0
1C60
3060
3070
6070
6060
6060
C060
C060
C0E0
C0C0
C1C0
C180
7700
3E00
ENDCHAR
STARTCHAR 03A0
ENCODING 928
SWIDTH 480 0
DWIDTH 12 0
BBX 13 15 1 0
BITMAP
1FF8
1818
1818
1830
3030
3030
3030
3070
7060
6060
6060
60E0
E0C0
C0C0
C0C0
ENDCHAR
STARTCHAR 03A1
ENCODING 929
SWIDTH 480 0
DWIDTH 12 0
BBX 13 16 1 0
BITMAP
0380
0FE0
0C70
1830
1838
1830
1830
3070
3FE0
3F80
3000
6000
6000
6000
6000
E000
ENDCHAR
STARTCHAR 03A3
ENCODING 931
SWIDTH 480 0
DWIDTH 12 0
BBX 13 15 1 0
BITMAP
1FF8
1C00
0C00
0E00
0600
0700
0300
0300
0600
0C00
1800
3000
6000
FFC0
FFC0
ENDCHAR
STARTCHAR 03A4
ENCODING 932
SWIDTH 480 0
DWIDTH 12 0
BBX 10 15 4 0
BITMAP
FFC0
0C00
0C00
1C00
1800
1800
1800
1800
3000
3000
3000
3000
6000
6000
6000
ENDCHAR
STARTCHAR 03A5
ENCODING 933
SWIDTH 480 0
DWIDTH 12 0
BBX 11 15 4 0
BITMAP
C060
C0C0
C1C0
C180
6300
6600
6600
3C00
3800
3000
3000
3000
7000
6000
6000
ENDCHAR
STARTCHAR 03A6
ENCODING 934
SWIDTH 480 0
DWIDTH 12 0
BBX 11 16 2 0
BITMAP
0100
0380
1FC0
3BE0
3360
6660
6660
C660
C660
CC60
CCC0
6DC0
7F80
3E00
1800
1800
ENDCHAR
STARTCHAR 03A7
ENCODING 935
SWIDTH 480 0
DWIDTH 12 0
BBX 14 15 1 0
BITMAP
0C1C
0C38
0E30
0660
06C0
03C0
0380
0780
0780
0D80
18C0
38C0
70C0
E0C0
C060
ENDCHAR
STARTCHAR 03A8
ENCODING 936
SWIDTH 480 0
DWIDTH 12 0
BBX 11 15 3 0
BITMAP
6060
6060
4060
CC60
CCC0
CCC0
CCC0
8980
D980
FF00
7E00
1800
3000
3000
3000
ENDCHAR
STARTCHAR 03A9
ENCODING 937
SWIDTH 480 0
DWIDTH 12 0
BBX 14 16 0 0
BITMAP
00E0
03F0
0638
0C18
181C
181C
3818
3018
3018
3038
3030
3070
3060
18C0
F9F0
F9F0
ENDCHAR
STARTCHAR 03AA
ENCODING 938
SWIDTH 480 0
DWIDTH 12 0
BBX 11 20 2 0
BITMAP
0620
0660
0660
0000
0000
1FE0
0300
0300
0300
0600
0600
0600
0600
0C00
0C00
0C00
0C00
1800
FF00
FF00
ENDCHAR
STARTCHAR 03AB
ENCODING 939
SWIDTH 480 0
DWIDTH 12 0
BBX 11 20 4 0
BITMAP
1880
1980
1980
0000
0000
C060
C0C0
C1C0
C180
6300
6600
6600
3C00
3800
3000
3000
3000
7000
6000
6000
ENDCHAR
STARTCHAR 03AC
ENCODING 940
SWIDTH 480 0
DWIDTH 12 0
BBX 11 17 2 1
BITMAP
00C0
00C0
0180
0300
0000
07C0
1FE0
38C0
70C0
60C0
E0C0
C180
C180
C180
C180
F7C0
7EC0
ENDCHAR
STARTCHAR 03AD
ENCODING 941
SWIDTH 480 0
DWIDTH 12 0
BBX 11 18 2 0
BITMAP
0040
0060
00C0
0180
0100
0000
07C0
1FC0
3000
3000
3000
3F00
3E00
6000
C000
C000
FF80
7F80
ENDCHAR
STARTCHAR 03AE
ENCODING 942
SWIDTH 480 0
DWIDTH 12 0
BBX 11 22 2 -4
BITMAP
0040
0060
00C0
0180
0100
0000
0F00
3FC0
30C0
30C0
60C0
60C0
60C0
60C0
C180
C180
C180
C180
0300
0300
0300
0300
ENDCHAR
STARTCHAR 03AF
ENCODING 943
SWIDTH 480 0
DWIDTH 12 0
BBX 8 17 3 1
BITMAP
03
07
06
0C
00
7C
FC
0C
18
18
18
18
30
30
30
1F
1F
ENDCHAR
STARTCHAR 03B0
ENCODING 944
SWIDTH 480 0
DWIDTH 12 0
BBX 12 17 2 0
BITMAP
0180
1B70
1B60
0600
0000
3060
3060
60C0
60C0
60C0
60C0
E1C0
C180
C180
C380
7F00
7E00
ENDCHAR
STARTCHAR 03B1
ENCODING 945
SWIDTH 480 0
DWIDTH 12 0
BBX 11 12 2 0
BITMAP
07C0
1FE0
38C0
70C0
60C0
E0C0
C180
C180
C180
C180
F7C0
7EC0
ENDCHAR
STARTCHAR 03B2
ENCODING 946
SWIDTH 480 0
DWIDTH 12 0
BBX 12 21 1 -4
BITMAP
03E0
0770
0E30
0C30
1C30
1860
18C0
1B80
19C0
3060
3060
3060
3060
6060
60C0
7FC0
7F00
C000
C000
C000
C000
ENDCHAR
STARTCHAR 03B3
ENCODING 947
SWIDTH 480 0
DWIDTH 12 0
BBX 10 16 3 -4
BITMAP
C0C0
E0C0
60C0
6180
6180
6300
6300
6600
6C00
7C00
7800
7000
6000
6000
6000
6000
ENDCHAR
STARTCHAR 03B4
ENCODING 948
SWIDTH 480 0
DWIDTH 12 0
BBX 12 17 2 0
BITMAP
07F0
0E60
0C00
0C00
0C00
0700
0F80
1D80
30C0
60C0
60C0
C0C0
C0C0
C0C0
E180
7F80
3E00
ENDCHAR
STARTCHAR 03B5
ENCODING 949
SWIDTH 480 0
DWIDTH 12 0
BBX 10 12 2 0
BITMAP
07C0
1FC0
3000
3000
3000
3F00
3E00
6000
C000
C000
FF80
7F80
ENDCHAR
STARTCHAR 03B6
ENCODING 950
SWIDTH 480 0
DWIDTH 12 0
BBX 12 21 2 -4
BITMAP
0FF0
0FF0
00E0
0180
0300
0E00
1C00
1800
3000
6000
6000
E000
C000
E000
7000
7E00
1F00
0300
0300
0300
0600
ENDCHAR
STARTCHAR 03B7
ENCODING 951
SWIDTH 480 0
DWIDTH 12 0
BBX 10 16 2 -4
BITMAP
0F00
3FC0
30C0
30C0
60C0
60C0
60C0
60C0
C180
C180
C180
C180
0300
0300
0300
0300
ENDCHAR
STARTCHAR 03B8
ENCODING 952
SWIDTH 480 0
DWIDTH 12 0
BBX 11 17 2 0
BITMAP
07C0
0FE0
1860
1860
3060
3060
6060
7FE0
7FE0
6060
60C0
E0C0
C0C0
E180
6380
7F00
3E00
ENDCHAR
STARTCHAR 03B9
ENCODING 953
SWIDTH 480 0
DWIDTH 12 0
BBX 8 12 3 0
BITMAP
7C
FC
0C
18
18
18
18
30
30
30
1F
1F
ENDCHAR
STARTCHAR 03BA
ENCODING 954
SWIDTH 480 0
DWIDTH 12 0
BBX 12 12 2 0
BITMAP
3070
30C0
3180
3700
6E00
7800
7C00
6E00
C700
C300
C380
C180
ENDCHAR
STARTCHAR 03BB
ENCODING 955
SWIDTH 480 0
DWIDTH 12 0
BBX 10 17 1 0
BITMAP
0F00
0300
0300
0180
0180
0180
0380
0780
06C0
0CC0
18C0
18C0
30C0
70C0
60C0
E0C0
C0C0
ENDCHAR
STARTCHAR 03BC
ENCODING 956
SWIDTH 480 0
DWIDTH 12 0
BBX 13 16 0 -4
BITMAP
0C18
0C38
1830
1830
1830
1870
3060
3060
3060
3060
7FF0
6FB0
6000
6000
E000
C000
ENDCHAR
STARTCHAR 03BD
ENCODING 957
SWIDTH 480 0
DWIDTH 12 0
BBX 10 12 3 0
BITMAP
C0C0
C0C0
E1C0
E180
6180
6300
6700
6600
6C00
7C00
7800
3000
ENDCHAR
STARTCHAR 03BE
ENCODING 958
SWIDTH 480 0
DWIDTH 12 0
BBX 12 21 2 -4
BITMAP
03F0
0F30
0C00
1800
1800
1800
1C00
07C0
1F80
3800
6000
6000
C000
E000
7000
7E00
1F00
0380
0300
0300
0600
ENDCHAR
STARTCHAR 03BF
ENCODING 959
SWIDTH 480 0
DWIDTH 12 0
BBX 11 12 2 0
BITMAP
0F80
1FC0
38C0
70E0
6060
C0E0
C0C0
C0C0
C1C0
C180
7F00
7E00
ENDCHAR
STARTCHAR 03C0
ENCODING 960
SWIDTH 480 0
DWIDTH 12 0
BBX 12 12 1 0
BITMAP
1FF0
1FF0
1870
3060
3060
3060
30E0
60C0
60C0
60C0
60C0
E180
ENDCHAR
STARTCHAR 03C1
ENCODING 961
SWIDTH 480 0
DWIDTH 12 0
BBX 12 16 1 -4
BITMAP
0380
0FE0
1C60
1870
3030
3070
3060
3060
60E0
60C0
7F80
7F00
C000
C000
C000
C000
ENDCHAR
STARTCHAR 03C2
ENCODING 962
SWIDTH 480 0
DWIDTH 12 0
BBX 11 16 2 -4
BITMAP
07E0
1FC0
3800
7000
6000
6000
C000
C000
C000
E000
7C00
1F00
0300
0300
0300
0600
ENDCHAR
STARTCHAR 03C3
ENCODING 963
SWIDTH 480 0
DWIDTH 12 0
BBX 12 12 2 0
BITMAP
07F0
1FF0
38C0
60C0
E0C0
C0C0
C0C0
C0C0
C180
C380
FF00
7E00
ENDCHAR
STARTCHAR 03C4
ENCODING 964
SWIDTH 480 0
DWIDTH 12 0
BBX 10 12 3 0
BITMAP
FFC0
FFC0
3800
3000
3000
3000
3000
6000
6000
6000
7F00
3F00
ENDCHAR
STARTCHAR 03C5
ENCODING 965
SWIDTH 480 0
DWIDTH 12 0
BBX 11 12 2 0
BITMAP
3060
3060
60C0
60C0
60C0
60C0
E1C0
C180
C180
C380
7F00
7E00
ENDCHAR
STARTCHAR 03C6
ENCODING 966
SWIDTH 480 0
DWIDTH 12 0
BBX 11 16 2 -4
BITMAP
0700
3FC0
76E0
E660
C660
C460
CC60
CC60
CCC0
CDC0
FF80
7F00
1800
1800
3000
3000
ENDCHAR
STARTCHAR 03C7
ENCODING 967
SWIDTH 480 0
DWIDTH 12 0
BBX 12 12 1 0
BITMAP
3830
1870
1C60
0CC0
0F80
0700
0700
0F00
1980
3180
61C0
C0C0
ENDCHAR
STARTCHAR 03C8
ENCODING 968
SWIDTH 480 0
DWIDTH 12 0
BBX 12 16 2 -4
BITMAP
6030
6030
6060
E660
C460
CC60
CCC0
CCC0
C8C0
D980
FF80
7F00
1800
3000
3000
3000
ENDCHAR
STARTCHAR 03C9
ENCODING 969
SWIDTH 480 0
DWIDTH 12 0
BBX 11 12 1 0
BITMAP
0820
1860
3060
7060
6060
6660
C660
C660
C660
CE60
FFC0
7380
ENDCHAR
STARTCHAR 03CA
ENCODING 970
SWIDTH 480 0
DWIDTH 12 0
BBX 9 16 3 0
BITMAP
3980
3B80
0000
0000
7C00
FC00
0C00
1800
1800
1800
1800
3000
3000
3000
1F00
1F00
ENDCHAR
STARTCHAR 03CB
ENCODING 971
SWIDTH 480 0
DWIDTH 12 0
BBX 11 16 2 0
BITMAP
0CC0
0CC0
0000
0000
3060
3060
60C0
60C0
60C0
60C0
E1C0
C180
C180
C380
7F00
7E00
ENDCHAR
STARTCHAR 03CC
ENCODING 972
SWIDTH 480 0
DWIDTH 12 0
BBX 11 18 2 0
BITMAP
0040
0060
00C0
0180
0100
0000
0F80
1FC0
38C0
70E0
6060
C0E0
C0C0
C0C0
C1C0
C180
7F00
7E00
ENDCHAR
STARTCHAR 03CD
ENCODING 973
SWIDTH 480 0
DWIDTH 12 0
BBX 11 17 2 1
BITMAP
00C0
0180
0300
0200
0000
3060
3060
60C0
60C0
60C0
60C0
E1C0
C180
C180
C380
7F00
7E00
ENDCHAR
STARTCHAR 03CE
ENCODING 974
SWIDTH 480 0
DWIDTH 12 0
BBX 11 17 1 1
BITMAP
0060
00C0
0180
0100
0000
0820
1860
3060
7060
6060
6660
C660
C660
C660
CE60
FFC0
7380
ENDCHAR
STARTCHAR 0400
ENCODING 1024
SWIDTH 480 0
DWIDTH 12 0
BBX 12 20 2 1
BITMAP
0700
0380
0180
0080
0000
1FF0
1800
1800
1800
3000
3000
3FC0
3F80
6000
6000
6000
6000
C000
FF80
FF80
ENDCHAR
STARTCHAR 0401
ENCODING 1025
SWIDTH 480 0
DWIDTH 12 0
BBX 12 20 2 0
BITMAP
0620
0670
0660
0000
0000
1FF0
1800
1800
1800
3000
3000
3FC0
3F80
6000
6000
6000
6000
C000
FF80
FF80
ENDCHAR
STARTCHAR 0402
ENCODING 1026
SWIDTH 480 0
DWIDTH 12 0
BBX 11 15 2 0
BITMAP
7FE0
1C00
1800
1800
1800
1F00
3F80
30C0
30C0
30C0
60C0
60C0
61C0
6F80
CE00
ENDCHAR
STARTCHAR 0403
ENCODING 1027
SWIDTH 480 0
DWIDTH 12 0
BBX 13 20 1 1
BITMAP
0018
0030
0060
0040
0000
07F8
0600
0600
0600
0C00
0C00
0C00
0C00
1C00
1800
1800
1800
3800
FF00
FE00
ENDCHAR
STARTCHAR 0404
ENCODING 1028
SWIDTH 480 0
DWIDTH 12 0
BBX 12 16 2 0
BITMAP
01E0
0FF0
1C10
3800
3000
6000
6000
7F80
FF00
C000
C000
C000
E000
6000
7B80
3F80
ENDCHAR
STARTCHAR 0405
ENCODING 1029
SWIDTH 480 0
DWIDTH 12 0
BBX 11 16 2 0
BITMAP
07C0
0FE0
1820
3000
3000
3000
3800
1E00
0700
0380
01C0
00C0
01C0
0180
FF80
FE00
ENDCHAR
STARTCHAR 0406
ENCODING 1030
SWIDTH 480 0
DWIDTH 12 0
BBX 11 15 2 0
BITMAP
1FE0
0300
0300
0300
0600
0600
0600
0600
0C00
0C00
0C00
0C00
1800
FF00
FF00
ENDCHAR
STARTCHAR 0407
ENCODING 1031
SWIDTH 480 0
DWIDTH 12 0
BBX 12 20 2 0
BITMAP
0220
0670
0620
0000
0000
1FE0
0300
0300
0300
0600
0600
0600
0600
0C00
0C00
0C00
0C00
1800
FF00
FF00
ENDCHAR
STARTCHAR 0408
ENCODING 1032
SWIDTH 480 0
DWIDTH 12 0
BBX 12 15 2 0
BITMAP
0FF0
0060
0060
0060
0060
00C0
00C0
00C0
00C0
0180
0180
0180
0380
EF00
FE00
ENDCHAR
STARTCHAR 0409
ENCODING 1033
SWIDTH 480 0
DWIDTH 12 0
BBX 13 15 0 0
BITMAP
03E0
0660
06C0
06C0
06C0
0CF0
0CF8
0D98
0998
1998
1918
3318
3330
E3F0
C3C0
ENDCHAR
STARTCHAR 040A
ENCODING 1034
SWIDTH 480 0
DWIDTH 12 0
BBX 12 15 1 0
BITMAP
18C0
18C0
1180
3180
3180
3FE0
3FF0
6330
6330
6330
6230
C630
C660
C7E0
C780
ENDCHAR
STARTCHAR 040B
ENCODING 1035
SWIDTH 480 0
DWIDTH 12 0
BBX 10 15 2 0
BITMAP
3FC0
1C00
1800
1800
1800
1F00
3FC0
30C0
30C0
30C0
60C0
60C0
6180
6180
C180
ENDCHAR
STARTCHAR 040C
ENCODING 1036
SWIDTH 480 0
DWIDTH 12 0
BBX 13 20 1 1
BITMAP
0030
0060
00C0
0080
0000
0C38
1870
18E0
19C0
1B80
3700
3E00
3E00
3600
6300
6380
6180
61C0
E0C0
C0C0
ENDCHAR
STARTCHAR 040D
ENCODING 1037
SWIDTH 480 0
DWIDTH 12 0
BBX 13 21 1 0
BITMAP
0100
0380
01C0
00C0
0040
0000
1818
1838
1878
18D8
10B0
31B0
3330
3630
2460
6C60
7860
7060
70C0
E0C0
C0C0
ENDCHAR
STARTCHAR 040E
ENCODING 1038
SWIDTH 480 0
DWIDTH 12 0
BBX 14 20 1 0
BITMAP
0318
03F0
01E0
0000
0000
180C
180C
1818
0C38
0C30
0C60
0C60
06C0
07C0
0780
0300
0700
0600
FC00
F800
ENDCHAR
STARTCHAR 040F
ENCODING 1039
SWIDTH 480 0
DWIDTH 12 0
BBX 13 19 1 -4
BITMAP
1818
1818
1818
1830
3030
3030
3030
3070
6060
6060
6060
60E0
E0C0
FFC0
FFC0
0C00
1800
1800
1800
ENDCHAR
STARTCHAR 0410
ENCODING 1040
SWIDTH 480 0
DWIDTH 12 0
BBX 12 15 0 0
BITMAP
00E0
01E0
0360
0360
0660
0660
0C60
0860
1860
3FF0
3FF0
6030
6030
C030
C030
ENDCHAR
STARTCHAR 0411
ENCODING 1041
SWIDTH 480 0
DWIDTH 12 0
BBX 12 15 1 0
BITMAP
1FF0
1800
1800
1800
1800
3F00
3FC0
30E0
3060
6060
6060
6060
60C0
FF80
FF00
ENDCHAR
STARTCHAR 0412
ENCODING 1042
SWIDTH 480 0
DWIDTH 12 0
BBX 12 16 1 0
BITMAP
0780
0FE0
1870
1830
1830
1830
3060
3FC0
3FC0
3060
6060
6060
6060
60C0
FFC0
FF00
ENDCHAR
STARTCHAR 0413
ENCODING 1043
SWIDTH 480 0
DWIDTH 12 0
BBX 13 15 1 0
BITMAP
07F8
0600
0600
0600
0C00
0C00
0C00
0C00
1C00
1800
1800
1800
3800
FF00
FE00
ENDCHAR
STARTCHAR 0414
ENCODING 1044
SWIDTH 480 0
DWIDTH 12 0
BBX 14 19 0 -4
BITMAP
01FC
018C
0318
0318
0318
0318
0630
0630
0E30
0C30
1C60
1860
3860
7FF0
7FE0
C060
C060
C060
C060
ENDCHAR
STARTCHAR 0415
ENCODING 1045
SWIDTH 480 0
DWIDTH 12 0
BBX 12 15 2 0
BITMAP
1FF0
1800
1800
1800
3000
3000
3FC0
3F80
6000
6000
6000
6000
C000
FF80
FF80
ENDCHAR
STARTCHAR 0416
ENCODING 1046
SWIDTH 480 0
DWIDTH 12 0
BBX 15 15 0 0
BITMAP
0CC6
0CCC
0CC8
04D8
07B0
07E0
03C0
07C0
0D60
1B60
3320
3330
6230
6630
C630
ENDCHAR
STARTCHAR 0417
ENCODING 1047
SWIDTH 480 0
DWIDTH 12 0
BBX 12 16 1 0
BITMAP
03C0
1FE0
1870
0030
0030
0070
00E0
0F80
0FC0
00E0
0060
0060
0060
00C0
F7C0
FF00
ENDCHAR
STARTCHAR 0418
ENCODING 1048
SWIDTH 480 0
DWIDTH 12 0
BBX 13 15 1 0
BITMAP
1818
1838
1878
18D8
10B0
31B0
3330
3630
2460
6C60
7860
7060
70C0
E0C0
C0C0
ENDCHAR
STARTCHAR 0419
ENCODING 1049
SWIDTH 480 0
DWIDTH 12 0
BBX 13 20 1 0
BITMAP
0318
03F0
01E0
0000
0000
1818
1838
1878
18D8
10B0
31B0
3330
3630
2460
6C60
7860
7060
70C0
E0C0
C0C0
ENDCHAR
STARTCHAR 041A
ENCODING 1050
SWIDTH 480 0
DWIDTH 12 0
BBX 13 15 1 0
BITMAP
0C38
1870
18E0
19C0
1B80
3700
3E00
3E00
3600
6300
6380
6180
61C0
E0C0
C0C0
ENDCHAR
STARTCHAR 041B
ENCODING 1051
SWIDTH 480 0
DWIDTH 12 0
BBX 14 15 0 0
BITMAP
01FC
018C
030C
0318
0318
0318
0618
0638
0630
0C30
0C30
1870
3860
F060
E060
ENDCHAR
STARTCHAR 041C
ENCODING 1052
SWIDTH 480 0
DWIDTH 12 0
BBX 13 15 1 0
BITMAP
0C38
0C38
1C78
1650
16D0
36B0
37B0
2730
6730
6020
6060
C060
C060
C060
C0C0
ENDCHAR
STARTCHAR 041D
ENCODING 1053
SWIDTH 480 0
DWIDTH 12 0
BBX 13 15 1 0
BITMAP
1818
1818
1818
1830
3030
3030
3FF0
3FF0
7060
6060
6060
60E0
E0C0
C0C0
C0C0
ENDCHAR
STARTCHAR 041E
ENCODING 1054
SWIDTH 480 0
DWIDTH 12 0
BBX 12 16 2 0
BITMAP
0380
0FE0
1C60
3060
3070
6070
6060
6060
C060
C060
C0E0
C0C0
C1C0
C180
7700
3E00
ENDCHAR
STARTCHAR 041F
ENCODING 1055
SWIDTH 480 0
DWIDTH 12 0
BBX 13 15 1 0
BITMAP
1FF8
1818
1818
1830
3030
3030
3030
3070
7060
6060
6060
60E0
E0C0
C0C0
C0C0
ENDCHAR
STARTCHAR 0420
ENCODING 1056
SWIDTH 480 0
DWIDTH 12 0
BBX 13 16 1 0
BITMAP
0380
0FE0
0C70
1830
1838
1830
1830
3070
3FE0
3F80
3000
6000
6000
6000
6000
E000
ENDCHAR
STARTCHAR 0421
ENCODING 1057
SWIDTH 480 0
DWIDTH 12 0
BBX 12 16 2 0
BITMAP
03E0
0FF0
1C10
3800
3000
7000
6000
6000
C000
C000
C000
C000
E000
6000
7F80
3F80
ENDCHAR
STARTCHAR 0422
ENCODING 1058
SWIDTH 480 0
DWIDTH 12 0
BBX 10 15 4 0
BITMAP
FFC0
0C00
0C00
1C00
1800
1800
1800
1800
3000
3000
3000
3000
6000
6000
6000
ENDCHAR
STARTCHAR 0423
ENCODING 1059
SWIDTH 480 0
DWIDTH 12 0
BBX 14 15 1 0
BITMAP
180C
180C
1818
0C38
0C30
0C60
0C60
06C0
07C0
0780
0300
0700
0600
FC00
F800
ENDCHAR
STARTCHAR 0424
ENCODING 1060
SWIDTH 480 0
DWIDTH 12 0
BBX 11 16 2 0
BITMAP
0100
0380
1FC0
3BE0
3360
6660
6660
C660
C660
CC60
CCC0
6DC0
7F80
3E00
1800
1800
ENDCHAR
STARTCHAR 0425
ENCODING 1061
SWIDTH 480 0
DWIDTH 12 0
BBX 14 15 1 0
BITMAP
0C1C
0C38
0E30
0660
06C0
03C0
0380
0780
0780
0D80
18C0
38C0
70C0
E0C0
C060
ENDCHAR
STARTCHAR 0426
ENCODING 1062
SWIDTH 480 0
DWIDTH 12 0
BBX 13 19 1 -4
BITMAP
1818
1818
1830
1830
3030
3030
3060
3060
6060
6060
60C0
60C0
E0C0
FFE0
FFC0
00C0
00C0
00C0
00C0
ENDCHAR
STARTCHAR 0427
ENCODING 1063
SWIDTH 480 0
DWIDTH 12 0
BBX 11 15 3 0
BITMAP
6060
6060
6060
60C0
C0C0
C0C0
C0C0
E1C0
7F80
1980
0180
0380
0300
0300
0300
ENDCHAR
STARTCHAR 0428
ENCODING 1064
SWIDTH 480 0
DWIDTH 12 0
BBX 13 15 1 0
BITMAP
1818
1818
1818
1810
3030
3330
3330
3320
6660
6660
6660
6660
CCC0
FFC0
FFC0
ENDCHAR
STARTCHAR 0429
ENCODING 1065
SWIDTH 480 0
DWIDTH 12 0
BBX 13 19 1 -4
BITMAP
1818
1818
1830
1830
3030
3330
3320
3660
6660
6660
6640
64C0
CCC0
FFE0
FFC0
00C0
00C0
00C0
00C0
ENDCHAR
STARTCHAR 042A
ENCODING 1066
SWIDTH 480 0
DWIDTH 12 0
BBX 9 15 3 0
BITMAP
7800
1800
3000
3000
3000
3E00
7F80
6180
6180
6180
E180
C180
C300
FF00
FC00
ENDCHAR
STARTCHAR 042B
ENCODING 1067
SWIDTH 480 0
DWIDTH 12 0
BBX 14 15 1 0
BITMAP
180C
1818
3018
3018
3018
3C30
7E30
6330
6330
6360
C360
C360
C660
FCC0
F8C0
ENDCHAR
STARTCHAR 042C
ENCODING 1068
SWIDTH 480 0
DWIDTH 12 0
BBX 12 15 1 0
BITMAP
0C00
1800
1800
1800
1800
3F80
3FE0
3060
3070
6030
6070
6060
60E0
FFC0
FF00
ENDCHAR
STARTCHAR 042D
ENCODING 1069
SWIDTH 480 0
DWIDTH 12 0
BBX 11 16 2 0
BITMAP
0F00
1FC0
00E0
0060
0060
0060
0060
1FE0
1FE0
0060
00E0
00C0
01C0
0380
FF00
FE00
ENDCHAR
STARTCHAR 042E
ENCODING 1070
SWIDTH 480 0
DWIDTH 12 0
BBX 13 16 1 0
BITMAP
0070
18F8
1998
1B18
3318
3318
3618
3E18
7E30
6630
6C30
6C30
CC60
CC60
C7C0
C780
ENDCHAR
STARTCHAR 042F
ENCODING 1071
SWIDTH 480 0
DWIDTH 12 0
BBX 13 16 1 0
BITMAP
0070
07F8
0E18
1C18
1838
1830
1830
1830
1FF0
07E0
0C60
1860
3060
70C0
60C0
C0C0
ENDCHAR
STARTCHAR 0430
ENCODING 1072
SWIDTH 480 0
DWIDTH 12 0
BBX 11 12 2 0
BITMAP
07C0
1FE0
38C0
70C0
60C0
C0C0
C180
C180
C180
C180
FF80
7D80
ENDCHAR
STARTCHAR 0431
ENCODING 1073
SWIDTH 480 0
DWIDTH 12 0
BBX 12 17 2 0
BITMAP
00F0
07F0
0E00
1C00
3800
3000
3F80
7DC0
60C0
60C0
E0C0
C0C0
C0C0
C1C0
E180
7F00
3E00
ENDCHAR
STARTCHAR 0432
ENCODING 1074
SWIDTH 480 0
DWIDTH 12 0
BBX 11 12 1 0
BITMAP
0780
0FE0
1860
3060
30E0
3FC0
3FC0
60C0
60E0
60C0
63C0
FF80
ENDCHAR
STARTCHAR 0433
ENCODING 1075
SWIDTH 480 0
DWIDTH 12 0
BBX 10 12 2 0
BITMAP
1F00
3FC0
00C0
00C0
01C0
0F80
3E00
7000
C000
C000
F300
7F00
ENDCHAR
STARTCHAR 0434
ENCODING 1076
SWIDTH 480 0
DWIDTH 12 0
BBX 11 17 2 0
BITMAP
1F00
1780
01C0
00C0
00C0
00E0
1FE0
38E0
70E0
60C0
60C0
C0C0
C0C0
C180
C380
7700
7E00
ENDCHAR
STARTCHAR 0435
ENCODING 1077
SWIDTH 480 0
DWIDTH 12 0
BBX 11 12 2 0
BITMAP
0780
1FC0
30E0
60E0
E0C0
C3C0
FF00
C000
C000
C000
7F80
3F80
ENDCHAR
STARTCHAR 0436
ENCODING 1078
SWIDTH 480 0
DWIDTH 12 0
BBX 14 12 0 0
BITMAP
308C
399C
09B0
09A0
0920
0FE0
1FE0
1B60
1260
3260
7660
E630
ENDCHAR
STARTCHAR 0437
ENCODING 1079
SWIDTH 480 0
DWIDTH 12 0
BBX 10 12 2 0
BITMAP
1F80
1FC0
00C0
00C0
00C0
1F80
1F80
0180
00C0
0180
FF80
FE00
ENDCHAR
STARTCHAR 0438
ENCODING 1080
SWIDTH 480 0
DWIDTH 12 0
BBX 11 12 2 0
BITMAP
3060
3060
60C0
60C0
60C0
60C0
C180
C180
C180
C380
FF80
7D80
ENDCHAR
STARTCHAR 0439
ENCODING 1081
SWIDTH 480 0
DWIDTH 12 0
BBX 11 16 2 1
BITMAP
0CC0
0F80
0200
0000
3060
3060
60C0
60C0
60C0
60C0
C180
C180
C180
C380
FF80
7D80
ENDCHAR
STARTCHAR 043A
ENCODING 1082
SWIDTH 480 0
DWIDTH 12 0
BBX 12 12 2 0
BITMAP
3070
30C0
3180
3700
6E00
7800
7C00
6E00
C700
C300
C380
C180
ENDCHAR
STARTCHAR 043B
ENCODING 1083
SWIDTH 480 0
DWIDTH 12 0
BBX 13 12 0 0
BITMAP
03F8
03F8
0338
0630
0630
0630
0C70
0C60
1860
3860
F060
C0C0
ENDCHAR
STARTCHAR 043C
ENCODING 1084
SWIDTH 480 0
DWIDTH 12 0
BBX 13 12 1 0
BITMAP
1838
1830
3870
3870
2CF0
6DB0
6D30
6F20
CE60
C660
C060
C060
ENDCHAR
STARTCHAR 043D
ENCODING 1085
SWIDTH 480 0
DWIDTH 12 0
BBX 12 12 1 0
BITMAP
1830
1830
1870
3060
3060
3FE0
3FE0
60C0
60C0
60C0
60C0
E180
ENDCHAR
STARTCHAR 043E
ENCODING 1086
SWIDTH 480 0
DWIDTH 12 0
BBX 11 12 2 0
BITMAP
0F80
1FC0
38C0
70E0
6060
C0E0
C0C0
C0C0
C1C0
C180
7F00
7E00
ENDCHAR
STARTCHAR 043F
ENCODING 1087
SWIDTH 480 0
DWIDTH 12 0
BBX 10 12 2 0
BITMAP
0F00
3FC0
30C0
30C0
60C0
60C0
60C0
60C0
C180
C180
C180
C180
ENDCHAR
STARTCHAR 0440
ENCODING 1088
SWIDTH 480 0
DWIDTH 12 0
BBX 12 16 1 -4
BITMAP
0F80
1FE0
1860
3870
3030
3070
3060
3060
60E0
61C0
7F80
7E00
C000
C000
C000
C000
ENDCHAR
STARTCHAR 0441
ENCODING 1089
SWIDTH 480 0
DWIDTH 12 0
BBX 10 12 2 0
BITMAP
07C0
1FC0
3800
6000
E000
C000
C000
C000
C000
C000
7F80
3F80
ENDCHAR
STARTCHAR 0442
ENCODING 1090
SWIDTH 480 0
DWIDTH 12 0
BBX 12 12 1 0
BITMAP
1EE0
3FF0
3330
3330
2330
6620
6660
6660
4060
C060
C0C0
C0C0
ENDCHAR
STARTCHAR 0443
ENCODING 1091
SWIDTH 480 0
DWIDTH 12 0
BBX 13 16 0 -4
BITMAP
1C18
1C18
0C18
0C30
0C30
0C70
0C60
0C60
06C0
0780
0780
0700
0600
0E00
FC00
F000
ENDCHAR
STARTCHAR 0444
ENCODING 1092
SWIDTH 480 0
DWIDTH 12 0
BBX 11 21 2 -4
BITMAP
0180
0180
0100
0300
0300
0F00
3FC0
76E0
6660
C660
C460
CC60
CC60
CCC0
CDC0
FF80
7F00
1800
1800
3000
3000
ENDCHAR
STARTCHAR 0445
ENCODING 1093
SWIDTH 480 0
DWIDTH 12 0
BBX 12 12 1 0
BITMAP
3830
1870
1C60
0CC0
0F80
0700
0700
0F00
1980
3180
61C0
C0C0
ENDCHAR
STARTCHAR 0446
ENCODING 1094
SWIDTH 480 0
DWIDTH 12 0
BBX 10 15 2 -3
BITMAP
30C0
70C0
60C0
61C0
6180
E180
C180
C380
C300
C300
FFC0
7D80
0180
0180
0180
ENDCHAR
STARTCHAR 0447
ENCODING 1095
SWIDTH 480 0
DWIDTH 12 0
BBX 10 12 3 0
BITMAP
60C0
C0C0
C1C0
C180
C180
C180
FF80
7F00
0300
0300
0300
0600
ENDCHAR
STARTCHAR 0448
ENCODING 1096
SWIDTH 480 0
DWIDTH 12 0
BBX 12 12 1 0
BITMAP
3030
3030
3030
6630
6660
6660
6660
C460
CCC0
CCC0
FFC0
7F40
ENDCHAR
STARTCHAR 0449
ENCODING 1097
SWIDTH 480 0
DWIDTH 12 0
BBX 12 15 1 -3
BITMAP
3030
3030
3030
6630
6660
6660
6660
C460
CCC0
CCC0
FFF0
7F60
0060
0060
0060
ENDCHAR
STARTCHAR 044A
ENCODING 1098
SWIDTH 480 0
DWIDTH 12 0
BBX 9 12 3 0
BITMAP
F000
F000
3000
3000
6000
7F00
6380
6180
C180
C180
C700
FE00
ENDCHAR
STARTCHAR 044B
ENCODING 1099
SWIDTH 480 0
DWIDTH 12 0
BBX 13 12 1 0
BITMAP
3018
3010
3030
3030
6030
7E30
6760
6360
C360
C760
CEC0
FCC0
ENDCHAR
STARTCHAR 044C
ENCODING 1100
SWIDTH 480 0
DWIDTH 12 0
BBX 10 12 2 0
BITMAP
3800
3000
3000
3000
3000
7F80
61C0
60C0
60C0
C1C0
E780
FF00
ENDCHAR
STARTCHAR 044D
ENCODING 1101
SWIDTH 480 0
DWIDTH 12 0
BBX 10 12 2 0
BITMAP
1F00
3F80
01C0
00C0
00C0
1FC0
1FC0
00C0
01C0
0380
FF00
FE00
ENDCHAR
STARTCHAR 044E
ENCODING 1102
SWIDTH 480 0
DWIDTH 12 0
BBX 12 12 1 0
BITMAP
18E0
31F0
3330
3330
3630
7E30
7E30
6630
6660
C660
C7C0
C3C0
ENDCHAR
STARTCHAR 044F
ENCODING 1103
SWIDTH 480 0
DWIDTH 12 0
BBX 11 12 2 0
BITMAP
07C0
1FE0
3060
70C0
60C0
30C0
3FC0
1F80
3180
6180
E180
C300
ENDCHAR
STARTCHAR 0450
ENCODING 1104
SWIDTH 480 0
DWIDTH 12 0
BBX 11 17 2 0
BITMAP
0200
0300
0380
0180
0000
0780
1FC0
30E0
60E0
E0C0
C3C0
FF00
C000
C000
C000
7F80
3F80
ENDCHAR
STARTCHAR 0451
ENCODING 1105
SWIDTH 480 0
DWIDTH 12 0
BBX 11 16 2 0
BITMAP
0660
0660
0000
0000
0780
1FC0
30E0
60E0
E0C0
C3C0
FF00
C000
C000
C000
7F80
3F80
ENDCHAR
STARTCHAR 0452
ENCODING 1106
SWIDTH 480 0
DWIDTH 12 0
BBX 10 21 2 -4
BITMAP
0C00
0C00
3F80
1800
1800
1F80
1FC0
30C0
30C0
30C0
30C0
60C0
60C0
6180
6180
C180
C180
0300
0300
1F00
1E00
ENDCHAR
STARTCHAR 0453
ENCODING 1107
SWIDTH 480 0
DWIDTH 12 0
BBX 10 17 2 0
BITMAP
0080
01C0
0300
0200
0000
1F00
3FC0
00C0
00C0
01C0
0F80
3E00
7000
C000
C000
F300
7F00
ENDCHAR
STARTCHAR 0454
ENCODING 1108
SWIDTH 480 0
DWIDTH 12 0
BBX 10 12 2 0
BITMAP
07C0
1FC0
3800
7000
6000
FF00
FF00
C000
C000
E000
7F80
3F80
ENDCHAR
STARTCHAR 0455
ENCODING 1109
SWIDTH 480 0
DWIDTH 12 0
BBX 10 12 2 0
BITMAP
07C0
1FC0
3800
3000
3800
1E00
0F00
0380
0180
0180
F700
FE00
ENDCHAR
STARTCHAR 0456
ENCODING 1110
SWIDTH 480 0
DWIDTH 12 0
BBX 8 17 3 0
BITMAP
04
0E
0E
04
00
7C
FC
0C
18
18
18
18
30
30
30
1F
1F
ENDCHAR
STARTCHAR 0457
ENCODING 1111
SWIDTH 480 0
DWIDTH 12 0
BBX 9 16 3 0
BITMAP
3980
3B80
0000
0000
7C00
FC00
0C00
1800
1800
1800
1800
3000
3000
3000
1F00
1F00
ENDCHAR
STARTCHAR 0458
ENCODING 1112
SWIDTH 480 0
DWIDTH 12 0
BBX 11 21 1 -4
BITMAP
0060
00E0
00E0
0040
0000
0FE0
0FE0
00C0
00C0
00C0
00C0
0180
0180
0180
0180
0380
0300
0300
0700
FE00
FC00
ENDCHAR
STARTCHAR 0459
ENCODING 1113
SWIDTH 480 0
DWIDTH 12 0
BBX 13 12 0 0
BITMAP
07C0
07C0
0CC0
0CC0
0D80
09F0
19B0
1998
3310
3330
E370
C3E0
ENDCHAR
STARTCHAR 045A
ENCODING 1114
SWIDTH 480 0
DWIDTH 12 0
BBX 12 12 1 0
BITMAP
1980
3180
3180
3180
3300
7FE0
7F60
6330
6620
4660
C6E0
C7C0
ENDCHAR
STARTCHAR 045B
ENCODING 1115
SWIDTH 480 0
DWIDTH 12 0
BBX 10 17 2 0
BITMAP
0C00
0C00
3F80
1800
1800
1F80
1FC0
30C0
30C0
30C0
30C0
60C0
60C0
6180
6180
C180
C180
ENDCHAR
STARTCHAR 045C
ENCODING 1116
SWIDTH 480 0
DWIDTH 12 0
BBX 12 17 2 0
BITMAP
00C0
01C0
0380
0200
0000
3070
30C0
3180
3700
6E00
7800
7C00
6E00
C700
C300
C380
C180
ENDCHAR
STARTCHAR 045D
ENCODING 1117
SWIDTH 480 0
DWIDTH 12 0
BBX 11 17 2 0
BITMAP
0400
0600
0300
0100
0000
3060
3060
60C0
60C0
60C0
60C0
C180
C180
C180
C380
FF80
7D80
ENDCHAR
STARTCHAR 045E
ENCODING 1118
SWIDTH 480 0
DWIDTH 12 0
BBX 13 20 0 -3
BITMAP
0330
03E0
0080
0000
1C18
1C18
0C18
0C30
0C30
0C70
0C60
0C60
06C0
0780
0780
0700
0600
0E00
FC00
F000
ENDCHAR
STARTCHAR 045F
ENCODING 1119
SWIDTH 480 0
DWIDTH 12 0
BBX 11 16 2 -4
BITMAP
3060
3060
60C0
60C0
60C0
60C0
C180
C180
C180
C380
FF80
7D80
0000
1800
1800
3000
ENDCHAR
STARTCHAR 0462
ENCODING 1122
SWIDTH 480 0
DWIDTH 12 0
BBX 9 16 3 0
BITMAP
1800
7F80
7F80
3000
3000
3000
3C00
7F00
6380
6180
6180
E180
C180
C300
FF00
FC00
ENDCHAR
STARTCHAR 0463
ENCODING 1123
SWIDTH 480 0
DWIDTH 12 0
BBX 13 12 0 0
BITMAP
0F00
1F80
1180
3180
3180
31F0
3338
6318
6318
6318
6770
C7E0
ENDCHAR
STARTCHAR 0472
ENCODING 1138
SWIDTH 480 0
DWIDTH 12 0
BBX 11 16 2 0
BITMAP
0380
0FC0
1860
3060
3060
6060
6060
FC60
EFE0
C3E0
C0C0
C0C0
C1C0
C380
7F00
7E00
ENDCHAR
STARTCHAR 0473
ENCODING 1139
SWIDTH 480 0
DWIDTH 12 0
BBX 11 12 2 0
BITMAP
0F80
1FC0
38C0
60E0
6060
FCE0
E7C0
C0C0
C1C0
C180
7F00
7E00
ENDCHAR
STARTCHAR 0474
ENCODING 1140
SWIDTH 480 0
DWIDTH 12 0
BBX 12 16 3 0
BITMAP
0030
C0F0
C0C0
C180
C180
C300
C300
C600
C600
CC00
CC00
D800
5800
5000
7000
6000
ENDCHAR
STARTCHAR 0475
ENCODING 1141
SWIDTH 480 0
DWIDTH 12 0
BBX 11 12 3 0
BITMAP
C0E0
C1E0
C300
C300
C600
C600
CC00
CC00
D800
7800
7000
6000
ENDCHAR
STARTCHAR 048A
ENCODING 1162
SWIDTH 480 0
DWIDTH 12 0
BBX 13 24 1 -4
BITMAP
0630
03F0
03E0
0000
0000
1838
1870
1870
18F0
11B0
3320
3260
3660
2460
6C40
78C0
70C0
70C0
E0E0
C1C0
00C0
0180
0380
0300
ENDCHAR
STARTCHAR 048B
ENCODING 1163
SWIDTH 480 0
DWIDTH 12 0
BBX 10 20 2 -3
BITMAP
0CC0
0F80
0200
0000
30C0
30C0
60C0
60C0
6180
6180
C180
C180
C300
C300
FFC0
7DC0
0180
0380
0700
0200
ENDCHAR
STARTCHAR 048C
ENCODING 1164
SWIDTH 480 0
DWIDTH 12 0
BBX 10 15 2 0
BITMAP
1800
7F00
7F00
1800
3800
3F00
3F80
31C0
70C0
60C0
60C0
61C0
6180
FF00
FE00
ENDCHAR
STARTCHAR 048D
ENCODING 1165
SWIDTH 480 0
DWIDTH 12 0
BBX 10 12 2 0
BITMAP
3000
FE00
FE00
3000
6000
7F80
63C0
60C0
E0C0
C180
E780
FF00
ENDCHAR
STARTCHAR 048E
ENCODING 1166
SWIDTH 480 0
DWIDTH 12 0
BBX 13 16 1 0
BITMAP
0380
0FE0
0C70
1830
1838
1830
1B30
3170
3FE0
3F80
3080
60C0
6000
6000
6000
E000
ENDCHAR
STARTCHAR 048F
ENCODING 1167
SWIDTH 480 0
DWIDTH 12 0
BBX 11 16 1 -4
BITMAP
0F80
1FE0
1860
3860
3060
3060
3060
3260
66C0
63C0
7F80
7F00
C100
C100
C000
C000
ENDCHAR
STARTCHAR 0490
ENCODING 1168
SWIDTH 480 0
DWIDTH 12 0
BBX 14 18 1 0
BITMAP
000C
000C
0018
07F8
0600
0600
0E00
0C00
0C00
0C00
1C00
1800
1800
1800
3800
3000
FE00
FE00
ENDCHAR
STARTCHAR 0491
ENCODING 1169
SWIDTH 480 0
DWIDTH 12 0
BBX 10 15 3 0
BITMAP
00C0
00C0
0180
3F80
3F80
3000
7000
6000
6000
6000
6000
C000
C000
C000
C000
ENDCHAR
STARTCHAR 0492
ENCODING 1170
SWIDTH 480 0
DWIDTH 12 0
BBX 13 15 1 0
BITMAP
07F8
0600
0600
0600
0C00
0C00
3F80
3F80
1800
1800
1800
1800
3800
FF00
FE00
ENDCHAR
STARTCHAR 0493
ENCODING 1171
SWIDTH 480 0
DWIDTH 12 0
BBX 10 12 2 0
BITMAP
1F80
3FC0
20C0
00C0
31C0
1F80
3F00
7180
C000
C000
F380
7F80
ENDCHAR
STARTCHAR 0494
ENCODING 1172
SWIDTH 480 0
DWIDTH 12 0
BBX 11 19 1 -4
BITMAP
0FE0
1800
1800
1800
1800
3700
3FC0
30C0
30E0
7060
6060
6060
60E0
E0C0
C0C0
01C0
0380
3F00
3C00
ENDCHAR
STARTCHAR 0495
ENCODING 1173
SWIDTH 480 0
DWIDTH 12 0
BBX 9 16 2 -4
BITMAP
3F80
3F80
3000
3000
6000
7F00
7F80
6180
C180
C180
C180
C180
0380
0300
3E00
3C00
ENDCHAR
STARTCHAR 0496
ENCODING 1174
SWIDTH 480 0
DWIDTH 12 0
BBX 15 19 0 -4
BITMAP
0CC6
0CCC
0CC8
04D8
07B0
07E0
03C0
07C0
0D60
1B60
3360
3360
6220
6638
C630
0030
0030
0030
0060
ENDCHAR
STARTCHAR 0497
ENCODING 1175
SWIDTH 480 0
DWIDTH 12 0
BBX 14 15 0 -3
BITMAP
308C
399C
09B0
09A0
0920
0FE0
1FE0
1B60
1260
3260
7678
E638
0010
0030
0030
ENDCHAR
STARTCHAR 0498
ENCODING 1176
SWIDTH 480 0
DWIDTH 12 0
BBX 12 20 1 -4
BITMAP
03C0
1FE0
1870
0030
0030
0070
00E0
0F80
0FC0
00E0
0060
0060
0060
00C0
F7C0
FF00
0800
1C00
0C00
3800
ENDCHAR
STARTCHAR 0499
ENCODING 1177
SWIDTH 480 0
DWIDTH 12 0
BBX 10 16 2 -4
BITMAP
1F80
1FC0
00C0
00C0
00C0
1F80
1F80
0180
00C0
0180
FF80
FE00
1800
1800
1800
7800
ENDCHAR
STARTCHAR 049A
ENCODING 1178
SWIDTH 480 0
DWIDTH 12 0
BBX 13 19 1 -4
BITMAP
0C38
1870
18E0
19C0
1B80
3700
3E00
3E00
3600
6700
6300
6180
6180
E1E0
C0C0
00C0
00C0
00C0
00C0
ENDCHAR
STARTCHAR 049B
ENCODING 1179
SWIDTH 480 0
DWIDTH 12 0
BBX 11 15 2 -3
BITMAP
3060
30C0
3380
3700
6E00
7800
7C00
6C00
C600
C300
C3C0
C380
0180
0180
0180
ENDCHAR
STARTCHAR 049C
ENCODING 1180
SWIDTH 480 0
DWIDTH 12 0
BBX 13 15 1 0
BITMAP
1818
1830
3870
3660
36C0
3780
7F00
7F00
6F80
6D80
6980
C0C0
C0C0
C0C0
C0C0
ENDCHAR
STARTCHAR 049D
ENCODING 1181
SWIDTH 480 0
DWIDTH 12 0
BBX 13 12 1 0
BITMAP
3838
3070
30E0
34C0
7580
7F00
7F00
6F80
6980
C1C0
C0C0
C0C0
ENDCHAR
STARTCHAR 049E
ENCODING 1182
SWIDTH 480 0
DWIDTH 12 0
BBX 12 15 2 0
BITMAP
1870
7C60
7CC0
3180
3300
3E00
7C00
7C00
6E00
6600
6300
C380
C180
C180
C0C0
ENDCHAR
STARTCHAR 049F
ENCODING 1183
SWIDTH 480 0
DWIDTH 12 0
BBX 12 12 2 0
BITMAP
3070
FCE0
F9C0
3300
6600
7C00
7C00
6E00
C700
C300
C380
C180
ENDCHAR
STARTCHAR 04A0
ENCODING 1184
SWIDTH 480 0
DWIDTH 12 0
BBX 11 15 3 0
BITMAP
7860
18C0
3180
3380
3700
3E00
7C00
7C00
6C00
6600
E600
C700
C300
C300
C380
ENDCHAR
STARTCHAR 04A1
ENCODING 1185
SWIDTH 480 0
DWIDTH 12 0
BBX 11 12 3 0
BITMAP
F0E0
F1C0
3380
3700
6C00
7800
7C00
6C00
C600
C600
C300
C300
ENDCHAR
STARTCHAR 04A2
ENCODING 1186
SWIDTH 480 0
DWIDTH 12 0
BBX 13 19 1 -4
BITMAP
1818
1818
1818
1830
3030
3030
3FF0
3FE0
6060
6060
6060
60C0
E0C0
C0E0
C0E0
00C0
00C0
00C0
00C0
ENDCHAR
STARTCHAR 04A3
ENCODING 1187
SWIDTH 480 0
DWIDTH 12 0
BBX 12 15 1 -3
BITMAP
1830
1830
1860
3060
3060
3FE0
3FE0
70C0
60C0
60C0
61E0
E1C0
00C0
00C0
00C0
ENDCHAR
STARTCHAR 04A4
ENCODING 1188
SWIDTH 480 0
DWIDTH 12 0
BBX 14 15 1 0
BITMAP
183C
1830
1830
1870
3060
3060
3FE0
3FE0
70C0
60C0
60C0
60C0
E180
C180
C180
ENDCHAR
STARTCHAR 04A5
ENCODING 1189
SWIDTH 480 0
DWIDTH 12 0
BBX 13 12 1 0
BITMAP
1878
1878
3060
30C0
30C0
3FC0
7FC0
6180
6180
6180
E180
C300
ENDCHAR
STARTCHAR 04A6
ENCODING 1190
SWIDTH 480 0
DWIDTH 12 0
BBX 12 19 1 -4
BITMAP
1F80
1980
1900
3300
3300
33C0
33E0
2660
6660
6630
6660
4C60
CC60
CC60
CCE0
00C0
01C0
0780
0700
ENDCHAR
STARTCHAR 04A7
ENCODING 1191
SWIDTH 480 0
DWIDTH 12 0
BBX 12 16 1 -4
BITMAP
1E00
3F00
3300
6300
6300
63E0
63E0
4660
C630
C660
C460
CC60
0060
00C0
07C0
0700
ENDCHAR
STARTCHAR 04A8
ENCODING 1192
SWIDTH 480 0
DWIDTH 12 0
BBX 11 20 2 -4
BITMAP
03C0
0FE0
1C00
3000
6180
67C0
C660
CC60
CC60
CC60
D8C0
D8C0
D8C0
D980
FF00
7E00
0C00
0C00
0780
0380
ENDCHAR
STARTCHAR 04A9
ENCODING 1193
SWIDTH 480 0
DWIDTH 12 0
BBX 10 15 2 -3
BITMAP
0700
1F00
3000
6380
E7C0
CCC0
CCC0
C8C0
D8C0
D980
FB80
7E00
0C00
0E00
0700
ENDCHAR
STARTCHAR 04AA
ENCODING 1194
SWIDTH 480 0
DWIDTH 12 0
BBX 12 20 2 -4
BITMAP
03E0
0FF0
1C10
3800
3000
7000
6000
6000
C000
C000
C000
C000
E000
6000
7F80
3F80
0800
1C00
0C00
3800
ENDCHAR
STARTCHAR 04AB
ENCODING 1195
SWIDTH 480 0
DWIDTH 12 0
BBX 10 16 2 -4
BITMAP
07C0
1FC0
3800
6000
E000
C000
C000
C000
C000
C000
7F80
3F80
1800
1800
1800
7800
ENDCHAR
STARTCHAR 04AC
ENCODING 1196
SWIDTH 480 0
DWIDTH 12 0
BBX 10 19 4 -4
BITMAP
FFC0
0C00
0C00
1C00
1800
1800
1800
1800
3000
3000
3000
3000
6000
7000
7000
3000
6000
6000
6000
ENDCHAR
STARTCHAR 04AD
ENCODING 1197
SWIDTH 480 0
DWIDTH 12 0
BBX 12 15 1 -3
BITMAP
1EE0
3FF0
3330
3330
2330
6620
6660
6660
4060
C040
C0E0
C0E0
0060
0060
00C0
ENDCHAR
STARTCHAR 04AE
ENCODING 1198
SWIDTH 480 0
DWIDTH 12 0
BBX 11 15 4 0
BITMAP
C060
C0C0
C1C0
C180
6300
6600
6600
3C00
3800
3000
3000
3000
7000
6000
6000
ENDCHAR
STARTCHAR 04AF
ENCODING 1199
SWIDTH 480 0
DWIDTH 12 0
BBX 10 16 3 -4
BITMAP
C0C0
C0C0
E1C0
6180
6180
6300
6600
6600
6C00
7C00
3800
3000
3000
6000
6000
6000
ENDCHAR
STARTCHAR 04B0
ENCODING 1200
SWIDTH 480 0
DWIDTH 12 0
BBX 12 15 3 0
BITMAP
6030
6060
60E0
30C0
3180
3300
1600
1E00
1C00
FF00
1800
1800
3800
3000
3000
ENDCHAR
STARTCHAR 04B1
ENCODING 1201
SWIDTH 480 0
DWIDTH 12 0
BBX 11 16 2 -4
BITMAP
6060
6060
70E0
30C0
30C0
3180
3300
3300
3600
3E00
FF00
FF00
1800
3000
3000
3000
ENDCHAR
STARTCHAR 04B2
ENCODING 1202
SWIDTH 480 0
DWIDTH 12 0
BBX 13 19 1 -4
BITMAP
0C18
0C30
0C70
0660
06C0
0780
0300
0700
0F80
1D80
1980
3180
70C0
E0E0
C0C0
00C0
00C0
00C0
00C0
ENDCHAR
STARTCHAR 04B3
ENCODING 1203
SWIDTH 480 0
DWIDTH 12 0
BBX 12 15 1 -3
BITMAP
3830
1860
1CC0
0DC0
0F80
0700
0E00
0F00
1B00
3180
61E0
C1C0
00C0
00C0
00C0
ENDCHAR
STARTCHAR 04B4
ENCODING 1204
SWIDTH 480 0
DWIDTH 12 0
BBX 12 19 2 -4
BITMAP
7F30
1830
1860
1860
1860
3060
30C0
30C0
30C0
60C0
6180
6180
6180
FFC0
FF80
0180
0180
0180
0180
ENDCHAR
STARTCHAR 04B5
ENCODING 1205
SWIDTH 480 0
DWIDTH 12 0
BBX 11 15 2 -3
BITMAP
FE60
FC60
30C0
30C0
30C0
60C0
6180
6180
6180
6180
7FC0
7CC0
0180
0180
0180
ENDCHAR
STARTCHAR 04B6
ENCODING 1206
SWIDTH 480 0
DWIDTH 12 0
BBX 11 19 3 -4
BITMAP
6060
6060
60C0
60C0
C0C0
C0C0
C180
E180
7F80
1180
0300
0300
0300
0380
0700
0300
0300
0300
0300
ENDCHAR
STARTCHAR 04B7
ENCODING 1207
SWIDTH 480 0
DWIDTH 12 0
BBX 10 15 3 -3
BITMAP
60C0
C0C0
C180
C180
C180
C180
FF80
7F00
0300
0300
0780
0700
0300
0300
0300
ENDCHAR
STARTCHAR 04B8
ENCODING 1208
SWIDTH 480 0
DWIDTH 12 0
BBX 11 15 3 0
BITMAP
6060
6060
6060
60C0
C0C0
CCC0
CCC0
E9C0
7F80
1980
1980
1B80
0300
0300
0300
ENDCHAR
STARTCHAR 04B9
ENCODING 1209
SWIDTH 480 0
DWIDTH 12 0
BBX 10 12 3 0
BITMAP
60C0
C0C0
C1C0
C180
C980
D980
FF80
7F00
1300
3300
0300
0600
ENDCHAR
STARTCHAR 04BA
ENCODING 1210
SWIDTH 480 0
DWIDTH 12 0
BBX 11 15 1 0
BITMAP
0C00
1800
1800
1800
1800
3FC0
3FE0
3060
3060
7060
6060
6060
60E0
E0C0
C0C0
ENDCHAR
STARTCHAR 04BB
ENCODING 1211
SWIDTH 480 0
DWIDTH 12 0
BBX 11 17 1 0
BITMAP
0C00
0C00
0C00
1800
1800
1F80
1FC0
30E0
3060
3060
3060
70C0
60C0
60C0
60C0
E1C0
C180
ENDCHAR
STARTCHAR 04BC
ENCODING 1212
SWIDTH 480 0
DWIDTH 12 0
BBX 12 16 2 0
BITMAP
01C0
03E0
0730
0630
4C30
CC30
DC30
7FF0
3FE0
1800
1800
1800
1800
1800
1D80
0F80
ENDCHAR
STARTCHAR 04BD
ENCODING 1213
SWIDTH 480 0
DWIDTH 12 0
BBX 11 12 2 0
BITMAP
03C0
07E0
0C60
9860
9860
F1C0
FF80
3000
3000
3000
1F80
1F80
ENDCHAR
STARTCHAR 04BE
ENCODING 1214
SWIDTH 480 0
DWIDTH 12 0
BBX 12 20 2 -4
BITMAP
01C0
03E0
0730
0630
4C30
CC30
DC30
7FF0
3FE0
1800
1800
1800
1800
1800
1D80
0F80
0600
0600
0C00
0C00
ENDCHAR
STARTCHAR 04BF
ENCODING 1215
SWIDTH 480 0
DWIDTH 12 0
BBX 11 15 2 -3
BITMAP
03C0
07E0
0C60
9860
9860
F1C0
FF80
3000
3000
3000
1F80
1F80
0600
0C00
0C00
ENDCHAR
STARTCHAR 04C0
ENCODING 1216
SWIDTH 480 0
DWIDTH 12 0
BBX 11 15 2 0
BITMAP
1FE0
0300
0300
0300
0600
0600
0600
0600
0C00
0C00
0C00
0C00
1800
FF00
FF00
ENDCHAR
STARTCHAR 04C1
ENCODING 1217
SWIDTH 480 0
DWIDTH 12 0
BBX 15 20 0 0
BITMAP
018C
01F8
00F0
0000
0000
0CC6
0CCC
0CC8
04D8
07B0
07E0
03C0
07C0
0D60
1B60
3320
3330
6230
6630
C630
ENDCHAR
STARTCHAR 04C2
ENCODING 1218
SWIDTH 480 0
DWIDTH 12 0
BBX 14 16 0 1
BITMAP
0318
01F0
0000
0000
308C
399C
09B0
09A0
0920
0FE0
1FE0
1B60
1260
3260
7660
E630
ENDCHAR
STARTCHAR 04C3
ENCODING 1219
SWIDTH 480 0
DWIDTH 12 0
BBX 13 19 1 -4
BITMAP
0C18
1830
1860
18C0
1980
3700
3E00
3F80
31C0
60E0
6060
6060
6060
E0E0
C0C0
01C0
0380
1F00
1E00
ENDCHAR
STARTCHAR 04C4
ENCODING 1220
SWIDTH 480 0
DWIDTH 12 0
BBX 11 16 2 -4
BITMAP
3060
30C0
3180
3300
6E00
7E00
7F00
6380
E180
C180
C180
C180
0380
0300
1E00
3C00
ENDCHAR
STARTCHAR 04C5
ENCODING 1221
SWIDTH 480 0
DWIDTH 12 0
BBX 14 19 0 -4
BITMAP
01FC
0198
0318
0318
0318
0330
0630
0630
0630
0C60
0C60
1860
3860
F0F0
E0E0
0060
00C0
01C0
0180
ENDCHAR
STARTCHAR 04C6
ENCODING 1222
SWIDTH 480 0
DWIDTH 12 0
BBX 13 16 0 -4
BITMAP
03F8
03F0
0330
0630
0630
0660
0C60
0C60
1860
38C0
F0E0
C0E0
0060
00C0
0180
0100
ENDCHAR
STARTCHAR 04C7
ENCODING 1223
SWIDTH 480 0
DWIDTH 12 0
BBX 13 19 1 -4
BITMAP
1818
1818
1818
1830
3030
3030
3FF0
3FF0
7060
6060
6060
60E0
E0C0
C0C0
C0C0
01C0
0180
0780
0F00
ENDCHAR
STARTCHAR 04C8
ENCODING 1224
SWIDTH 480 0
DWIDTH 12 0
BBX 12 16 1 -4
BITMAP
1830
1830
1870
3060
3060
3FE0
3FE0
70C0
60C0
60C0
60C0
E180
0180
0180
0F00
0F00
ENDCHAR
STARTCHAR 04C9
ENCODING 1225
SWIDTH 480 0
DWIDTH 12 0
BBX 13 19 1 -4
BITMAP
1818
1838
1830
1830
3030
3070
3FE0
3FE0
7060
6060
60C0
60C0
E0C0
C0E0
C1E0
00C0
01C0
0380
0300
ENDCHAR
STARTCHAR 04CA
ENCODING 1226
SWIDTH 480 0
DWIDTH 12 0
BBX 12 16 1 -4
BITMAP
1870
1860
1860
3060
3060
3FC0
3FC0
60C0
60C0
6180
61C0
E1C0
00C0
0180
0300
0200
ENDCHAR
STARTCHAR 04CB
ENCODING 1227
SWIDTH 480 0
DWIDTH 12 0
BBX 11 19 3 -4
BITMAP
6060
6060
6060
60C0
C0C0
C0C0
C0C0
E1C0
7F80
1980
0180
0380
0300
0700
0700
0400
0C00
0C00
0C00
ENDCHAR
STARTCHAR 04CC
ENCODING 1228
SWIDTH 480 0
DWIDTH 12 0
BBX 10 15 3 -3
BITMAP
60C0
C0C0
C1C0
C180
C180
C180
FF80
7F00
0300
0300
0700
0E00
0C00
0C00
0C00
ENDCHAR
STARTCHAR 04CD
ENCODING 1229
SWIDTH 480 0
DWIDTH 12 0
BBX 12 19 1 -4
BITMAP
1C30
1C70
1C70
3CF0
3CB0
35A0
2560
6760
6660
6060
4040
C0C0
C0C0
C0E0
C0E0
00C0
00C0
0180
0300
ENDCHAR
STARTCHAR 04CE
ENCODING 1230
SWIDTH 480 0
DWIDTH 12 0
BBX 12 16 1 -4
BITMAP
1870
3860
38E0
38E0
79E0
6960
6B60
4A40
CEC0
CCC0
C0E0
C0E0
00C0
00C0
0180
0100
ENDCHAR
STARTCHAR 04CF
ENCODING 1231
SWIDTH 480 0
DWIDTH 12 0
BBX 11 15 2 0
BITMAP
1FE0
0300
0300
0300
0600
0600
0600
0600
0C00
0C00
0C00
0C00
1800
FF00
FF00
ENDCHAR
STARTCHAR 04D0
ENCODING 1232
SWIDTH 480 0
DWIDTH 12 0
BBX 14 20 0 0
BITMAP
018C
01F8
00F0
0000
0000
00E0
01E0
0360
0360
0660
0660
0C60
0860
1860
3FF0
3FF0
6030
6030
C030
C030
ENDCHAR
STARTCHAR 04D1
ENCODING 1233
SWIDTH 480 0
DWIDTH 12 0
BBX 11 17 2 0
BITMAP
0220
0660
07E0
0080
0000
07C0
1FE0
38C0
70C0
60C0
C0C0
C180
C180
C180
C180
FF80
7D80
ENDCHAR
STARTCHAR 04D2
ENCODING 1234
SWIDTH 480 0
DWIDTH 12 0
BBX 13 20 0 0
BITMAP
0198
0198
0198
0000
0000
00E0
01E0
0360
0360
0660
0660
0C60
0860
1860
3FF0
3FF0
6030
6030
C030
C030
ENDCHAR
STARTCHAR 04D3
ENCODING 1235
SWIDTH 480 0
DWIDTH 12 0
BBX 11 16 2 0
BITMAP
0660
0660
0000
0000
07C0
1FE0
38C0
70C0
60C0
C0C0
C180
C180
C180
C180
FF80
7D80
ENDCHAR
STARTCHAR 04D4
ENCODING 1236
SWIDTH 480 0
DWIDTH 12 0
BBX 15 15 0 0
BITMAP
00FE
01E0
01E0
0360
0360
06C0
04F8
0CF8
18C0
1F80
3F80
3180
6180
63F0
C3F0
ENDCHAR
STARTCHAR 04D5
ENCODING 1237
SWIDTH 480 0
DWIDTH 12 0
BBX 13 12 1 0
BITMAP
1C70
3EF0
0798
0318
0330
1E70
3FE0
6600
C600
CE00
FBE0
73E0
ENDCHAR
STARTCHAR 04D6
ENCODING 1238
SWIDTH 480 0
DWIDTH 12 0
BBX 12 20 2 0
BITMAP
0630
0760
03C0
0000
0000
1FF0
1800
1800
1800
3000
3000
3FC0
3F80
6000
6000
6000
6000
C000
FF80
FF80
ENDCHAR
STARTCHAR 04D7
ENCODING 1239
SWIDTH 480 0
DWIDTH 12 0
BBX 11 16 2 1
BITMAP
0460
07C0
0100
0000
0780
1FC0
30E0
60E0
E0C0
C3C0
FF00
C000
C000
C000
7F80
3F80
ENDCHAR
STARTCHAR 04D8
ENCODING 1240
SWIDTH 480 0
DWIDTH 12 0
BBX 11 16 2 0
BITMAP
0F00
1FC0
10E0
0060
0060
0060
0060
0060
FFE0
C060
C060
C0C0
C0C0
C180
7700
7E00
ENDCHAR
STARTCHAR 04D9
ENCODING 1241
SWIDTH 480 0
DWIDTH 12 0
BBX 11 12 2 0
BITMAP
1F00
3FC0
20E0
0060
0060
0FE0
3FE0
60E0
C0C0
C180
F780
7E00
ENDCHAR
STARTCHAR 04DA
ENCODING 1242
SWIDTH 480 0
DWIDTH 12 0
BBX 11 20 2 0
BITMAP
0660
0E60
0460
0000
0F00
1FC0
10E0
0060
0060
0060
0060
0060
FFE0
C060
C060
C0C0
C0C0
C180
7700
7E00
ENDCHAR
STARTCHAR 04DB
ENCODING 1243
SWIDTH 480 0
DWIDTH 12 0
BBX 11 16 2 0
BITMAP
0EE0
0CE0
0000
0000
1F00
3FC0
20E0
0060
0060
0FE0
3FE0
60E0
C0C0
C180
F780
7E00
ENDCHAR
STARTCHAR 04DC
ENCODING 1244
SWIDTH 480 0
DWIDTH 12 0
BBX 15 20 0 0
BITMAP
0088
019C
0188
0000
0000
0CC6
0CCC
0CC8
04D8
07B0
07E0
03C0
07C0
0D60
1B60
3320
3330
6230
6630
C630
ENDCHAR
STARTCHAR 04DD
ENCODING 1245
SWIDTH 480 0
DWIDTH 12 0
BBX 14 16 0 0
BITMAP
0338
0330
0000
0000
308C
399C
09B0
09A0
0920
0FE0
1FE0
1B60
1260
3260
7660
E630
ENDCHAR
STARTCHAR 04DE
ENCODING 1246
SWIDTH 480 0
DWIDTH 12 0
BBX 12 20 1 0
BITMAP
0230
0770
0220
0000
03C0
1FE0
1870
0030
0030
0070
00E0
0F80
0FC0
00E0
0060
0060
0060
00C0
F7C0
FF00
ENDCHAR
STARTCHAR 04DF
ENCODING 1247
SWIDTH 480 0
DWIDTH 12 0
BBX 11 16 2 0
BITMAP
0EE0
0CE0
0000
0000
1F80
1FC0
00C0
00C0
00C0
1F80
1F80
0180
00C0
0180
FF80
FE00
ENDCHAR
STARTCHAR 04E0
ENCODING 1248
SWIDTH 480 0
DWIDTH 12 0
BBX 13 15 1 0
BITMAP
0FF8
0030
0060
00C0
0180
0300
0780
03C0
0060
0060
0060
0060
00C0
F7C0
FF00
ENDCHAR
STARTCHAR 04E1
ENCODING 1249
SWIDTH 480 0
DWIDTH 12 0
BBX 12 16 1 -4
BITMAP
1FF0
1FE0
0060
00C0
0180
0300
0E00
0F00
0780
01C0
00C0
00C0
0180
0380
FF00
FE00
ENDCHAR
STARTCHAR 04E2
ENCODING 1250
SWIDTH 480 0
DWIDTH 12 0
BBX 13 19 1 0
BITMAP
03F0
0000
0000
0000
1818
1838
1878
18D8
10B0
31B0
3330
3630
2460
6C60
7860
7060
70C0
E0C0
C0C0
ENDCHAR
STARTCHAR 04E3
ENCODING 1251
SWIDTH 480 0
DWIDTH 12 0
BBX 11 16 2 0
BITMAP
0FC0
0FC0
0000
0000
3060
3060
60C0
60C0
60C0
60C0
C180
C180
C180
C380
FF80
7D80
ENDCHAR
STARTCHAR 04E4
ENCODING 1252
SWIDTH 480 0
DWIDTH 12 0
BBX 13 20 1 0
BITMAP
0330
0330
0230
0000
0000
1818
1838
1878
18D8
10B0
31B0
3330
3630
2460
6C60
7860
7060
70C0
E0C0
C0C0
ENDCHAR
STARTCHAR 04E5
ENCODING 1253
SWIDTH 480 0
DWIDTH 12 0
BBX 11 16 2 0
BITMAP
0CC0
0CC0
0000
0000
3060
3060
60C0
60C0
60C0
60C0
C180
C180
C180
C380
FF80
7D80
ENDCHAR
STARTCHAR 04E6
ENCODING 1254
SWIDTH 480 0
DWIDTH 12 0
BBX 12 20 2 0
BITMAP
0620
0660
0660
0000
0380
0FE0
1C60
3060
3070
6070
6060
6060
C060
C060
C0E0
C0C0
C1C0
C180
7700
3E00
ENDCHAR
STARTCHAR 04E7
ENCODING 1255
SWIDTH 480 0
DWIDTH 12 0
BBX 11 16 2 0
BITMAP
0E60
0E60
0000
0000
0F80
1FC0
38C0
70E0
6060
C0E0
C0C0
C0C0
C1C0
C180
7F00
7E00
ENDCHAR
STARTCHAR 04E8
ENCODING 1256
SWIDTH 480 0
DWIDTH 12 0
BBX 11 16 2 0
BITMAP
0380
0FC0
1860
3060
3060
6060
6060
FFE0
FFE0
C060
C0C0
C0C0
C1C0
C180
7F00
7E00
ENDCHAR
STARTCHAR 04E9
ENCODING 1257
SWIDTH 480 0
DWIDTH 12 0
BBX 11 12 2 0
BITMAP
0F80
1FC0
38C0
70E0
6060
FFE0
FFC0
C0C0
C1C0
C380
7F00
7E00
ENDCHAR
STARTCHAR 04EA
ENCODING 1258
SWIDTH 480 0
DWIDTH 12 0
BBX 12 20 2 0
BITMAP
0620
0670
0620
0000
0380
0FC0
1860
3060
3060
6060
6060
FFE0
FFE0
C060
C0C0
C0C0
C1C0
C180
7F00
7E00
ENDCHAR
STARTCHAR 04EB
ENCODING 1259
SWIDTH 480 0
DWIDTH 12 0
BBX 11 16 2 0
BITMAP
0E60
0E60
0000
0000
0F80
1FC0
38C0
70E0
6060
FFE0
FFC0
C0C0
C1C0
C380
7F00
7E00
ENDCHAR
STARTCHAR 04EC
ENCODING 1260
SWIDTH 480 0
DWIDTH 12 0
BBX 11 20 2 0
BITMAP
0660
0E60
0460
0000
0F00
1FC0
00E0
0060
0060
0060
0060
1FE0
1FE0
0060
00E0
00C0
01C0
0380
FF00
FE00
ENDCHAR
STARTCHAR 04ED
ENCODING 1261
SWIDTH 480 0
DWIDTH 12 0
BBX 11 16 2 0
BITMAP
0CE0
0CC0
0000
0000
1F00
3F80
01C0
00C0
00C0
1FC0
1FC0
00C0
01C0
0380
FF00
FE00
ENDCHAR
STARTCHAR 04EE
ENCODING 1262
SWIDTH 480 0
DWIDTH 12 0
BBX 14 19 1 0
BITMAP
03F0
0000
0000
0000
180C
180C
1818
0C38
0C30
0C60
0C60
06C0
07C0
0780
0300
0700
0600
FC00
F800
ENDCHAR
STARTCHAR 04EF
ENCODING 1263
SWIDTH 480 0
DWIDTH 12 0
BBX 13 20 0 -4
BITMAP
03F0
03F0
0000
0000
1C18
1C18
0C18
0C30
0C30
0C70
0C60
0C60
06C0
0780
0780
0700
0600
0E00
FC00
F000
ENDCHAR
STARTCHAR 04F0
ENCODING 1264
SWIDTH 480 0
DWIDTH 12 0
BBX 14 20 1 0
BITMAP
0110
0338
0310
0000
0000
180C
180C
1818
0C38
0C30
0C60
0C60
06C0
07C0
0780
0300
0700
0600
FC00
F800
ENDCHAR
STARTCHAR 04F1
ENCODING 1265
SWIDTH 480 0
DWIDTH 12 0
BBX 13 20 0 -4
BITMAP
0730
0730
0000
0000
1C18
1C18
0C18
0C30
0C30
0C70
0C60
0C60
06C0
0780
0780
0700
0600
0E00
FC00
F000
ENDCHAR
STARTCHAR 04F2
ENCODING 1266
SWIDTH 480 0
DWIDTH 12 0
BBX 14 20 1 1
BITMAP
00CC
0198
0330
0000
0000
180C
180C
1818
0C38
0C30
0C60
0C60
06C0
07C0
0780
0300
0700
0600
FC00
F800
ENDCHAR
STARTCHAR 04F3
ENCODING 1267
SWIDTH 480 0
DWIDTH 12 0
BBX 14 21 0 -4
BITMAP
00C8
01DC
01B8
0320
0000
1C18
1C18
0C18
0C30
0C30
0C70
0C60
0C60
06C0
0780
0780
0700
0600
0E00
FC00
F000
ENDCHAR
STARTCHAR 04F4
ENCODING 1268
SWIDTH 480 0
DWIDTH 12 0
BBX 11 20 3 0
BITMAP
08C0
1DC0
0880
0000
0000
6060
6060
6060
60C0
C0C0
C0C0
C0C0
E1C0
7F80
1980
0180
0380
0300
0300
0300
ENDCHAR
STARTCHAR 04F5
ENCODING 1269
SWIDTH 480 0
DWIDTH 12 0
BBX 10 16 3 0
BITMAP
19C0
1980
0000
0000
60C0
C0C0
C1C0
C180
C180
C180
FF80
7F00
0300
0300
0300
0600
ENDCHAR
STARTCHAR 04F6
ENCODING 1270
SWIDTH 480 0
DWIDTH 12 0
BBX 13 19 1 -4
BITMAP
07F8
0600
0600
0600
0C00
0C00
0C00
0C00
1C00
1800
1800
1800
3800
FF00
FE00
0600
0600
0600
0C00
ENDCHAR
STARTCHAR 04F7
ENCODING 1271
SWIDTH 480 0
DWIDTH 12 0
BBX 10 15 2 -3
BITMAP
1F00
3FC0
00C0
00C0
01C0
0F80
3E00
7000
C000
C000
F380
7F00
0300
0300
0300
ENDCHAR
STARTCHAR 04F8
ENCODING 1272
SWIDTH 480 0
DWIDTH 12 0
BBX 14 20 1 0
BITMAP
0230
0770
0220
0000
0000
180C
1818
3018
3018
3018
3C30
7E30
6330
6330
6360
C360
C360
C660
FCC0
F8C0
ENDCHAR
STARTCHAR 04F9
ENCODING 1273
SWIDTH 480 0
DWIDTH 12 0
BBX 13 16 1 0
BITMAP
0670
0660
0000
0000
3018
3010
3030
3030
6030
7E30
6760
6360
C360
C760
CEC0
FCC0
ENDCHAR
STARTCHAR 1E80
ENCODING 7808
SWIDTH 480 0
DWIDTH 12 0
BBX 14 20 1 1
BITMAP
0380
01C0
00E0
0040
0000
180C
1818
3018
3018
3018
3330
3330
2730
6D20
6960
7960
5140
71C0
61C0
E180
ENDCHAR
STARTCHAR 1E81
ENCODING 7809
SWIDTH 480 0
DWIDTH 12 0
BBX 12 17 2 0
BITMAP
0600
0600
0300
0180
0000
6030
6030
6030
C620
C660
CE60
DEC0
DAC0
F280
E380
E380
C300
ENDCHAR
STARTCHAR 1E82
ENCODING 7810
SWIDTH 480 0
DWIDTH 12 0
BBX 14 20 1 1
BITMAP
0030
0060
00C0
0080
0000
180C
1818
3018
3018
3018
3330
3330
2730
6D20
6960
7960
5140
71C0
61C0
E180
ENDCHAR
STARTCHAR 1E83
ENCODING 7811
SWIDTH 480 0
DWIDTH 12 0
BBX 12 17 2 0
BITMAP
00C0
01C0
0380
0200
0000
6030
6030
6030
C620
C660
CE60
DEC0
DAC0
F280
E380
E380
C300
ENDCHAR
STARTCHAR 1E84
ENCODING 7812
SWIDTH 480 0
DWIDTH 12 0
BBX 14 20 1 0
BITMAP
0110
0338
0310
0000
0000
180C
1818
3018
3018
3018
3330
3330
2730
6D20
6960
7960
5140
71C0
61C0
E180
ENDCHAR
STARTCHAR 1E85
ENCODING 7813
SWIDTH 480 0
DWIDTH 12 0
BBX 12 16 2 0
BITMAP
0EE0
0CE0
0000
0000
6030
6030
6030
C620
C660
CE60
DEC0
DAC0
F280
E380
E380
C300
ENDCHAR
STARTCHAR 1EF2
ENCODING 7922
SWIDTH 480 0
DWIDTH 12 0
BBX 11 21 4 0
BITMAP
0800
1C00
0C00
0600
0200
0000
C060
C0C0
C1C0
C180
6300
6600
6600
3C00
3800
3000
3000
3000
7000
6000
6000
ENDCHAR
STARTCHAR 1EF3
ENCODING 7923
SWIDTH 480 0
DWIDTH 12 0
BBX 13 21 0 -4
BITMAP
0100
0180
00C0
0040
0000
1C18
1C18
0C18
0C30
0C30
0C70
0C60
0C60
06C0
0780
0780
0700
0600
0E00
FC00
F000
ENDCHAR
STARTCHAR 1F00
ENCODING 7936
SWIDTH 480 0
DWIDTH 12 0
BBX 11 17 2 0
BITMAP
01C0
0180
0180
0200
0000
07C0
1FE0
38C0
70C0
60C0
E0C0
C180
C180
C180
C180
F7C0
7EC0
ENDCHAR
STARTCHAR 1F01
ENCODING 7937
SWIDTH 480 0
DWIDTH 12 0
BBX 11 17 2 0
BITMAP
0380
0300
0100
0180
0000
07C0
1FE0
38C0
70C0
60C0
E0C0
C180
C180
C180
C180
F7C0
7EC0
ENDCHAR
STARTCHAR 1F02
ENCODING 7938
SWIDTH 480 0
DWIDTH 12 0
BBX 11 17 2 0
BITMAP
06C0
0640
0660
0C20
0000
07C0
1FE0
38C0
70C0
60C0
E0C0
C180
C180
C180
C180
F7C0
7EC0
ENDCHAR
STARTCHAR 1F03
ENCODING 7939
SWIDTH 480 0
DWIDTH 12 0
BBX 11 17 2 0
BITMAP
0D80
0C80
0CC0
0440
0000
07C0
1FE0
38C0
70C0
60C0
E0C0
C180
C180
C180
C180
F7C0
7EC0
ENDCHAR
STARTCHAR 1F04
ENCODING 7940
SWIDTH 480 0
DWIDTH 12 0
BBX 12 17 2 1
BITMAP
0330
0360
02E0
04C0
0000
07C0
1FE0
38C0
70C0
60C0
E0C0
C180
C180
C180
C180
F7C0
7EC0
ENDCHAR
STARTCHAR 1F05
ENCODING 7941
SWIDTH 480 0
DWIDTH 12 0
BBX 11 17 2 1
BITMAP
0E60
0C60
04C0
0780
0000
07C0
1FE0
38C0
70C0
60C0
E0C0
C180
C180
C180
C180
F7C0
7EC0
ENDCHAR
STARTCHAR 1F06
ENCODING 7942
SWIDTH 480 0
DWIDTH 12 0
BBX 11 20 2 0
BITMAP
01C0
03E0
0620
0180
0180
0180
0200
0000
07C0
1FE0
38C0
70C0
60C0
E0C0
C180
C180
C180
C180
F7C0
7EC0
ENDCHAR
STARTCHAR 1F07
ENCODING 7943
SWIDTH 480 0
DWIDTH 12 0
BBX 11 20 2 0
BITMAP
01C0
03E0
0620
0180
0180
0100
0080
0000
07C0
1FE0
38C0
70C0
60C0
E0C0
C180
C180
C180
C180
F7C0
7EC0
ENDCHAR
STARTCHAR 1F08
ENCODING 7944
SWIDTH 480 0
DWIDTH 12 0
BBX 12 16 0 0
BITMAP
0C00
0CE0
0DE0
1B60
1360
0660
0660
0C60
0C30
1830
1FF0
3FF0
3030
6030
E030
C030
ENDCHAR
STARTCHAR 1F09
ENCODING 7945
SWIDTH 480 0
DWIDTH 12 0
BBX 12 16 0 0
BITMAP
1800
18E0
11E0
1B60
0B60
0660
0660
0C60
0C30
1830
1FF0
3FF0
3030
6030
E030
C030
ENDCHAR
STARTCHAR 1F0A
ENCODING 7946
SWIDTH 480 0
DWIDTH 12 0
BBX 14 16 -2 0
BITMAP
6400
7C38
2678
46D8
80D8
0198
0198
0318
030C
060C
07FC
0FFC
0C0C
180C
380C
300C
ENDCHAR
STARTCHAR 1F0B
ENCODING 7947
SWIDTH 480 0
DWIDTH 12 0
BBX 13 16 -1 0
BITMAP
C800
D870
8CF0
4DB0
41B0
0330
0330
0630
0618
0C18
0FF8
1FF8
1818
3018
7018
6018
ENDCHAR
STARTCHAR 1F0C
ENCODING 7948
SWIDTH 480 0
DWIDTH 12 0
BBX 13 16 -1 0
BITMAP
6200
6670
2EF0
4DB0
89B0
0330
0330
0630
0618
0C18
0FF8
1FF8
1818
3018
7018
6018
ENDCHAR
STARTCHAR 1F0D
ENCODING 7949
SWIDTH 480 0
DWIDTH 12 0
BBX 13 16 -1 0
BITMAP
6200
E670
CEF0
4DB0
09B0
0330
0330
0630
0618
0C18
0FF8
1FF8
1818
3018
7018
6018
ENDCHAR
STARTCHAR 1F0E
ENCODING 7950
SWIDTH 480 0
DWIDTH 12 0
BBX 12 17 0 0
BITMAP
3C00
6600
42E0
19E0
1B60
3360
0660
0660
0C60
0C30
1830
1FF0
3FF0
3030
6030
E030
C030
ENDCHAR
STARTCHAR 1F0F
ENCODING 7951
SWIDTH 480 0
DWIDTH 12 0
BBX 12 17 0 0
BITMAP
3C00
6600
46E0
39E0
3360
1360
0660
0660
0C60
0C30
1830
1FF0
3FF0
3030
6030
E030
C030
ENDCHAR
STARTCHAR 1F10
ENCODING 7952
SWIDTH 480 0
DWIDTH 12 0
BBX 10 17 2 0
BITMAP
01C0
01C0
0180
0300
0000
07C0
1FC0
3000
3000
3000
3F00
3E00
6000
C000
C000
FF80
7F80
ENDCHAR
STARTCHAR 1F11
ENCODING 7953
SWIDTH 480 0
DWIDTH 12 0
BBX 10 17 2 0
BITMAP
0380
0380
0100
0180
0000
07C0
1FC0
3000
3000
3000
3F00
3E00
6000
C000
C000
FF80
7F80
ENDCHAR
STARTCHAR 1F12
ENCODING 7954
SWIDTH 480 0
DWIDTH 12 0
BBX 11 17 2 0
BITMAP
07C0
0660
0660
0C20
0000
07C0
1FC0
3000
3000
3000
3F00
3E00
6000
C000
C000
FF80
7F80
ENDCHAR
STARTCHAR 1F13
ENCODING 7955
SWIDTH 480 0
DWIDTH 12 0
BBX 10 17 2 0
BITMAP
0D80
0CC0
0CC0
0640
0000
07C0
1FC0
3000
3000
3000
3F00
3E00
6000
C000
C000
FF80
7F80
ENDCHAR
STARTCHAR 1F14
ENCODING 7956
SWIDTH 480 0
DWIDTH 12 0
BBX 12 17 2 1
BITMAP
0330
0370
0260
04C0
0000
07C0
1FC0
3000
3000
3000
3F00
3E00
6000
C000
C000
FF80
7F80
ENDCHAR
STARTCHAR 1F15
ENCODING 7957
SWIDTH 480 0
DWIDTH 12 0
BBX 11 17 2 1
BITMAP
0E60
0E60
04C0
0680
0000
07C0
1FC0
3000
3000
3000
3F00
3E00
6000
C000
C000
FF80
7F80
ENDCHAR
STARTCHAR 1F18
ENCODING 7960
SWIDTH 480 0
DWIDTH 12 0
BBX 13 16 1 0
BITMAP
4000
EFF8
4C00
9800
1800
1800
1800
3FC0
3FC0
3000
3000
7000
6000
6000
7FC0
FFC0
ENDCHAR
STARTCHAR 1F19
ENCODING 7961
SWIDTH 480 0
DWIDTH 12 0
BBX 13 16 1 0
BITMAP
C000
CFF8
8C00
D800
5800
1800
1800
3FC0
3FC0
3000
3000
7000
6000
6000
7FC0
FFC0
ENDCHAR
STARTCHAR 1F1A
ENCODING 7962
SWIDTH 480 0
DWIDTH 12 0
BBX 17 16 -3 0
BITMAP
480000
E8FF80
4CC000
858000
058000
018000
018000
03FC00
03FC00
030000
030000
070000
060000
060000
07FC00
0FFC00
ENDCHAR
STARTCHAR 1F1B
ENCODING 7963
SWIDTH 480 0
DWIDTH 12 0
BBX 17 16 -3 0
BITMAP
480000
D8FF80
CCC000
4D8000
458000
018000
018000
03FC00
03FC00
030000
030000
070000
060000
060000
07FC00
0FFC00
ENDCHAR
STARTCHAR 1F1C
ENCODING 7964
SWIDTH 480 0
DWIDTH 12 0
BBX 17 16 -3 0
BITMAP
640000
66FF80
6CC000
D98000
818000
018000
018000
03FC00
03FC00
030000
030000
070000
060000
060000
07FC00
0FFC00
ENDCHAR
STARTCHAR 1F1D
ENCODING 7965
SWIDTH 480 0
DWIDTH 12 0
BBX 17 16 -3 0
BITMAP
C40000
C6FF80
8CC000
D98000
418000
018000
018000
03FC00
03FC00
030000
030000
070000
060000
060000
07FC00
0FFC00
ENDCHAR
STARTCHAR 1F20
ENCODING 7968
SWIDTH 480 0
DWIDTH 12 0
BBX 10 21 2 -4
BITMAP
0180
0180
0180
0200
0000
0F00
3FC0
30C0
30C0
60C0
60C0
60C0
60C0
C180
C180
C180
C180
0300
0300
0300
0300
ENDCHAR
STARTCHAR 1F21
ENCODING 7969
SWIDTH 480 0
DWIDTH 12 0
BBX 10 21 2 -4
BITMAP
0380
0300
0300
0180
0000
0F00
3FC0
30C0
30C0
60C0
60C0
60C0
60C0
C180
C180
C180
C180
0300
0300
0300
0300
ENDCHAR
STARTCHAR 1F22
ENCODING 7970
SWIDTH 480 0
DWIDTH 12 0
BBX 11 21 2 -4
BITMAP
06C0
06C0
0660
0860
0000
0F00
3FC0
30C0
30C0
60C0
60C0
60C0
60C0
C180
C180
C180
C180
0300
0300
0300
0300
ENDCHAR
STARTCHAR 1F23
ENCODING 7971
SWIDTH 480 0
DWIDTH 12 0
BBX 10 21 2 -4
BITMAP
0D80
0C80
0CC0
0440
0000
0F00
3FC0
30C0
30C0
60C0
60C0
60C0
60C0
C180
C180
C180
C180
0300
0300
0300
0300
ENDCHAR
STARTCHAR 1F24
ENCODING 7972
SWIDTH 480 0
DWIDTH 12 0
BBX 12 21 2 -3
BITMAP
0330
0360
02C0
04C0
0000
0F00
3FC0
30C0
30C0
60C0
60C0
60C0
60C0
C180
C180
C180
C180
0300
0300
0300
0300
ENDCHAR
STARTCHAR 1F25
ENCODING 7973
SWIDTH 480 0
DWIDTH 12 0
BBX 11 21 2 -3
BITMAP
0E60
0CE0
04C0
0780
0000
0F00
3FC0
30C0
30C0
60C0
60C0
60C0
60C0
C180
C180
C180
C180
0300
0300
0300
0300
ENDCHAR
STARTCHAR 1F26
ENCODING 7974
SWIDTH 480 0
DWIDTH 12 0
BBX 11 24 2 -4
BITMAP
01C0
03E0
0620
0180
0180
0100
0200
0000
0F00
3FC0
30C0
30C0
60C0
60C0
60C0
60C0
C180
C180
C180
C180
0300
0300
0300
0300
ENDCHAR
STARTCHAR 1F27
ENCODING 7975
SWIDTH 480 0
DWIDTH 12 0
BBX 11 24 2 -4
BITMAP
01C0
03E0
0620
0180
0180
0100
0180
0000
0F00
3FC0
30C0
30C0
60C0
60C0
60C0
60C0
C180
C180
C180
C180
0300
0300
0300
0300
ENDCHAR
STARTCHAR 1F28
ENCODING 7976
SWIDTH 480 0
DWIDTH 12 0
BBX 14 16 0 0
BITMAP
6000
6C0C
6C0C
CC0C
8C18
1818
1818
1FF8
1FF8
3830
3030
3030
3070
7060
6060
6060
ENDCHAR
STARTCHAR 1F29
ENCODING 7977
SWIDTH 480 0
DWIDTH 12 0
BBX 14 16 0 0
BITMAP
6000
EC0C
CC0C
4C0C
0C18
1818
1818
1FF8
1FF8
3830
3030
3030
3070
7060
6060
6060
ENDCHAR
STARTCHAR 1F2A
ENCODING 7978
SWIDTH 480 0
DWIDTH 12 0
BBX 18 16 -4 0
BITMAP
640000
6CC0C0
64C0C0
C6C0C0
80C180
018180
018180
01FF80
01FF80
038300
030300
030300
030700
070600
060600
060600
ENDCHAR
STARTCHAR 1F2B
ENCODING 7979
SWIDTH 480 0
DWIDTH 12 0
BBX 17 16 -3 0
BITMAP
C80000
D98180
898180
CD8180
418300
030300
030300
03FF00
03FF00
070600
060600
060600
060E00
0E0C00
0C0C00
0C0C00
ENDCHAR
STARTCHAR 1F2C
ENCODING 7980
SWIDTH 480 0
DWIDTH 12 0
BBX 18 16 -4 0
BITMAP
220000
77C0C0
2EC0C0
4CC0C0
88C180
018180
018180
01FF80
01FF80
038300
030300
030300
030700
070600
060600
060600
ENDCHAR
STARTCHAR 1F2D
ENCODING 7981
SWIDTH 480 0
DWIDTH 12 0
BBX 18 16 -4 0
BITMAP
620000
E6C0C0
4EC0C0
4CC0C0
08C180
018180
018180
01FF80
01FF80
038300
030300
030300
030700
070600
060600
060600
ENDCHAR
STARTCHAR 1F2E
ENCODING 7982
SWIDTH 480 0
DWIDTH 12 0
BBX 16 17 -2 0
BITMAP
7800
CC00
8F03
7303
2303
4306
0606
0606
07FE
07FE
0E0C
0C0C
0C0C
0C1C
1C18
1818
1818
ENDCHAR
STARTCHAR 1F2F
ENCODING 7983
SWIDTH 480 0
DWIDTH 12 0
BBX 16 17 -2 0
BITMAP
7800
CC00
8F03
6303
6303
2306
0606
0606
07FE
07FE
0E0C
0C0C
0C0C
0C1C
1C18
1818
1818
ENDCHAR
STARTCHAR 1F30
ENCODING 7984
SWIDTH 480 0
DWIDTH 12 0
BBX 8 17 3 0
BITMAP
06
06
04
08
00
7C
FC
0C
18
18
18
18
30
30
30
1F
1F
ENDCHAR
STARTCHAR 1F31
ENCODING 7985
SWIDTH 480 0
DWIDTH 12 0
BBX 8 17 3 0
BITMAP
1C
1C
08
04
00
7C
FC
0C
18
18
18
18
30
30
30
1F
1F
ENDCHAR
STARTCHAR 1F32
ENCODING 7986
SWIDTH 480 0
DWIDTH 12 0
BBX 9 17 3 0
BITMAP
3E00
3B00
3300
6180
0000
7C00
FC00
0C00
1800
1800
1800
1800
3000
3000
3000
1F00
1F00
ENDCHAR
STARTCHAR 1F33
ENCODING 7987
SWIDTH 480 0
DWIDTH 12 0
BBX 8 17 3 0
BITMAP
7C
66
26
33
00
7C
FC
0C
18
18
18
18
30
30
30
1F
1F
ENDCHAR
STARTCHAR 1F34
ENCODING 7988
SWIDTH 480 0
DWIDTH 12 0
BBX 9 17 3 1
BITMAP
1980
1980
1B00
2600
0000
7C00
FC00
0C00
1800
1800
1800
1800
3000
3000
3000
1F00
1F00
ENDCHAR
STARTCHAR 1F35
ENCODING 7989
SWIDTH 480 0
DWIDTH 12 0
BBX 8 17 3 1
BITMAP
31
33
26
14
00
7C
FC
0C
18
18
18
18
30
30
30
1F
1F
ENDCHAR
STARTCHAR 1F36
ENCODING 7990
SWIDTH 480 0
DWIDTH 12 0
BBX 8 20 3 0
BITMAP
06
1F
11
04
0C
0C
18
00
7C
FC
0C
18
18
18
18
30
30
30
1F
1F
ENDCHAR
STARTCHAR 1F37
ENCODING 7991
SWIDTH 480 0
DWIDTH 12 0
BBX 8 20 3 0
BITMAP
06
1F
11
04
0C
0C
04
00
7C
FC
0C
18
18
18
18
30
30
30
1F
1F
ENDCHAR
STARTCHAR 1F38
ENCODING 7992
SWIDTH 480 0
DWIDTH 12 0
BBX 12 16 1 0
BITMAP
6000
6FF0
6180
C180
8180
0300
0300
0300
0300
0600
0600
0600
0600
0C00
7F80
7F80
ENDCHAR
STARTCHAR 1F39
ENCODING 7993
SWIDTH 480 0
DWIDTH 12 0
BBX 12 16 1 0
BITMAP
6000
EFF0
C180
4180
0180
0300
0300
0300
0300
0600
0600
0600
0600
0C00
7F80
7F80
ENDCHAR
STARTCHAR 1F3A
ENCODING 7994
SWIDTH 480 0
DWIDTH 12 0
BBX 16 16 -3 0
BITMAP
6400
6CFF
6C18
C618
8418
0030
0030
0030
0030
0060
0060
0060
0060
00C0
07F8
07F8
ENDCHAR
STARTCHAR 1F3B
ENCODING 7995
SWIDTH 480 0
DWIDTH 12 0
BBX 15 16 -2 0
BITMAP
C800
D9FE
9830
CC30
0830
0060
0060
0060
0060
00C0
00C0
00C0
00C0
0180
0FF0
0FF0
ENDCHAR
STARTCHAR 1F3C
ENCODING 7996
SWIDTH 480 0
DWIDTH 12 0
BBX 16 16 -3 0
BITMAP
6200
66FF
2C18
5C18
8818
0030
0030
0030
0030
0060
0060
0060
0060
00C0
07F8
07F8
ENDCHAR
STARTCHAR 1F3D
ENCODING 7997
SWIDTH 480 0
DWIDTH 12 0
BBX 16 16 -3 0
BITMAP
4200
E6FF
CC18
5C18
0818
0030
0030
0030
0030
0060
0060
0060
0060
00C0
07F8
07F8
ENDCHAR
STARTCHAR 1F3E
ENCODING 7998
SWIDTH 480 0
DWIDTH 12 0
BBX 14 17 -1 0
BITMAP
7800
C800
8BFC
6060
6060
C060
00C0
00C0
00C0
00C0
0180
0180
0180
0180
0300
1FE0
1FE0
ENDCHAR
STARTCHAR 1F3F
ENCODING 7999
SWIDTH 480 0
DWIDTH 12 0
BBX 14 17 -1 0
BITMAP
7800
C800
8BFC
6060
6060
2060
00C0
00C0
00C0
00C0
0180
0180
0180
0180
0300
1FE0
1FE0
ENDCHAR
STARTCHAR 1F40
ENCODING 8000
SWIDTH 480 0
DWIDTH 12 0
BBX 11 17 2 0
BITMAP
0180
0180
0180
0200
0000
0F80
1FC0
38C0
70E0
6060
C0E0
C0C0
C0C0
C1C0
C180
7F00
7E00
ENDCHAR
STARTCHAR 1F41
ENCODING 8001
SWIDTH 480 0
DWIDTH 12 0
BBX 11 17 2 0
BITMAP
0380
0300
0300
0180
0000
0F80
1FC0
38C0
70E0
6060
C0E0
C0C0
C0C0
C1C0
C180
7F00
7E00
ENDCHAR
STARTCHAR 1F42
ENCODING 8002
SWIDTH 480 0
DWIDTH 12 0
BBX 11 17 2 0
BITMAP
06C0
06C0
0460
0860
0000
0F80
1FC0
38C0
70E0
6060
C0E0
C0C0
C0C0
C1C0
C180
7F00
7E00
ENDCHAR
STARTCHAR 1F43
ENCODING 8003
SWIDTH 480 0
DWIDTH 12 0
BBX 11 17 2 0
BITMAP
0D80
0D80
0CC0
0440
0000
0F80
1FC0
38C0
70E0
6060
C0E0
C0C0
C0C0
C1C0
C180
7F00
7E00
ENDCHAR
STARTCHAR 1F44
ENCODING 8004
SWIDTH 480 0
DWIDTH 12 0
BBX 12 17 2 1
BITMAP
0330
0360
02C0
04C0
0000
0F80
1FC0
38C0
70E0
6060
C0E0
C0C0
C0C0
C1C0
C180
7F00
7E00
ENDCHAR
STARTCHAR 1F45
ENCODING 8005
SWIDTH 480 0
DWIDTH 12 0
BBX 11 17 2 1
BITMAP
0E60
0CE0
04C0
0780
0000
0F80
1FC0
38C0
70E0
6060
C0E0
C0C0
C0C0
C1C0
C180
7F00
7E00
ENDCHAR
STARTCHAR 1F48
ENCODING 8008
SWIDTH 480 0
DWIDTH 12 0
BBX 12 16 1 0
BITMAP
63C0
E7E0
4C70
D830
3830
3030
3030
6030
6030
6030
6060
6060
60C0
61C0
7F80
3F00
ENDCHAR
STARTCHAR 1F49
ENCODING 8009
SWIDTH 480 0
DWIDTH 12 0
BBX 13 16 0 0
BITMAP
41E0
E3F0
C638
4C18
1C18
1818
1818
3018
3018
3018
3030
3030
3060
30E0
3FC0
1F80
ENDCHAR
STARTCHAR 1F4A
ENCODING 8010
SWIDTH 480 0
DWIDTH 12 0
BBX 17 16 -4 0
BITMAP
641E00
6C3F00
646380
C6C180
81C180
018180
018180
030180
030180
030180
030300
030300
030600
030E00
03FC00
01F800
ENDCHAR
STARTCHAR 1F4B
ENCODING 8011
SWIDTH 480 0
DWIDTH 12 0
BBX 16 16 -3 0
BITMAP
C83C
D87E
88C7
CD83
4383
0303
0303
0603
0603
0603
0606
0606
060C
061C
07F8
03F0
ENDCHAR
STARTCHAR 1F4C
ENCODING 8012
SWIDTH 480 0
DWIDTH 12 0
BBX 16 16 -3 0
BITMAP
623C
667E
6CC7
5983
8B83
0303
0303
0603
0603
0603
0606
0606
060C
061C
07F8
03F0
ENDCHAR
STARTCHAR 1F4D
ENCODING 8013
SWIDTH 480 0
DWIDTH 12 0
BBX 16 16 -3 0
BITMAP
423C
E67E
CCC7
5983
0B83
0303
0303
0603
0603
0603
0606
0606
060C
061C
07F8
03F0
ENDCHAR
STARTCHAR 1F50
ENCODING 8016
SWIDTH 480 0
DWIDTH 12 0
BBX 11 17 2 0
BITMAP
0180
0180
0100
0200
0000
3060
3060
60C0
60C0
60C0
60C0
E1C0
C180
C180
C380
7F00
7E00
ENDCHAR
STARTCHAR 1F51
ENCODING 8017
SWIDTH 480 0
DWIDTH 12 0
BBX 11 17 2 0
BITMAP
0300
0300
0300
0100
0000
3060
3060
60C0
60C0
60C0
60C0
E1C0
C180
C180
C380
7F00
7E00
ENDCHAR
STARTCHAR 1F52
ENCODING 8018
SWIDTH 480 0
DWIDTH 12 0
BBX 11 17 2 0
BITMAP
06C0
06C0
0440
0860
0000
3060
3060
60C0
60C0
60C0
60C0
E1C0
C180
C180
C380
7F00
7E00
ENDCHAR
STARTCHAR 1F53
ENCODING 8019
SWIDTH 480 0
DWIDTH 12 0
BBX 11 17 2 0
BITMAP
0D80
0D80
0880
04C0
0000
3060
3060
60C0
60C0
60C0
60C0
E1C0
C180
C180
C380
7F00
7E00
ENDCHAR
STARTCHAR 1F54
ENCODING 8020
SWIDTH 480 0
DWIDTH 12 0
BBX 11 17 2 1
BITMAP
0720
0760
06C0
0C80
0000
3060
3060
60C0
60C0
60C0
60C0
E1C0
C180
C180
C380
7F00
7E00
ENDCHAR
STARTCHAR 1F55
ENCODING 8021
SWIDTH 480 0
DWIDTH 12 0
BBX 11 17 2 1
BITMAP
0C60
0CC0
0D80
0580
0000
3060
3060
60C0
60C0
60C0
60C0
E1C0
C180
C180
C380
7F00
7E00
ENDCHAR
STARTCHAR 1F56
ENCODING 8022
SWIDTH 480 0
DWIDTH 12 0
BBX 11 20 2 0
BITMAP
0180
03C0
0460
0100
0380
0100
0600
0000
3060
3060
60C0
60C0
60C0
60C0
E1C0
C180
C180
C380
7F00
7E00
ENDCHAR
STARTCHAR 1F57
ENCODING 8023
SWIDTH 480 0
DWIDTH 12 0
BBX 11 20 2 0
BITMAP
0180
03C0
0460
0100
0300
0300
0180
0000
3060
3060
60C0
60C0
60C0
60C0
E1C0
C180
C180
C380
7F00
7E00
ENDCHAR
STARTCHAR 1F59
ENCODING 8025
SWIDTH 480 0
DWIDTH 12 0
BBX 15 16 0 0
BITMAP
4000
EC06
CC0C
4C1C
0C18
0630
0660
0660
03C0
0380
0300
0300
0300
0700
0600
0600
ENDCHAR
STARTCHAR 1F5B
ENCODING 8027
SWIDTH 480 0
DWIDTH 12 0
BBX 18 16 -3 0
BITMAP
C80000
D980C0
8D8180
CD8380
418300
00C600
00CC00
00CC00
007800
007000
006000
006000
006000
00E000
00C000
00C000
ENDCHAR
STARTCHAR 1F5D
ENCODING 8029
SWIDTH 480 0
DWIDTH 12 0
BBX 19 16 -4 0
BITMAP
C40000
C6C060
8CC0C0
58C1C0
40C180
006300
006600
006600
003C00
003800
003000
003000
003000
007000
006000
006000
ENDCHAR
STARTCHAR 1F5F
ENCODING 8031
SWIDTH 480 0
DWIDTH 12 0
BBX 18 17 -3 0
BITMAP
780000
CC0000
8D80C0
718180
618380
218300
00C600
00CC00
00CC00
007800
007000
006000
006000
006000
00E000
00C000
00C000
ENDCHAR
STARTCHAR 1F60
ENCODING 8032
SWIDTH 480 0
DWIDTH 12 0
BBX 11 17 1 0
BITMAP
00C0
00C0
0080
0300
0000
0820
1860
3060
7060
6060
6660
C660
C660
C660
CE60
FFC0
7380
ENDCHAR
STARTCHAR 1F61
ENCODING 8033
SWIDTH 480 0
DWIDTH 12 0
BBX 11 17 1 0
BITMAP
0180
0180
0100
0080
0000
0820
1860
3060
7060
6060
6660
C660
C660
C660
CE60
FFC0
7380
ENDCHAR
STARTCHAR 1F62
ENCODING 8034
SWIDTH 480 0
DWIDTH 12 0
BBX 12 17 1 0
BITMAP
0760
0360
0620
0C30
0000
0820
1860
3060
7060
6060
6660
C660
C660
C660
CE60
FFC0
7380
ENDCHAR
STARTCHAR 1F63
ENCODING 8035
SWIDTH 480 0
DWIDTH 12 0
BBX 11 17 1 0
BITMAP
0EC0
0CC0
0440
0660
0000
0820
1860
3060
7060
6060
6660
C660
C660
C660
CE60
FFC0
7380
ENDCHAR
STARTCHAR 1F64
ENCODING 8036
SWIDTH 480 0
DWIDTH 12 0
BBX 12 17 1 1
BITMAP
03B0
0330
0360
0640
0000
0820
1860
3060
7060
6060
6660
C660
C660
C660
CE60
FFC0
7380
ENDCHAR
STARTCHAR 1F65
ENCODING 8037
SWIDTH 480 0
DWIDTH 12 0
BBX 12 17 1 1
BITMAP
0630
0660
06C0
0280
0000
0820
1860
3060
7060
6060
6660
C660
C660
C660
CE60
FFC0
7380
ENDCHAR
STARTCHAR 1F66
ENCODING 8038
SWIDTH 480 0
DWIDTH 12 0
BBX 12 20 1 0
BITMAP
00C0
03E0
0230
0080
01C0
0180
0300
0000
0820
1860
3060
7060
6060
6660
C660
C660
C660
CE60
FFC0
7380
ENDCHAR
STARTCHAR 1F67
ENCODING 8039
SWIDTH 480 0
DWIDTH 12 0
BBX 12 20 1 0
BITMAP
00C0
03E0
0230
0080
0180
0180
00C0
0000
0820
1860
3060
7060
6060
6660
C660
C660
C660
CE60
FFC0
7380
ENDCHAR
STARTCHAR 1F68
ENCODING 8040
SWIDTH 480 0
DWIDTH 12 0
BBX 14 16 0 0
BITMAP
20E0
73F0
2638
4C18
981C
181C
3818
3018
3018
3038
3030
3070
3060
18C0
F9F0
F9F0
ENDCHAR
STARTCHAR 1F69
ENCODING 8041
SWIDTH 480 0
DWIDTH 12 0
BBX 14 16 0 0
BITMAP
C0E0
C3F0
8638
4C18
581C
181C
3818
3018
3018
3038
3030
3070
3060
18C0
F9F0
F9F0
ENDCHAR
STARTCHAR 1F6A
ENCODING 8042
SWIDTH 480 0
DWIDTH 12 0
BBX 18 16 -4 0
BITMAP
680E00
6C3F00
6C6380
C6C180
0581C0
0181C0
038180
030180
030180
030380
030300
030700
030600
018C00
0F9F00
0F9F00
ENDCHAR
STARTCHAR 1F6B
ENCODING 8043
SWIDTH 480 0
DWIDTH 12 0
BBX 18 16 -4 0
BITMAP
680E00
EC3F00
CC6380
46C180
0581C0
0181C0
038180
030180
030180
030380
030300
030700
030600
018C00
0F9F00
0F9F00
ENDCHAR
STARTCHAR 1F6C
ENCODING 8044
SWIDTH 480 0
DWIDTH 12 0
BBX 17 16 -3 0
BITMAP
601C00
667E00
6CC700
D98300
830380
030380
070300
060300
060300
060700
060600
060E00
060C00
031800
1F3E00
1F3E00
ENDCHAR
STARTCHAR 1F6D
ENCODING 8045
SWIDTH 480 0
DWIDTH 12 0
BBX 17 16 -3 0
BITMAP
401C00
C67E00
8CC700
598300
430380
030380
070300
060300
060300
060700
060600
060E00
060C00
031800
1F3E00
1F3E00
ENDCHAR
STARTCHAR 1F6E
ENCODING 8046
SWIDTH 480 0
DWIDTH 12 0
BBX 15 17 -1 0
BITMAP
7800
CC70
8DF8
731C
260C
4C0E
0C0E
1C0C
180C
180C
181C
1818
1838
1830
0C60
7CF8
7CF8
ENDCHAR
STARTCHAR 1F6F
ENCODING 8047
SWIDTH 480 0
DWIDTH 12 0
BBX 16 17 -2 0
BITMAP
7C00
4438
C4FC
318E
3306
3607
1607
0E06
0C06
0C06
0C0E
0C0C
0C1C
0C18
0630
3E7C
3E7C
ENDCHAR
STARTCHAR 1F70
ENCODING 8048
SWIDTH 480 0
DWIDTH 12 0
BBX 11 17 2 0
BITMAP
0600
0700
0380
0180
0000
07C0
1FE0
38C0
70C0
60C0
E0C0
C180
C180
C180
C180
F7C0
7EC0
ENDCHAR
STARTCHAR 1F71
ENCODING 8049
SWIDTH 480 0
DWIDTH 12 0
BBX 11 17 2 0
BITMAP
00C0
01C0
0380
0200
0000
07C0
1FE0
38C0
70C0
60C0
E0C0
C180
C180
C180
C180
F7C0
7EC0
ENDCHAR
STARTCHAR 1F72
ENCODING 8050
SWIDTH 480 0
DWIDTH 12 0
BBX 10 17 2 0
BITMAP
0600
0700
0380
0080
0000
07C0
1FC0
3000
3000
3000
3F00
3E00
6000
C000
C000
FF80
7F80
ENDCHAR
STARTCHAR 1F73
ENCODING 8051
SWIDTH 480 0
DWIDTH 12 0
BBX 10 17 2 0
BITMAP
00C0
01C0
0380
0200
0000
07C0
1FC0
3000
3000
3000
3F00
3E00
6000
C000
C000
FF80
7F80
ENDCHAR
STARTCHAR 1F74
ENCODING 8052
SWIDTH 480 0
DWIDTH 12 0
BBX 10 21 2 -4
BITMAP
0600
0700
0380
0180
0000
0F00
3FC0
30C0
30C0
60C0
60C0
60C0
60C0
C180
C180
C180
C180
0300
0300
0300
0300
ENDCHAR
STARTCHAR 1F75
ENCODING 8053
SWIDTH 480 0
DWIDTH 12 0
BBX 10 21 2 -4
BITMAP
00C0
01C0
0300
0200
0000
0F00
3FC0
30C0
30C0
60C0
60C0
60C0
60C0
C180
C180
C180
C180
0300
0300
0300
0300
ENDCHAR
STARTCHAR 1F76
ENCODING 8054
SWIDTH 480 0
DWIDTH 12 0
BBX 8 17 3 0
BITMAP
10
18
0C
06
00
7C
FC
0C
18
18
18
18
30
30
30
1F
1F
ENDCHAR
STARTCHAR 1F77
ENCODING 8055
SWIDTH 480 0
DWIDTH 12 0
BBX 8 17 3 0
BITMAP
02
06
1C
08
00
7C
FC
0C
18
18
18
18
30
30
30
1F
1F
ENDCHAR
STARTCHAR 1F78
ENCODING 8056
SWIDTH 480 0
DWIDTH 12 0
BBX 11 17 2 0
BITMAP
0600
0700
0380
0180
0000
0F80
1FC0
38C0
70E0
6060
C0E0
C0C0
C0C0
C1C0
C180
7F00
7E00
ENDCHAR
STARTCHAR 1F79
ENCODING 8057
SWIDTH 480 0
DWIDTH 12 0
BBX 11 17 2 0
BITMAP
00C0
01C0
0300
0200
0000
0F80
1FC0
38C0
70E0
6060
C0E0
C0C0
C0C0
C1C0
C180
7F00
7E00
ENDCHAR
STARTCHAR 1F7A
ENCODING 8058
SWIDTH 480 0
DWIDTH 12 0
BBX 11 17 2 0
BITMAP
0400
0600
0300
0180
0000
3060
3060
60C0
60C0
60C0
60C0
E1C0
C180
C180
C380
7F00
7E00
ENDCHAR
STARTCHAR 1F7B
ENCODING 8059
SWIDTH 480 0
DWIDTH 12 0
BBX 11 17 2 0
BITMAP
0080
0180
0700
0200
0000
3060
3060
60C0
60C0
60C0
60C0
E1C0
C180
C180
C380
7F00
7E00
ENDCHAR
STARTCHAR 1F7C
ENCODING 8060
SWIDTH 480 0
DWIDTH 12 0
BBX 11 17 1 0
BITMAP
0200
0300
0180
0080
0000
0820
1860
3060
7060
6060
6660
C660
C660
C660
CE60
FFC0
7380
ENDCHAR
STARTCHAR 1F7D
ENCODING 8061
SWIDTH 480 0
DWIDTH 12 0
BBX 11 17 1 0
BITMAP
0060
00E0
0180
0100
0000
0820
1860
3060
7060
6060
6660
C660
C660
C660
CE60
FFC0
7380
ENDCHAR
STARTCHAR 1F80
ENCODING 8064
SWIDTH 480 0
DWIDTH 12 0
BBX 11 21 2 -4
BITMAP
01C0
0180
0180
0200
0000
07C0
1FE0
38C0
70C0
60C0
E0C0
C180
C180
C180
C180
F7C0
7EC0
0000
1800
1800
1C00
ENDCHAR
STARTCHAR 1F81
ENCODING 8065
SWIDTH 480 0
DWIDTH 12 0
BBX 11 21 2 -4
BITMAP
0380
0300
0100
0180
0000
07C0
1FE0
38C0
70C0
60C0
E0C0
C180
C180
C180
C180
F7C0
7EC0
0000
1800
1800
1C00
ENDCHAR
STARTCHAR 1F82
ENCODING 8066
SWIDTH 480 0
DWIDTH 12 0
BBX 11 21 2 -4
BITMAP
06C0
0640
0660
0C20
0000
07C0
1FE0
38C0
70C0
60C0
E0C0
C180
C180
C180
C180
F7C0
7EC0
0000
1800
1800
1C00
ENDCHAR
STARTCHAR 1F83
ENCODING 8067
SWIDTH 480 0
DWIDTH 12 0
BBX 11 21 2 -4
BITMAP
0D80
0C80
0CC0
0440
0000
07C0
1FE0
38C0
70C0
60C0
E0C0
C180
C180
C180
C180
F7C0
7EC0
0000
1800
1800
1C00
ENDCHAR
STARTCHAR 1F84
ENCODING 8068
SWIDTH 480 0
DWIDTH 12 0
BBX 12 21 2 -3
BITMAP
0330
0360
02E0
04C0
0000
07C0
1FE0
38C0
70C0
60C0
E0C0
C180
C180
C180
C180
F7C0
7EC0
0000
1800
1800
1C00
ENDCHAR
STARTCHAR 1F85
ENCODING 8069
SWIDTH 480 0
DWIDTH 12 0
BBX 11 21 2 -3
BITMAP
0E60
0C60
04C0
0780
0000
07C0
1FE0
38C0
70C0
60C0
E0C0
C180
C180
C180
C180
F7C0
7EC0
0000
1800
1800
1C00
ENDCHAR
STARTCHAR 1F86
ENCODING 8070
SWIDTH 480 0
DWIDTH 12 0
BBX 11 24 2 -4
BITMAP
01C0
03E0
0620
0180
0180
0180
0200
0000
07C0
1FE0
38C0
70C0
60C0
E0C0
C180
C180
C180
C180
F7C0
7EC0
0000
1800
1800
1C00
ENDCHAR
STARTCHAR 1F87
ENCODING 8071
SWIDTH 480 0
DWIDTH 12 0
BBX 11 24 2 -4
BITMAP
01C0
03E0
0620
0180
0180
0100
0080
0000
07C0
1FE0
38C0
70C0
60C0
E0C0
C180
C180
C180
C180
F7C0
7EC0
0000
1800
1800
1C00
ENDCHAR
STARTCHAR 1F88
ENCODING 8072
SWIDTH 480 0
DWIDTH 12 0
BBX 13 16 0 0
BITMAP
3000
7700
3700
6F00
0F18
0B18
1B18
1B10
1330
3330
3F30
7F30
6360
6360
C370
C330
ENDCHAR
STARTCHAR 1F89
ENCODING 8073
SWIDTH 480 0
DWIDTH 12 0
BBX 13 16 0 0
BITMAP
6000
E700
C700
4F00
0F18
0B18
1B18
1B10
1330
3330
3F30
7F30
6360
6360
C370
C330
ENDCHAR
STARTCHAR 1F8A
ENCODING 8074
SWIDTH 480 0
DWIDTH 12 0
BBX 17 16 -4 0
BITMAP
640000
6C7000
647000
C6F000
80F180
00B180
01B180
01B100
013300
033300
03F300
07F300
063600
063600
0C3700
0C3300
ENDCHAR
STARTCHAR 1F8B
ENCODING 8075
SWIDTH 480 0
DWIDTH 12 0
BBX 16 16 -3 0
BITMAP
C800
D8E0
88E0
CDE0
41E3
0163
0363
0362
0266
0666
07E6
0FE6
0C6C
0C6C
186E
1866
ENDCHAR
STARTCHAR 1F8C
ENCODING 8076
SWIDTH 480 0
DWIDTH 12 0
BBX 16 16 -3 0
BITMAP
6000
66E0
6CE0
D9E0
81E3
0163
0363
0362
0266
0666
07E6
0FE6
0C6C
0C6C
186E
1866
ENDCHAR
STARTCHAR 1F8D
ENCODING 8077
SWIDTH 480 0
DWIDTH 12 0
BBX 16 16 -3 0
BITMAP
4000
E6E0
CCE0
59E0
01E3
0163
0363
0362
0266
0666
07E6
0FE6
0C6C
0C6C
186E
1866
ENDCHAR
STARTCHAR 1F8E
ENCODING 8078
SWIDTH 480 0
DWIDTH 12 0
BBX 14 17 -1 0
BITMAP
7800
CC00
8F80
7380
2780
678C
058C
0D8C
0D88
0998
1998
1F98
3F98
31B0
31B0
61B8
6198
ENDCHAR
STARTCHAR 1F8F
ENCODING 8079
SWIDTH 480 0
DWIDTH 12 0
BBX 14 17 -1 0
BITMAP
7800
CC00
8F80
7380
6780
278C
058C
0D8C
0D88
0998
1998
1F98
3F98
31B0
31B0
61B8
6198
ENDCHAR
STARTCHAR 1F90
ENCODING 8080
SWIDTH 480 0
DWIDTH 12 0
BBX 11 21 1 -4
BITMAP
00C0
00C0
00C0
0100
0000
0780
1FE0
1860
1860
3060
3060
3060
3060
60C0
60C0
60C0
60C0
0180
C180
C180
6180
ENDCHAR
STARTCHAR 1F91
ENCODING 8081
SWIDTH 480 0
DWIDTH 12 0
BBX 11 21 1 -4
BITMAP
01C0
0180
0180
00C0
0000
0780
1FE0
1860
1860
3060
3060
3060
3060
60C0
60C0
60C0
60C0
0180
C180
C180
6180
ENDCHAR
STARTCHAR 1F92
ENCODING 8082
SWIDTH 480 0
DWIDTH 12 0
BBX 12 21 1 -4
BITMAP
0360
0360
0330
0430
0000
0780
1FE0
1860
1860
3060
3060
3060
3060
60C0
60C0
60C0
60C0
0180
C180
C180
6180
ENDCHAR
STARTCHAR 1F93
ENCODING 8083
SWIDTH 480 0
DWIDTH 12 0
BBX 11 21 1 -4
BITMAP
06C0
0640
0660
0220
0000
0780
1FE0
1860
1860
3060
3060
3060
3060
60C0
60C0
60C0
60C0
0180
C180
C180
6180
ENDCHAR
STARTCHAR 1F94
ENCODING 8084
SWIDTH 480 0
DWIDTH 12 0
BBX 13 21 1 -3
BITMAP
0198
01B0
0160
0260
0000
0780
1FE0
1860
1860
3060
3060
3060
3060
60C0
60C0
60C0
60C0
0180
C180
C180
6180
ENDCHAR
STARTCHAR 1F95
ENCODING 8085
SWIDTH 480 0
DWIDTH 12 0
BBX 12 21 1 -3
BITMAP
0730
0670
0260
03C0
0000
0780
1FE0
1860
1860
3060
3060
3060
3060
60C0
60C0
60C0
60C0
0180
C180
C180
6180
ENDCHAR
STARTCHAR 1F96
ENCODING 8086
SWIDTH 480 0
DWIDTH 12 0
BBX 12 24 1 -4
BITMAP
00E0
01F0
0310
00C0
00C0
0080
0100
0000
0780
1FE0
1860
1860
3060
3060
3060
3060
60C0
60C0
60C0
60C0
0180
C180
C180
6180
ENDCHAR
STARTCHAR 1F97
ENCODING 8087
SWIDTH 480 0
DWIDTH 12 0
BBX 12 24 1 -4
BITMAP
00E0
01F0
0310
00C0
00C0
0080
00C0
0000
0780
1FE0
1860
1860
3060
3060
3060
3060
60C0
60C0
60C0
60C0
0180
C180
C180
6180
ENDCHAR
STARTCHAR 1F98
ENCODING 8088
SWIDTH 480 0
DWIDTH 12 0
BBX 13 16 0 0
BITMAP
6000
6C60
6CC0
D8C0
98D8
18D8
1898
3F90
3FB0
31B0
3130
2330
6360
6360
6270
4630
ENDCHAR
STARTCHAR 1F99
ENCODING 8089
SWIDTH 480 0
DWIDTH 12 0
BBX 13 16 0 0
BITMAP
6000
EC60
CCC0
58C0
18D8
18D8
1898
3F90
3FB0
31B0
3130
2330
6360
6360
6270
4630
ENDCHAR
STARTCHAR 1F9A
ENCODING 8090
SWIDTH 480 0
DWIDTH 12 0
BBX 17 16 -4 0
BITMAP
640000
6CC600
64CC00
C78C00
818D80
018D80
018980
03F900
03FB00
031B00
031300
023300
063600
063600
062700
046300
ENDCHAR
STARTCHAR 1F9B
ENCODING 8091
SWIDTH 480 0
DWIDTH 12 0
BBX 16 16 -3 0
BITMAP
C800
D98C
8998
CF18
431B
031B
0313
07F2
07F6
0636
0626
0466
0C6C
0C6C
0C4E
08C6
ENDCHAR
STARTCHAR 1F9C
ENCODING 8092
SWIDTH 480 0
DWIDTH 12 0
BBX 17 16 -4 0
BITMAP
220000
77C600
2ECC00
4D8C00
898D80
018D80
018980
03F900
03FB00
031B00
031300
023300
063600
063600
062700
046300
ENDCHAR
STARTCHAR 1F9D
ENCODING 8093
SWIDTH 480 0
DWIDTH 12 0
BBX 17 16 -4 0
BITMAP
620000
E6C600
4ECC00
4D8C00
098D80
018D80
018980
03F900
03FB00
031B00
031300
023300
063600
063600
062700
046300
ENDCHAR
STARTCHAR 1F9E
ENCODING 8094
SWIDTH 480 0
DWIDTH 12 0
BBX 15 17 -2 0
BITMAP
7800
CC00
8F18
7330
2630
4636
0636
0626
0FE4
0FEC
0C6C
0C4C
08CC
18D8
18D8
189C
118C
ENDCHAR
STARTCHAR 1F9F
ENCODING 8095
SWIDTH 480 0
DWIDTH 12 0
BBX 15 17 -2 0
BITMAP
7800
CC00
8F18
6330
6630
2636
0636
0626
0FE4
0FEC
0C6C
0C4C
08CC
18D8
18D8
189C
118C
ENDCHAR
STARTCHAR 1FA0
ENCODING 8096
SWIDTH 480 0
DWIDTH 12 0
BBX 11 21 1 -4
BITMAP
00C0
00C0
0080
0300
0000
0820
1860
3060
7060
6060
6660
C660
C660
C660
CE60
FFC0
7B80
0000
0800
0C00
0E00
ENDCHAR
STARTCHAR 1FA1
ENCODING 8097
SWIDTH 480 0
DWIDTH 12 0
BBX 11 21 1 -4
BITMAP
0180
0180
0100
0080
0000
0820
1860
3060
7060
6060
6660
C660
C660
C660
CE60
FFC0
7B80
0000
0800
0C00
0E00
ENDCHAR
STARTCHAR 1FA2
ENCODING 8098
SWIDTH 480 0
DWIDTH 12 0
BBX 12 21 1 -4
BITMAP
0760
0360
0620
0C30
0000
0820
1860
3060
7060
6060
6660
C660
C660
C660
CE60
FFC0
7B80
0000
0800
0C00
0E00
ENDCHAR
STARTCHAR 1FA3
ENCODING 8099
SWIDTH 480 0
DWIDTH 12 0
BBX 11 21 1 -4
BITMAP
0EC0
0CC0
0440
0660
0000
0820
1860
3060
7060
6060
6660
C660
C660
C660
CE60
FFC0
7B80
0000
0800
0C00
0E00
ENDCHAR
STARTCHAR 1FA4
ENCODING 8100
SWIDTH 480 0
DWIDTH 12 0
BBX 12 21 1 -3
BITMAP
03B0
0330
0360
0640
0000
0820
1860
3060
7060
6060
6660
C660
C660
C660
CE60
FFC0
7B80
0000
0800
0C00
0E00
ENDCHAR
STARTCHAR 1FA5
ENCODING 8101
SWIDTH 480 0
DWIDTH 12 0
BBX 12 21 1 -3
BITMAP
0630
0660
06C0
0280
0000
0820
1860
3060
7060
6060
6660
C660
C660
C660
CE60
FFC0
7B80
0000
0800
0C00
0E00
ENDCHAR
STARTCHAR 1FA6
ENCODING 8102
SWIDTH 480 0
DWIDTH 12 0
BBX 12 24 1 -4
BITMAP
00C0
03E0
0230
0080
01C0
0180
0300
0000
0820
1860
3060
7060
6060
6660
C660
C660
C660
CE60
FFC0
7B80
0000
0800
0C00
0E00
ENDCHAR
STARTCHAR 1FA7
ENCODING 8103
SWIDTH 480 0
DWIDTH 12 0
BBX 12 24 1 -4
BITMAP
00C0
03E0
0230
0080
0180
0180
00C0
0000
0820
1860
3060
7060
6060
6660
C660
C660
C660
CE60
FFC0
7B80
0000
0800
0C00
0E00
ENDCHAR
STARTCHAR 1FA8
ENCODING 8104
SWIDTH 480 0
DWIDTH 12 0
BBX 13 16 0 0
BITMAP
4300
E780
4CC0
98C0
10D8
30D8
3098
3190
21B0
21B0
6330
6330
6260
2660
EF70
EE30
ENDCHAR
STARTCHAR 1FA9
ENCODING 8105
SWIDTH 480 0
DWIDTH 12 0
BBX 14 16 -1 0
BITMAP
4180
E3C0
C660
4C60
086C
186C
184C
18C8
10D8
10D8
3198
3198
3130
1330
77B8
7718
ENDCHAR
STARTCHAR 1FAA
ENCODING 8106
SWIDTH 480 0
DWIDTH 12 0
BBX 18 16 -5 0
BITMAP
601800
6C3C00
6C6600
C6C600
8486C0
0186C0
0184C0
018C80
010D80
010D80
031980
031980
031300
013300
077B80
077180
ENDCHAR
STARTCHAR 1FAB
ENCODING 8107
SWIDTH 480 0
DWIDTH 12 0
BBX 18 16 -5 0
BITMAP
681800
EC3C00
4C6600
46C600
0486C0
0186C0
0184C0
018C80
010D80
010D80
031980
031980
031300
013300
077B80
077180
ENDCHAR
STARTCHAR 1FAC
ENCODING 8108
SWIDTH 480 0
DWIDTH 12 0
BBX 17 16 -4 0
BITMAP
603000
667800
6CCC00
D98C00
810D80
030D80
030980
031900
021B00
021B00
063300
063300
062600
026600
0EF700
0EE300
ENDCHAR
STARTCHAR 1FAD
ENCODING 8109
SWIDTH 480 0
DWIDTH 12 0
BBX 17 16 -4 0
BITMAP
403000
E67800
CCCC00
598C00
010D80
030D80
030980
031900
021B00
021B00
063300
063300
062600
026600
0EF700
0EE300
ENDCHAR
STARTCHAR 1FAE
ENCODING 8110
SWIDTH 480 0
DWIDTH 12 0
BBX 15 17 -2 0
BITMAP
7800
CCC0
8DE0
7330
2630
6436
0C36
0C26
0C64
086C
086C
18CC
18CC
1898
0998
3BDC
3B8C
ENDCHAR
STARTCHAR 1FAF
ENCODING 8111
SWIDTH 480 0
DWIDTH 12 0
BBX 15 17 -2 0
BITMAP
7800
CCC0
8DE0
7330
6630
2436
0C36
0C26
0C64
086C
086C
18CC
18CC
1898
0998
3BDC
3B8C
ENDCHAR
STARTCHAR 1FB0
ENCODING 8112
SWIDTH 480 0
DWIDTH 12 0
BBX 11 17 2 0
BITMAP
0420
0660
03C0
0000
0000
07C0
1FE0
38C0
70C0
60C0
E0C0
C180
C180
C180
C180
F7C0
7EC0
ENDCHAR
STARTCHAR 1FB1
ENCODING 8113
SWIDTH 480 0
DWIDTH 12 0
BBX 11 16 2 0
BITMAP
07E0
0FE0
0000
0000
07C0
1FE0
38C0
70C0
60C0
E0C0
C180
C180
C180
C180
F7C0
7EC0
ENDCHAR
STARTCHAR 1FB2
ENCODING 8114
SWIDTH 480 0
DWIDTH 12 0
BBX 11 21 2 -4
BITMAP
0600
0700
0380
0180
0000
07C0
1FE0
38C0
70C0
60C0
E0C0
C180
C180
C180
C180
F7C0
7EC0
0000
1800
1800
1C00
ENDCHAR
STARTCHAR 1FB3
ENCODING 8115
SWIDTH 480 0
DWIDTH 12 0
BBX 11 16 2 -4
BITMAP
07C0
1FE0
38C0
70C0
60C0
E0C0
C180
C180
C180
C180
F7C0
7EC0
0000
1800
1800
1C00
ENDCHAR
STARTCHAR 1FB4
ENCODING 8116
SWIDTH 480 0
DWIDTH 12 0
BBX 11 21 2 -4
BITMAP
00C0
01C0
0380
0200
0000
07C0
1FE0
38C0
70C0
60C0
E0C0
C180
C180
C180
C180
F7C0
7EC0
0000
1800
1800
1C00
ENDCHAR
STARTCHAR 1FB6
ENCODING 8118
SWIDTH 480 0
DWIDTH 12 0
BBX 11 17 2 0
BITMAP
0380
07C0
0440
0000
0000
07C0
1FE0
38C0
70C0
60C0
E0C0
C180
C180
C180
C180
F7C0
7EC0
ENDCHAR
STARTCHAR 1FB7
ENCODING 8119
SWIDTH 480 0
DWIDTH 12 0
BBX 11 21 2 -4
BITMAP
0380
07C0
0440
0000
0000
07C0
1FE0
38C0
70C0
60C0
E0C0
C180
C180
C180
C180
F7C0
7EC0
0000
1800
1800
1C00
ENDCHAR
STARTCHAR 1FB8
ENCODING 8120
SWIDTH 480 0
DWIDTH 12 0
BBX 13 20 0 0
BITMAP
0188
00F8
00F0
0000
0000
00E0
01E0
0360
0360
0660
0660
0C60
0860
1860
3FF0
3FF0
6030
6030
C030
C030
ENDCHAR
STARTCHAR 1FB9
ENCODING 8121
SWIDTH 480 0
DWIDTH 12 0
BBX 13 19 0 0
BITMAP
01F8
0000
0000
0000
00E0
01E0
0360
0360
0660
0660
0C60
0860
1860
3FF0
3FF0
6030
6030
C030
C030
ENDCHAR
STARTCHAR 1FBA
ENCODING 8122
SWIDTH 480 0
DWIDTH 12 0
BBX 12 15 0 1
BITMAP
60E0
71E0
1B60
0360
0660
0660
0C60
0C30
1830
1FF0
3FF0
3030
6030
E030
C030
ENDCHAR
STARTCHAR 1FBB
ENCODING 8123
SWIDTH 480 0
DWIDTH 12 0
BBX 12 16 0 0
BITMAP
0400
0CE0
1DE0
3160
0360
0660
0660
0C30
0C30
1830
1FF0
3FF0
3030
6030
6030
C030
ENDCHAR
STARTCHAR 1FBC
ENCODING 8124
SWIDTH 480 0
DWIDTH 12 0
BBX 13 15 0 0
BITMAP
0700
0700
0F00
0F18
0B18
1B18
1B10
1330
3330
3F30
7F30
6360
6360
C370
C330
ENDCHAR
STARTCHAR 1FBD
ENCODING 8125
SWIDTH 480 0
DWIDTH 12 0
BBX 3 4 7 13
BITMAP
60
60
40
80
ENDCHAR
STARTCHAR 1FBE
ENCODING 8126
SWIDTH 480 0
DWIDTH 12 0
BBX 3 3 5 -4
BITMAP
80
C0
E0
ENDCHAR
STARTCHAR 1FBF
ENCODING 8127
SWIDTH 480 0
DWIDTH 12 0
BBX 3 4 7 13
BITMAP
60
60
40
80
ENDCHAR
STARTCHAR 1FC0
ENCODING 8128
SWIDTH 480 0
DWIDTH 12 0
BBX 5 3 7 14
BITMAP
70
F8
88
ENDCHAR
STARTCHAR 1FC1
ENCODING 8129
SWIDTH 480 0
DWIDTH 12 0
BBX 7 6 6 13
BITMAP
3C
66
00
44
CE
C4
ENDCHAR
STARTCHAR 1FC2
ENCODING 8130
SWIDTH 480 0
DWIDTH 12 0
BBX 11 21 1 -4
BITMAP
0300
0380
01C0
00C0
0000
0780
1FE0
1860
1860
3060
3060
3060
3060
60C0
60C0
60C0
60C0
0180
C180
C180
6180
ENDCHAR
STARTCHAR 1FC3
ENCODING 8131
SWIDTH 480 0
DWIDTH 12 0
BBX 11 16 1 -4
BITMAP
0780
1FE0
1860
1860
3060
3060
3060
3060
60C0
60C0
60C0
60C0
0180
C180
C180
6180
ENDCHAR
STARTCHAR 1FC4
ENCODING 8132
SWIDTH 480 0
DWIDTH 12 0
BBX 11 21 1 -4
BITMAP
0060
00E0
01C0
0100
0000
0780
1FE0
1860
1860
3060
3060
3060
3060
60C0
60C0
60C0
60C0
0180
C180
C180
6180
ENDCHAR
STARTCHAR 1FC6
ENCODING 8134
SWIDTH 480 0
DWIDTH 12 0
BBX 10 21 2 -4
BITMAP
0380
07C0
0C40
0000
0000
0F00
3FC0
30C0
30C0
60C0
60C0
60C0
60C0
C180
C180
C180
C180
0300
0300
0300
0300
ENDCHAR
STARTCHAR 1FC7
ENCODING 8135
SWIDTH 480 0
DWIDTH 12 0
BBX 11 21 1 -4
BITMAP
01C0
03E0
0620
0000
0000
0780
1FE0
1860
1860
3060
3060
3060
3060
60C0
60C0
60C0
60C0
0180
C180
C180
6180
ENDCHAR
STARTCHAR 1FC8
ENCODING 8136
SWIDTH 480 0
DWIDTH 12 0
BBX 15 16 -1 0
BITMAP
4000
E3FE
7300
3B00
0300
0600
0600
07F8
07F0
0C00
0C00
0C00
0C00
1800
1FF0
1FF0
ENDCHAR
STARTCHAR 1FC9
ENCODING 8137
SWIDTH 480 0
DWIDTH 12 0
BBX 14 16 0 0
BITMAP
1000
37FC
6600
C600
8600
0C00
0C00
0FF0
0FE0
1800
1800
1800
1800
3000
3FE0
3FE0
ENDCHAR
STARTCHAR 1FCA
ENCODING 8138
SWIDTH 480 0
DWIDTH 12 0
BBX 15 16 -1 0
BITMAP
8000
C606
E606
3606
060C
0C0C
0C0C
0FFC
0FFC
1C18
1818
1818
1838
3830
3030
3030
ENDCHAR
STARTCHAR 1FCB
ENCODING 8139
SWIDTH 480 0
DWIDTH 12 0
BBX 15 16 -1 0
BITMAP
1000
3606
7606
C606
860C
0C0C
0C0C
0FFC
0FFC
1C18
1818
1818
1838
3830
3030
3030
ENDCHAR
STARTCHAR 1FCC
ENCODING 8140
SWIDTH 480 0
DWIDTH 12 0
BBX 12 15 1 0
BITMAP
18C0
1980
3180
31B0
31B0
3130
7F20
7F60
6360
6260
4660
C6C0
C6C0
C4E0
8C60
ENDCHAR
STARTCHAR 1FCD
ENCODING 8141
SWIDTH 480 0
DWIDTH 12 0
BBX 7 4 5 13
BITMAP
6C
66
66
C2
ENDCHAR
STARTCHAR 1FCE
ENCODING 8142
SWIDTH 480 0
DWIDTH 12 0
BBX 7 4 6 14
BITMAP
66
6E
4C
98
ENDCHAR
STARTCHAR 1FCF
ENCODING 8143
SWIDTH 480 0
DWIDTH 12 0
BBX 6 7 7 13
BITMAP
30
F8
8C
20
70
60
C0
ENDCHAR
STARTCHAR 1FD0
ENCODING 8144
SWIDTH 480 0
DWIDTH 12 0
BBX 8 17 3 0
BITMAP
23
22
3E
00
00
7C
FC
0C
18
18
18
18
30
30
30
1F
1F
ENDCHAR
STARTCHAR 1FD1
ENCODING 8145
SWIDTH 480 0
DWIDTH 12 0
BBX 8 16 3 0
BITMAP
3F
3F
00
00
7C
FC
0C
18
18
18
18
30
30
30
1F
1F
ENDCHAR
STARTCHAR 1FD2
ENCODING 8146
SWIDTH 480 0
DWIDTH 12 0
BBX 10 17 3 0
BITMAP
0C00
6DC0
6580
0600
0000
7C00
FC00
0C00
1800
1800
1800
1800
3000
3000
3000
1F00
1F00
ENDCHAR
STARTCHAR 1FD3
ENCODING 8147
SWIDTH 480 0
DWIDTH 12 0
BBX 10 17 3 0
BITMAP
0600
6DC0
6D80
1800
0000
7C00
FC00
0C00
1800
1800
1800
1800
3000
3000
3000
1F00
1F00
ENDCHAR
STARTCHAR 1FD6
ENCODING 8150
SWIDTH 480 0
DWIDTH 12 0
BBX 8 17 3 0
BITMAP
0E
1F
33
00
00
7C
FC
0C
18
18
18
18
30
30
30
1F
1F
ENDCHAR
STARTCHAR 1FD7
ENCODING 8151
SWIDTH 480 0
DWIDTH 12 0
BBX 9 19 3 0
BITMAP
0F00
1980
0000
0100
3300
3300
0000
7C00
FC00
0C00
1800
1800
1800
1800
3000
3000
3000
1F00
1F00
ENDCHAR
STARTCHAR 1FD8
ENCODING 8152
SWIDTH 480 0
DWIDTH 12 0
BBX 11 20 2 0
BITMAP
0620
03E0
03C0
0000
0000
1FE0
0300
0300
0300
0600
0600
0600
0600
0C00
0C00
0C00
0C00
1800
FF00
FF00
ENDCHAR
STARTCHAR 1FD9
ENCODING 8153
SWIDTH 480 0
DWIDTH 12 0
BBX 11 19 2 0
BITMAP
07E0
0000
0000
0000
1FE0
0300
0300
0300
0600
0600
0600
0600
0C00
0C00
0C00
0C00
1800
FF00
FF00
ENDCHAR
STARTCHAR 1FDA
ENCODING 8154
SWIDTH 480 0
DWIDTH 12 0
BBX 14 16 -1 0
BITMAP
4000
E3FC
7060
3860
0060
00C0
00C0
00C0
00C0
0180
0180
0180
0180
0300
1FE0
1FE0
ENDCHAR
STARTCHAR 1FDB
ENCODING 8155
SWIDTH 480 0
DWIDTH 12 0
BBX 13 16 0 0
BITMAP
1000
37F8
60C0
C0C0
80C0
0180
0180
0180
0180
0300
0300
0300
0300
0600
3FC0
3FC0
ENDCHAR
STARTCHAR 1FDD
ENCODING 8157
SWIDTH 480 0
DWIDTH 12 0
BBX 7 4 6 13
BITMAP
F8
CC
4C
66
ENDCHAR
STARTCHAR 1FDE
ENCODING 8158
SWIDTH 480 0
DWIDTH 12 0
BBX 7 4 6 14
BITMAP
C6
CC
D8
58
ENDCHAR
STARTCHAR 1FDF
ENCODING 8159
SWIDTH 480 0
DWIDTH 12 0
BBX 6 7 7 13
BITMAP
30
F8
8C
20
60
60
30
ENDCHAR
STARTCHAR 1FE0
ENCODING 8160
SWIDTH 480 0
DWIDTH 12 0
BBX 11 17 2 0
BITMAP
0460
0440
07C0
0000
0000
3060
3060
60C0
60C0
60C0
60C0
E1C0
C180
C180
C380
7F00
7E00
ENDCHAR
STARTCHAR 1FE1
ENCODING 8161
SWIDTH 480 0
DWIDTH 12 0
BBX 11 16 2 0
BITMAP
0FE0
0FC0
0000
0000
3060
3060
60C0
60C0
60C0
60C0
E1C0
C180
C180
C380
7F00
7E00
ENDCHAR
STARTCHAR 1FE2
ENCODING 8162
SWIDTH 480 0
DWIDTH 12 0
BBX 12 17 2 0
BITMAP
0300
1B70
1960
0180
0000
3060
3060
60C0
60C0
60C0
60C0
E1C0
C180
C180
C380
7F00
7E00
ENDCHAR
STARTCHAR 1FE3
ENCODING 8163
SWIDTH 480 0
DWIDTH 12 0
BBX 12 17 2 0
BITMAP
0180
1970
1B60
0600
0000
3060
3060
60C0
60C0
60C0
60C0
E1C0
C180
C180
C380
7F00
7E00
ENDCHAR
STARTCHAR 1FE4
ENCODING 8164
SWIDTH 480 0
DWIDTH 12 0
BBX 12 21 1 -4
BITMAP
00C0
00C0
0080
0100
0000
0380
0FE0
1C60
1870
3030
3070
3060
3060
60E0
60C0
7F80
7F00
C000
C000
C000
C000
ENDCHAR
STARTCHAR 1FE5
ENCODING 8165
SWIDTH 480 0
DWIDTH 12 0
BBX 12 21 1 -4
BITMAP
01C0
0180
0180
00C0
0000
0380
0FE0
1C60
1870
3030
3070
3060
3060
60E0
60C0
7F80
7F00
C000
C000
C000
C000
ENDCHAR
STARTCHAR 1FE6
ENCODING 8166
SWIDTH 480 0
DWIDTH 12 0
BBX 11 17 2 0
BITMAP
0380
07C0
0CC0
0000
0000
3060
3060
60C0
60C0
60C0
60C0
E1C0
C180
C180
C380
7F00
7E00
ENDCHAR
STARTCHAR 1FE7
ENCODING 8167
SWIDTH 480 0
DWIDTH 12 0
BBX 11 19 2 0
BITMAP
03C0
0660
0000
0040
0CE0
0CC0
0000
3060
3060
60C0
60C0
60C0
60C0
E1C0
C180
C180
C380
7F00
7E00
ENDCHAR
STARTCHAR 1FE8
ENCODING 8168
SWIDTH 480 0
DWIDTH 12 0
BBX 11 20 4 0
BITMAP
1880
0F80
0F00
0000
0000
C060
C0C0
C1C0
C180
6300
6600
6600
3C00
3800
3000
3000
3000
7000
6000
6000
ENDCHAR
STARTCHAR 1FE9
ENCODING 8169
SWIDTH 480 0
DWIDTH 12 0
BBX 11 19 4 0
BITMAP
1F80
0000
0000
0000
C060
C0C0
C1C0
C180
6300
6600
6600
3C00
3800
3000
3000
3000
7000
6000
6000
ENDCHAR
STARTCHAR 1FEA
ENCODING 8170
SWIDTH 480 0
DWIDTH 12 0
BBX 16 15 -1 1
BITMAP
C603
6606
360E
160C
0318
0330
0330
01E0
01C0
0180
0180
0180
0380
0300
0300
ENDCHAR
STARTCHAR 1FEB
ENCODING 8171
SWIDTH 480 0
DWIDTH 12 0
BBX 17 16 -2 0
BITMAP
100000
3B0180
730300
C30700
030600
018C00
019800
019800
00F000
00E000
00C000
00C000
00C000
01C000
018000
018000
ENDCHAR
STARTCHAR 1FEC
ENCODING 8172
SWIDTH 480 0
DWIDTH 12 0
BBX 13 16 1 0
BITMAP
C380
CFE0
8C70
D830
5838
1830
1830
3070
3FE0
3F80
3000
6000
6000
6000
6000
E000
ENDCHAR
STARTCHAR 1FED
ENCODING 8173
SWIDTH 480 0
DWIDTH 12 0
BBX 9 4 5 13
BITMAP
1800
DB80
CB00
0C00
ENDCHAR
STARTCHAR 1FEE
ENCODING 8174
SWIDTH 480 0
DWIDTH 12 0
BBX 9 4 5 13
BITMAP
0C00
DB80
DB00
3000
ENDCHAR
STARTCHAR 1FEF
ENCODING 8175
SWIDTH 480 0
DWIDTH 12 0
BBX 4 4 7 13
BITMAP
C0
E0
70
30
ENDCHAR
STARTCHAR 1FF2
ENCODING 8178
SWIDTH 480 0
DWIDTH 12 0
BBX 11 21 1 -4
BITMAP
0200
0300
0180
00C0
0000
0820
1860
3060
7060
6060
6660
C660
C660
C660
CE60
FFC0
7B80
0000
0800
0C00
0E00
ENDCHAR
STARTCHAR 1FF3
ENCODING 8179
SWIDTH 480 0
DWIDTH 12 0
BBX 11 16 1 -4
BITMAP
0820
1860
3060
7060
6060
6660
C660
C660
C660
CE60
FFC0
7B80
0000
0800
0C00
0E00
ENDCHAR
STARTCHAR 1FF4
ENCODING 8180
SWIDTH 480 0
DWIDTH 12 0
BBX 11 21 1 -4
BITMAP
0040
00C0
0380
0300
0000
0820
1860
3060
7060
6060
6660
C660
C660
C660
CE60
FFC0
7B80
0000
0800
0C00
0E00
ENDCHAR
STARTCHAR 1FF6
ENCODING 8182
SWIDTH 480 0
DWIDTH 12 0
BBX 11 17 1 0
BITMAP
01C0
03E0
0660
0000
0000
0820
1860
3060
7060
6060
6660
C660
C660
C660
CE60
FFC0
7380
ENDCHAR
STARTCHAR 1FF7
ENCODING 8183
SWIDTH 480 0
DWIDTH 12 0
BBX 11 21 1 -4
BITMAP
01C0
03E0
0660
0000
0000
0820
1860
3060
7060
6060
6660
C660
C660
C660
CE60
FFC0
7B80
0000
0800
0C00
0E00
ENDCHAR
STARTCHAR 1FF8
ENCODING 8184
SWIDTH 480 0
DWIDTH 12 0
BBX 15 16 -2 0
BITMAP
4078
E0FC
718E
3B06
0706
0606
0606
0C06
0C06
0C06
0C0C
0C0C
0C18
0C38
0FF0
07E0
ENDCHAR
STARTCHAR 1FF9
ENCODING 8185
SWIDTH 480 0
DWIDTH 12 0
BBX 13 16 0 0
BITMAP
11E0
33F0
6638
CC18
9C18
1818
1818
3018
3018
3018
3030
3030
3060
30E0
3FC0
1F80
ENDCHAR
STARTCHAR 1FFA
ENCODING 8186
SWIDTH 480 0
DWIDTH 12 0
BBX 16 16 -2 0
BITMAP
4038
E0FC
618E
3306
1607
0607
0E06
0C06
0C06
0C0E
0C0C
0C1C
0C18
0630
3E7C
3E7C
ENDCHAR
STARTCHAR 1FFB
ENCODING 8187
SWIDTH 480 0
DWIDTH 12 0
BBX 15 16 -1 0
BITMAP
0070
39F8
731C
E60C
0C0E
0C0E
1C0C
180C
180C
181C
1818
1838
1830
0C60
7CF8
7CF8
ENDCHAR
STARTCHAR 1FFC
ENCODING 8188
SWIDTH 480 0
DWIDTH 12 0
BBX 13 16 0 0
BITMAP
0300
0780
0CC0
18C0
10D8
30D8
3098
3190
21B0
21B0
6330
6330
6260
2660
EF70
EE30
ENDCHAR
STARTCHAR 1FFD
ENCODING 8189
SWIDTH 480 0
DWIDTH 12 0
BBX 4 4 7 13
BITMAP
10
70
E0
C0
ENDCHAR
STARTCHAR 1FFE
ENCODING 8190
SWIDTH 480 0
DWIDTH 12 0
BBX 3 4 8 13
BITMAP
E0
C0
40
60
ENDCHAR
STARTCHAR 2013
ENCODING 8211
SWIDTH 480 0
DWIDTH 12 0
BBX 9 2 3 6
BITMAP
FF80
FF80
ENDCHAR
STARTCHAR 2014
ENCODING 8212
SWIDTH 480 0
DWIDTH 12 0
BBX 13 2 1 6
BITMAP
FFF8
FFF8
ENDCHAR
STARTCHAR 2015
ENCODING 8213
SWIDTH 480 0
DWIDTH 12 0
BBX 13 2 1 6
BITMAP
FFF8
FFF8
ENDCHAR
STARTCHAR 2018
ENCODING 8216
SWIDTH 480 0
DWIDTH 12 0
BBX 5 7 7 11
BITMAP
08
38
60
C0
E0
E0
E0
ENDCHAR
STARTCHAR 2019
ENCODING 8217
SWIDTH 480 0
DWIDTH 12 0
BBX 5 7 6 11
BITMAP
10
38
38
38
18
70
E0
ENDCHAR
STARTCHAR 201A
ENCODING 8218
SWIDTH 480 0
DWIDTH 12 0
BBX 5 7 3 -4
BITMAP
38
78
38
18
70
E0
80
ENDCHAR
STARTCHAR 201C
ENCODING 8220
SWIDTH 480 0
DWIDTH 12 0
BBX 10 6 4 11
BITMAP
30C0
6180
C300
E380
E380
E380
ENDCHAR
STARTCHAR 201D
ENCODING 8221
SWIDTH 480 0
DWIDTH 12 0
BBX 10 6 4 11
BITMAP
71C0
71C0
71C0
30C0
E380
C200
ENDCHAR
STARTCHAR 201E
ENCODING 8222
SWIDTH 480 0
DWIDTH 12 0
BBX 10 6 1 -3
BITMAP
71C0
71C0
71C0
30C0
6180
C300
ENDCHAR
STARTCHAR 2020
ENCODING 8224
SWIDTH 480 0
DWIDTH 12 0
BBX 9 18 4 -3
BITMAP
0C00
0C00
0C00
0800
FF80
FF00
1800
1000
3000
3000
3000
2000
6000
6000
6000
4000
4000
4000
ENDCHAR
STARTCHAR 2021
ENCODING 8225
SWIDTH 480 0
DWIDTH 12 0
BBX 11 18 2 -3
BITMAP
0300
0300
0300
0200
3FE0
3FC0
0600
0400
0C00
0C00
FF80
FF80
1800
1800
1800
1000
1000
1000
ENDCHAR
STARTCHAR 2022
ENCODING 8226
SWIDTH 480 0
DWIDTH 12 0
BBX 7 7 4 4
BITMAP
38
7C
FE
FE
FE
FE
7C
ENDCHAR
STARTCHAR 2026
ENCODING 8230
SWIDTH 480 0
DWIDTH 12 0
BBX 11 2 1 0
BITMAP
CCE0
CCC0
ENDCHAR
STARTCHAR 2030
ENCODING 8240
SWIDTH 480 0
DWIDTH 12 0
BBX 13 16 2 0
BITMAP
1800
2800
6808
4838
5860
5180
7700
1C00
3000
C840
9DE0
2D60
2D60
6F40
6B40
3180
ENDCHAR
STARTCHAR 2039
ENCODING 8249
SWIDTH 480 0
DWIDTH 12 0
BBX 5 9 5 1
BITMAP
18
38
30
60
C0
C0
60
60
20
ENDCHAR
STARTCHAR 203A
ENCODING 8250
SWIDTH 480 0
DWIDTH 12 0
BBX 6 9 4 1
BITMAP
30
30
18
18
0C
18
30
60
C0
ENDCHAR
STARTCHAR 2044
ENCODING 8260
SWIDTH 480 0
DWIDTH 12 0
BBX 13 15 1 0
BITMAP
0018
0030
0060
0040
00C0
0180
0300
0600
0600
0C00
1800
3000
6000
6000
C000
ENDCHAR
STARTCHAR 2070
ENCODING 8304
SWIDTH 480 0
DWIDTH 12 0
BBX 7 9 5 7
BITMAP
1C
3E
66
C6
D6
D6
C4
CC
78
ENDCHAR
STARTCHAR 2074
ENCODING 8308
SWIDTH 480 0
DWIDTH 12 0
BBX 7 9 4 7
BITMAP
02
0E
1E
36
64
44
FE
0C
08
ENDCHAR
STARTCHAR 2075
ENCODING 8309
SWIDTH 480 0
DWIDTH 12 0
BBX 8 9 4 7
BITMAP
1F
1F
10
30
3C
06
06
06
FC
ENDCHAR
STARTCHAR 2076
ENCODING 8310
SWIDTH 480 0
DWIDTH 12 0
BBX 7 9 5 7
BITMAP
02
1E
60
40
FC
C4
84
CC
78
ENDCHAR
STARTCHAR 2077
ENCODING 8311
SWIDTH 480 0
DWIDTH 12 0
BBX 7 9 6 7
BITMAP
FE
FC
08
18
30
60
40
C0
80
ENDCHAR
STARTCHAR 2078
ENCODING 8312
SWIDTH 480 0
DWIDTH 12 0
BBX 7 9 5 7
BITMAP
1C
36
62
66
3C
4C
C4
CC
78
ENDCHAR
STARTCHAR 2079
ENCODING 8313
SWIDTH 480 0
DWIDTH 12 0
BBX 7 9 5 7
BITMAP
38
7C
C6
C6
FC
7C
0C
78
E0
ENDCHAR
STARTCHAR 2080
ENCODING 8320
SWIDTH 480 0
DWIDTH 12 0
BBX 7 9 4 0
BITMAP
38
7C
C6
C6
B6
84
8C
D8
F0
ENDCHAR
STARTCHAR 2081
ENCODING 8321
SWIDTH 480 0
DWIDTH 12 0
BBX 6 9 3 0
BITMAP
04
1C
3C
08
18
18
18
10
FC
ENDCHAR
STARTCHAR 2082
ENCODING 8322
SWIDTH 480 0
DWIDTH 12 0
BBX 6 9 4 0
BITMAP
38
7C
04
0C
18
30
E0
80
F8
ENDCHAR
STARTCHAR 2083
ENCODING 8323
SWIDTH 480 0
DWIDTH 12 0
BBX 7 9 3 0
BITMAP
1C
3E
02
06
1C
06
06
0C
F8
ENDCHAR
STARTCHAR 2084
ENCODING 8324
SWIDTH 480 0
DWIDTH 12 0
BBX 7 9 3 0
BITMAP
06
0E
1E
34
64
CC
FE
08
08
ENDCHAR
STARTCHAR 2085
ENCODING 8325
SWIDTH 480 0
DWIDTH 12 0
BBX 7 9 3 0
BITMAP
1E
3E
20
20
7C
0C
04
8C
F8
ENDCHAR
STARTCHAR 2086
ENCODING 8326
SWIDTH 480 0
DWIDTH 12 0
BBX 7 9 3 0
BITMAP
02
1E
30
60
FC
C6
C4
CC
78
ENDCHAR
STARTCHAR 2087
ENCODING 8327
SWIDTH 480 0
DWIDTH 12 0
BBX 7 9 4 0
BITMAP
7E
7E
0C
18
30
20
60
40
C0
ENDCHAR
STARTCHAR 2088
ENCODING 8328
SWIDTH 480 0
DWIDTH 12 0
BBX 7 9 4 0
BITMAP
3C
7E
46
64
78
CC
8C
8C
F8
ENDCHAR
STARTCHAR 2089
ENCODING 8329
SWIDTH 480 0
DWIDTH 12 0
BBX 7 9 4 0
BITMAP
3C
7C
46
C6
7E
74
0C
78
E0
ENDCHAR
STARTCHAR 20AC
ENCODING 8364
SWIDTH 480 0
DWIDTH 12 0
BBX 12 16 2 0
BITMAP
00F0
03F0
0E00
0C00
1800
7FC0
FFC0
3000
3000
FF00
FF00
7000
3000
3000
3FC0
1FC0
ENDCHAR
STARTCHAR 20AE
ENCODING 8366
SWIDTH 480 0
DWIDTH 12 0
BBX 13 15 2 0
BITMAP
3FF8
0300
0300
0600
06C0
0780
1E00
7E00
0D80
0F80
3C00
FC00
1800
1800
1800
ENDCHAR
STARTCHAR 20B4
ENCODING 8372
SWIDTH 480 0
DWIDTH 12 0
BBX 11 16 2 0
BITMAP
0780
1FC0
10E0
0060
00E0
00C0
7FE0
0700
1E00
FFC0
FFC0
6000
C000
C000
7380
7F80
ENDCHAR
STARTCHAR 20B9
ENCODING 8377
SWIDTH 480 0
DWIDTH 12 0
BBX 12 15 3 0
BITMAP
7FF0
0700
0180
7FC0
7FC0
0300
0700
FE00
F000
C000
6000
7000
3000
1800
1800
ENDCHAR
STARTCHAR 2113
ENCODING 8467
SWIDTH 480 0
DWIDTH 12 0
BBX 8 17 3 0
BITMAP
1E
3B
33
31
73
73
73
76
74
7C
78
70
F0
F0
30
3F
1F
ENDCHAR
STARTCHAR 2116
ENCODING 8470
SWIDTH 480 0
DWIDTH 12 0
BBX 15 16 0 0
BITMAP
000C
0CDC
1C96
1DB4
1DB4
1DB4
3D2C
3F38
3F10
3F00
2F00
6E78
6EF0
6600
4600
C400
ENDCHAR
STARTCHAR 2122
ENCODING 8482
SWIDTH 480 0
DWIDTH 12 0
BBX 11 6 3 9
BITMAP
FA60
2760
27A0
27A0
2620
2620
ENDCHAR
STARTCHAR 2126
ENCODING 8486
SWIDTH 480 0
DWIDTH 12 0
BBX 14 16 0 0
BITMAP
00E0
03F0
0638
0C18
181C
181C
3818
3018
3018
3038
3030
3070
3060
18C0
F9F0
F9F0
ENDCHAR
STARTCHAR 212E
ENCODING 8494
SWIDTH 480 0
DWIDTH 12 0
BBX 11 10 2 0
BITMAP
0C00
6180
C040
C040
C060
FF80
C000
C000
4000
3F80
ENDCHAR
STARTCHAR 2153
ENCODING 8531
SWIDTH 480 0
DWIDTH 12 0
BBX 13 16 1 0
BITMAP
0600
0C18
1430
0C60
0CC0
08C0
0980
0300
0600
0400
0DE0
1820
30C0
6060
6060
C3C0
ENDCHAR
STARTCHAR 2154
ENCODING 8532
SWIDTH 480 0
DWIDTH 12 0
BBX 13 16 1 0
BITMAP
1C00
3C18
0430
0860
3060
7CC0
7D80
0300
0600
0600
0DE0
1820
30C0
2060
6060
C3C0
ENDCHAR
STARTCHAR 2155
ENCODING 8533
SWIDTH 480 0
DWIDTH 12 0
BBX 13 16 1 0
BITMAP
0600
0C18
1430
0C60
0C60
08C0
0980
0300
0200
0600
0CF0
1880
31E0
3020
6060
C3C0
ENDCHAR
STARTCHAR 2156
ENCODING 8534
SWIDTH 480 0
DWIDTH 12 0
BBX 13 16 1 0
BITMAP
1C00
3C18
0430
0860
3060
7CC0
7D80
0300
0300
0600
0CF0
1880
31E0
3020
6060
C3C0
ENDCHAR
STARTCHAR 2157
ENCODING 8535
SWIDTH 480 0
DWIDTH 12 0
BBX 13 16 1 0
BITMAP
1C00
1618
0430
1C60
0460
4CC0
7980
0300
0200
0600
0CF0
1880
31E0
3020
6060
C3C0
ENDCHAR
STARTCHAR 2158
ENCODING 8536
SWIDTH 480 0
DWIDTH 12 0
BBX 13 16 1 0
BITMAP
0600
0E18
1430
2430
7E60
0CC0
0980
0100
0300
0600
0CF0
1880
19E0
3020
6060
C3C0
ENDCHAR
STARTCHAR 2159
ENCODING 8537
SWIDTH 480 0
DWIDTH 12 0
BBX 13 16 1 0
BITMAP
0600
0C18
1430
0C60
0C60
08C0
0980
0300
0200
0600
0CF0
1980
31E0
3320
6360
C1C0
ENDCHAR
STARTCHAR 215A
ENCODING 8538
SWIDTH 480 0
DWIDTH 12 0
BBX 13 16 1 0
BITMAP
1E00
1E18
1030
3C30
0460
7CC0
7980
0100
0300
0600
0CF0
1980
19E0
3320
6360
C1C0
ENDCHAR
STARTCHAR 215B
ENCODING 8539
SWIDTH 480 0
DWIDTH 12 0
BBX 13 16 1 0
BITMAP
0600
0C18
1430
0C60
0CC0
08C0
0980
0300
0600
0400
0DF0
1930
31E0
6360
6220
C3C0
ENDCHAR
STARTCHAR 215C
ENCODING 8540
SWIDTH 480 0
DWIDTH 12 0
BBX 13 16 1 0
BITMAP
1C00
1618
0430
1C60
04C0
4CC0
7980
0300
0600
0400
0DF0
1930
31E0
6360
6220
C3C0
ENDCHAR
STARTCHAR 215D
ENCODING 8541
SWIDTH 480 0
DWIDTH 12 0
BBX 13 16 1 0
BITMAP
1E00
1E18
1030
3C60
04C0
7CC0
7980
0300
0600
0400
0DF0
1930
31E0
6360
6220
C3C0
ENDCHAR
STARTCHAR 215E
ENCODING 8542
SWIDTH 480 0
DWIDTH 12 0
BBX 13 16 1 0
BITMAP
0F00
0F18
0630
0460
08C0
18C0
1180
0300
0600
0400
0DF0
1930
31E0
6360
6220
C3C0
ENDCHAR
STARTCHAR 2202
ENCODING 8706
SWIDTH 480 0
DWIDTH 12 0
BBX 11 17 2 0
BITMAP
1F80
1BC0
00E0
0060
0060
0060
1FE0
3FE0
7060
6060
C060
C0C0
C0C0
C180
C380
FF00
7E00
ENDCHAR
STARTCHAR 2206
ENCODING 8710
SWIDTH 480 0
DWIDTH 12 0
BBX 12 15 0 0
BITMAP
00E0
01E0
0360
0360
0660
0660
0C60
0860
1820
3030
3030
6030
6030
FFF0
FFF0
ENDCHAR
STARTCHAR 220F
ENCODING 8719
SWIDTH 480 0
DWIDTH 12 0
BBX 13 17 1 -2
BITMAP
1FF8
1818
1818
1830
3830
3030
3030
3060
3060
6060
6060
60C0
60C0
C0C0
C0C0
C180
C180
ENDCHAR
STARTCHAR 2211
ENCODING 8721
SWIDTH 480 0
DWIDTH 12 0
BBX 13 17 1 -2
BITMAP
0FF8
0C00
0600
0600
0600
0300
0300
0180
0380
0300
0600
0C00
1800
3000
7000
6000
FF80
ENDCHAR
STARTCHAR 2212
ENCODING 8722
SWIDTH 480 0
DWIDTH 12 0
BBX 10 1 2 6
BITMAP
FFC0
ENDCHAR
STARTCHAR 2215
ENCODING 8725
SWIDTH 480 0
DWIDTH 12 0
BBX 13 15 1 0
BITMAP
0018
0030
0060
0040
00C0
0180
0300
0600
0600
0C00
1800
3000
6000
6000
C000
ENDCHAR
STARTCHAR 2219
ENCODING 8729
SWIDTH 480 0
DWIDTH 12 0
BBX 3 4 6 5
BITMAP
E0
E0
E0
E0
ENDCHAR
STARTCHAR 221A
ENCODING 8730
SWIDTH 480 0
DWIDTH 12 0
BBX 13 17 2 0
BITMAP
0018
0018
0030
0030
0060
0060
00C0
00C0
2180
F180
B300
3300
3600
3600
3C00
3800
1800
ENDCHAR
STARTCHAR 221E
ENCODING 8734
SWIDTH 480 0
DWIDTH 12 0
BBX 11 7 2 3
BITMAP
3080
7BE0
CE60
8460
CC40
F7C0
0300
ENDCHAR
STARTCHAR 222B
ENCODING 8747
SWIDTH 480 0
DWIDTH 12 0
BBX 14 21 0 -4
BITMAP
003C
0070
00C0
00C0
0180
0180
0180
0180
0380
0300
0300
0300
0300
0600
0600
0600
0600
0C00
0C00
7800
F000
ENDCHAR
STARTCHAR 2248
ENCODING 8776
SWIDTH 480 0
DWIDTH 12 0
BBX 12 9 1 2
BITMAP
0C10
3F30
33E0
21C0
0000
3C20
7E60
C7C0
0100
ENDCHAR
STARTCHAR 2260
ENCODING 8800
SWIDTH 480 0
DWIDTH 12 0
BBX 11 12 2 0
BITMAP
0080
00C0
0180
7FE0
7FE0
0600
0C00
0C00
FFC0
FFC0
3000
6000
ENDCHAR
STARTCHAR 2264
ENCODING 8804
SWIDTH 480 0
DWIDTH 12 0
BBX 13 13 1 0
BITMAP
0008
0078
01E0
0F80
3C00
3800
1E00
0780
01E0
0060
0000
FFC0
FFC0
ENDCHAR
STARTCHAR 2265
ENCODING 8805
SWIDTH 480 0
DWIDTH 12 0
BBX 12 13 1 0
BITMAP
0800
1E00
0F80
01E0
0070
0070
03E0
1F00
7C00
6000
0000
FFC0
FFC0
ENDCHAR
STARTCHAR 2500
ENCODING 9472
SWIDTH 480 0
DWIDTH 12 0
BBX 13 2 0 7
BITMAP
FFF8
FFF8
ENDCHAR
STARTCHAR 2502
ENCODING 9474
SWIDTH 480 0
DWIDTH 12 0
BBX 2 25 5 -4
BITMAP
C0
C0
C0
C0
C0
C0
C0
C0
C0
C0
C0
C0
C0
C0
C0
C0
C0
C0
C0
C0
C0
C0
C0
C0
C0
ENDCHAR
STARTCHAR 250C
ENCODING 9484
SWIDTH 480 0
DWIDTH 12 0
BBX 8 13 5 -4
BITMAP
FF
FF
C0
C0
C0
C0
C0
C0
C0
C0
C0
C0
C0
ENDCHAR
STARTCHAR 2510
ENCODING 9488
SWIDTH 480 0
DWIDTH 12 0
BBX 7 13 0 -4
BITMAP
FE
FE
06
06
06
06
06
06
06
06
06
06
06
ENDCHAR
STARTCHAR 2514
ENCODING 9492
SWIDTH 480 0
DWIDTH 12 0
BBX 8 14 5 7
BITMAP
C0
C0
C0
C0
C0
C0
C0
C0
C0
C0
C0
C0
FF
FF
ENDCHAR
STARTCHAR 2518
ENCODING 9496
SWIDTH 480 0
DWIDTH 12 0
BBX 7 14 0 7
BITMAP
06
06
06
06
06
06
06
06
06
06
06
06
FE
FE
ENDCHAR
STARTCHAR 251C
ENCODING 9500
SWIDTH 480 0
DWIDTH 12 0
BBX 8 25 5 -4
BITMAP
C0
C0
C0
C0
C0
C0
C0
C0
C0
C0
C0
C0
FF
FF
C0
C0
C0
C0
C0
C0
C0
C0
C0
C0
C0
ENDCHAR
STARTCHAR 2524
ENCODING 9508
SWIDTH 480 0
DWIDTH 12 0
BBX 7 25 0 -4
BITMAP
06
06
06
06
06
06
06
06
06
06
06
06
FE
FE
06
06
06
06
06
06
06
06
06
06
06
ENDCHAR
STARTCHAR 252C
ENCODING 9516
SWIDTH 480 0
DWIDTH 12 0
BBX 13 13 0 -4
BITMAP
FFF8
FFF8
0600
0600
0600
0600
0600
0600
0600
0600
0600
0600
0600
ENDCHAR
STARTCHAR 2534
ENCODING 9524
SWIDTH 480 0
DWIDTH 12 0
BBX 13 14 0 7
BITMAP
0600
0600
0600
0600
0600
0600
0600
0600
0600
0600
0600
0600
FFF8
FFF8
ENDCHAR
STARTCHAR 253C
ENCODING 9532
SWIDTH 480 0
DWIDTH 12 0
BBX 13 25 0 -4
BITMAP
0600
0600
0600
0600
0600
0600
0600
0600
0600
0600
0600
0600
FFF8
FFF8
0600
0600
0600
0600
0600
0600
0600
0600
0600
0600
0600
ENDCHAR
STARTCHAR 2550
ENCODING 9552
SWIDTH 480 0
DWIDTH 12 0
BBX 13 6 0 5
BITMAP
FFF8
FFF8
0000
0000
FFF8
FFF8
ENDCHAR
STARTCHAR 2551
ENCODING 9553
SWIDTH 480 0
DWIDTH 12 0
BBX 6 25 3 -4
BITMAP
CC
CC
CC
CC
CC
CC
CC
CC
CC
CC
CC
CC
CC
CC
CC
CC
CC
CC
CC
CC
CC
CC
CC
CC
CC
ENDCHAR
STARTCHAR 2552
ENCODING 9554
SWIDTH 480 0
DWIDTH 12 0
BBX 8 15 5 -4
BITMAP
FF
FF
00
00
FF
FF
C0
C0
C0
C0
C0
C0
C0
C0
C0
ENDCHAR
STARTCHAR 2553
ENCODING 9555
SWIDTH 480 0
DWIDTH 12 0
BBX 10 13 3 -4
BITMAP
CFC0
CFC0
CC00
CC00
CC00
CC00
CC00
CC00
CC00
CC00
CC00
CC00
CC00
ENDCHAR
STARTCHAR 2554
ENCODING 9556
SWIDTH 480 0
DWIDTH 12 0
BBX 10 15 3 -4
BITMAP
FFC0
FFC0
C000
C000
CFC0
CFC0
CC00
CC00
CC00
CC00
CC00
CC00
CC00
CC00
CC00
ENDCHAR
STARTCHAR 2555
ENCODING 9557
SWIDTH 480 0
DWIDTH 12 0
BBX 7 15 0 -4
BITMAP
FE
FE
00
00
FE
FE
06
06
06
06
06
06
06
06
06
ENDCHAR
STARTCHAR 2556
ENCODING 9558
SWIDTH 480 0
DWIDTH 12 0
BBX 9 13 0 -4
BITMAP
F980
F980
1980
1980
1980
1980
1980
1980
1980
1980
1980
1980
1980
ENDCHAR
STARTCHAR 2557
ENCODING 9559
SWIDTH 480 0
DWIDTH 12 0
BBX 9 15 0 -4
BITMAP
FF80
FF80
0180
0180
F980
F980
1980
1980
1980
1980
1980
1980
1980
1980
1980
ENDCHAR
STARTCHAR 2558
ENCODING 9560
SWIDTH 480 0
DWIDTH 12 0
BBX 8 16 5 5
BITMAP
C0
C0
C0
C0
C0
C0
C0
C0
C0
C0
FF
FF
00
00
FF
FF
ENDCHAR
STARTCHAR 2559
ENCODING 9561
SWIDTH 480 0
DWIDTH 12 0
BBX 10 14 3 7
BITMAP
CC00
CC00
CC00
CC00
CC00
CC00
CC00
CC00
CC00
CC00
CC00
CC00
CFC0
CFC0
ENDCHAR
STARTCHAR 255A
ENCODING 9562
SWIDTH 480 0
DWIDTH 12 0
BBX 10 16 3 5
BITMAP
CC00
CC00
CC00
CC00
CC00
CC00
CC00
CC00
CC00
CC00
CFC0
CFC0
C000
C000
FFC0
FFC0
ENDCHAR
STARTCHAR 255B
ENCODING 9563
SWIDTH 480 0
DWIDTH 12 0
BBX 7 16 0 5
BITMAP
06
06
06
06
06
06
06
06
06
06
FE
FE
00
00
FE
FE
ENDCHAR
STARTCHAR 255C
ENCODING 9564
SWIDTH 480 0
DWIDTH 12 0
BBX 9 14 0 7
BITMAP
1980
1980
1980
1980
1980
1980
1980
1980
1980
1980
1980
1980
F980
F980
ENDCHAR
STARTCHAR 255D
ENCODING 9565
SWIDTH 480 0
DWIDTH 12 0
BBX 9 16 0 5
BITMAP
1980
1980
1980
1980
1980
1980
1980
1980
1980
1980
F980
F980
0180
0180
FF80
FF80
ENDCHAR
STARTCHAR 255E
ENCODING 9566
SWIDTH 480 0
DWIDTH 12 0
BBX 8 25 5 -4
BITMAP
C0
C0
C0
C0
C0
C0
C0
C0
C0
C0
FF
FF
00
00
FF
FF
C0
C0
C0
C0
C0
C0
C0
C0
C0
ENDCHAR
STARTCHAR 255F
ENCODING 9567
SWIDTH 480 0
DWIDTH 12 0
BBX 10 25 3 -4
BITMAP
CC00
CC00
CC00
CC00
CC00
CC00
CC00
CC00
CC00
CC00
CC00
CC00
CFC0
CFC0
CC00
CC00
CC00
CC00
CC00
CC00
CC00
CC00
CC00
CC00
CC00
ENDCHAR
STARTCHAR 2560
ENCODING 9568
SWIDTH 480 0
DWIDTH 12 0
BBX 10 25 3 -4
BITMAP
CC00
CC00
CC00
CC00
CC00
CC00
CC00
CC00
CC00
CC00
CFC0
CFC0
C000
C000
CFC0
CFC0
CC00
CC00
CC00
CC00
CC00
CC00
CC00
CC00
CC00
ENDCHAR
STARTCHAR 2561
ENCODING 9569
SWIDTH 480 0
DWIDTH 12 0
BBX 7 25 0 -4
BITMAP
06
06
06
06
06
06
06
06
06
06
FE
FE
00
00
FE
FE
06
06
06
06
06
06
06
06
06
ENDCHAR
STARTCHAR 2562
ENCODING 9570
SWIDTH 480 0
DWIDTH 12 0
BBX 9 25 0 -4
BITMAP
1980
1980
1980
1980
1980
1980
1980
1980
1980
1980
1980
1980
F980
F980
1980
1980
1980
1980
1980
1980
1980
1980
1980
1980
1980
ENDCHAR
STARTCHAR 2563
ENCODING 9571
SWIDTH 480 0
DWIDTH 12 0
BBX 9 25 0 -4
BITMAP
1980
1980
1980
1980
1980
1980
1980
1980
1980
1980
F980
F980
0180
0180
F980
F980
1980
1980
1980
1980
1980
1980
1980
1980
1980
ENDCHAR
STARTCHAR 2564
ENCODING 9572
SWIDTH 480 0
DWIDTH 12 0
BBX 13 15 0 -4
BITMAP
FFF8
FFF8
0000
0000
FFF8
FFF8
0600
0600
0600
0600
0600
0600
0600
0600
0600
ENDCHAR
STARTCHAR 2565
ENCODING 9573
SWIDTH 480 0
DWIDTH 12 0
BBX 13 13 0 -4
BITMAP
FFF8
FFF8
1980
1980
1980
1980
1980
1980
1980
1980
1980
1980
1980
ENDCHAR
STARTCHAR 2566
ENCODING 9574
SWIDTH 480 0
DWIDTH 12 0
BBX 13 15 0 -4
BITMAP
FFF8
FFF8
0000
0000
F9F8
F9F8
1980
1980
1980
1980
1980
1980
1980
1980
1980
ENDCHAR
STARTCHAR 2567
ENCODING 9575
SWIDTH 480 0
DWIDTH 12 0
BBX 13 16 0 5
BITMAP
0600
0600
0600
0600
0600
0600
0600
0600
0600
0600
FFF8
FFF8
0000
0000
FFF8
FFF8
ENDCHAR
STARTCHAR 2568
ENCODING 9576
SWIDTH 480 0
DWIDTH 12 0
BBX 13 14 0 7
BITMAP
1980
1980
1980
1980
1980
1980
1980
1980
1980
1980
1980
1980
FFF8
FFF8
ENDCHAR
STARTCHAR 2569
ENCODING 9577
SWIDTH 480 0
DWIDTH 12 0
BBX 13 16 0 5
BITMAP
1980
1980
1980
1980
1980
1980
1980
1980
1980
1980
F9F8
F9F8
0000
0000
FFF8
FFF8
ENDCHAR
STARTCHAR 256A
ENCODING 9578
SWIDTH 480 0
DWIDTH 12 0
BBX 13 25 0 -4
BITMAP
0600
0600
0600
0600
0600
0600
0600
0600
0600
0600
FFF8
FFF8
0600
0600
FFF8
FFF8
0600
0600
0600
0600
0600
0600
0600
0600
0600
ENDCHAR
STARTCHAR 256B
ENCODING 9579
SWIDTH 480 0
DWIDTH 12 0
BBX 13 25 0 -4
BITMAP
1980
1980
1980
1980
1980
1980
1980
1980
1980
1980
1980
1980
FFF8
FFF8
1980
1980
1980
1980
1980
1980
1980
1980
1980
1980
1980
ENDCHAR
STARTCHAR 256C
ENCODING 9580
SWIDTH 480 0
DWIDTH 12 0
BBX 13 25 0 -4
BITMAP
1980
1980
1980
1980
1980
1980
1980
1980
1980
1980
F9F8
F9F8
0000
0000
F9F8
F9F8
1980
1980
1980
1980
1980
1980
1980
1980
1980
ENDCHAR
STARTCHAR 2588
ENCODING 9608
SWIDTH 480 0
DWIDTH 12 0
BBX 13 25 0 -4
BITMAP
FFF8
FFF8
FFF8
FFF8
FFF8
FFF8
FFF8
FFF8
FFF8
FFF8
FFF8
FFF8
FFF8
FFF8
FFF8
FFF8
FFF8
FFF8
FFF8
FFF8
FFF8
FFF8
FFF8
FFF8
FFF8
ENDCHAR
STARTCHAR 2591
ENCODING 9617
SWIDTH 480 0
DWIDTH 12 0
BBX 13 25 0 -4
BITMAP
8888
0000
2220
0000
8888
0000
2220
0000
8888
0000
2220
0000
8888
0000
2220
0000
8888
0000
2220
0000
8888
0000
2220
0000
8888
ENDCHAR
STARTCHAR 2592
ENCODING 9618
SWIDTH 480 0
DWIDTH 12 0
BBX 13 25 0 -4
BITMAP
AAA8
0000
5550
0000
AAA8
0000
5550
0000
AAA8
0000
5550
0000
AAA8
0000
5550
0000
AAA8
0000
5550
0000
AAA8
0000
5550
0000
AAA8
ENDCHAR
STARTCHAR 2593
ENCODING 9619
SWIDTH 480 0
DWIDTH 12 0
BBX 13 25 0 -4
BITMAP
FFF8
AAA8
FFF8
AAA8
FFF8
AAA8
FFF8
AAA8
FFF8
AAA8
FFF8
AAA8
FFF8
AAA8
FFF8
AAA8
FFF8
AAA8
FFF8
AAA8
FFF8
AAA8
FFF8
AAA8
FFF8
ENDCHAR
STARTCHAR 25CA
ENCODING 9674
SWIDTH 480 0
DWIDTH 12 0
BBX 10 16 3 0
BITMAP
0200
0600
0F00
0F00
1980
3180
6180
C0C0
C0C0
C180
C300
6600
6C00
7800
3800
3000
ENDCHAR
STARTCHAR E0FF
ENCODING 57599
SWIDTH 480 0
DWIDTH 12 0
BBX 9 9 4 8
BITMAP
3E00
7D00
F380
DD80
DF80
DD80
F380
7D00
3E00
ENDCHAR
STARTCHAR EFFD
ENCODING 61437
SWIDTH 480 0
DWIDTH 12 0
BBX 15 16 0 0
BITMAP
1C1C
3E3E
6262
4266
DA38
D64C
C6C4
CCCC
7878
0000
0000
0000
0000
0E00
1E00
0E00
ENDCHAR
STARTCHAR F000
ENCODING 61440
SWIDTH 480 0
DWIDTH 12 0
BBX 21 17 -4 0
BITMAP
FF97E8
809008
809008
809008
809008
809008
809008
809008
7F0FF0
809008
809008
809008
809008
809008
809008
809008
7F0FF0
ENDCHAR
STARTCHAR F001
ENCODING 61441
SWIDTH 480 0
DWIDTH 12 0
BBX 16 21 -2 -4
BITMAP
0078
00F3
0183
0180
0180
07F6
07E6
0306
0306
070C
060C
060C
060C
0618
0E18
0C18
0C18
0C00
1C00
F800
F000
ENDCHAR
STARTCHAR F002
ENCODING 61442
SWIDTH 480 0
DWIDTH 12 0
BBX 16 21 -2 -4
BITMAP
007B
00F3
0183
0187
0186
07F6
07E6
030E
030C
070C
060C
060C
0618
0618
0E18
0C1E
0C0C
0C00
1C00
F800
F000
ENDCHAR
STARTCHAR F506
ENCODING 62726
SWIDTH 480 0
DWIDTH 12 0
BBX 13 16 1 0
BITMAP
0600
0C18
1430
0C60
0CC0
08C0
0980
0300
0600
0C00
0CF0
1820
3040
6080
4180
C100
ENDCHAR
STARTCHAR F507
ENCODING 62727
SWIDTH 480 0
DWIDTH 12 0
BBX 13 16 1 0
BITMAP
1C00
3C18
0430
0860
30C0
7CC0
7D80
0300
0600
0600
0DF0
1860
3040
6080
6180
C100
ENDCHAR
STARTCHAR F508
ENCODING 62728
SWIDTH 480 0
DWIDTH 12 0
BBX 13 16 1 0
BITMAP
1C00
1618
0430
1C60
04C0
4CC0
7980
0300
0600
0600
0DF0
1860
3040
6080
6180
C100
ENDCHAR
STARTCHAR F509
ENCODING 62729
SWIDTH 480 0
DWIDTH 12 0
BBX 13 16 1 0
BITMAP
0600
0E18
1430
2460
7E60
0CC0
0980
0300
0200
0600
0CF0
1820
3040
3080
6180
C100
ENDCHAR
STARTCHAR F50A
ENCODING 62730
SWIDTH 480 0
DWIDTH 12 0
BBX 13 16 1 0
BITMAP
1E00
1E18
1030
3C60
0460
7CC0
7980
0300
0200
0600
0CF0
1820
3040
3080
6180
C100
ENDCHAR
STARTCHAR F50B
ENCODING 62731
SWIDTH 480 0
DWIDTH 12 0
BBX 13 16 1 0
BITMAP
0600
1C18
3830
3C60
2460
3CC0
3980
0300
0200
0600
0DF0
1860
3040
3080
6180
C100
ENDCHAR
STARTCHAR F50C
ENCODING 62732
SWIDTH 480 0
DWIDTH 12 0
BBX 13 16 1 0
BITMAP
0600
0C18
1430
0C60
0C60
08C0
0980
0300
0200
0600
0DE0
1930
3130
31E0
6040
C380
ENDCHAR
STARTCHAR F50D
ENCODING 62733
SWIDTH 480 0
DWIDTH 12 0
BBX 13 16 1 0
BITMAP
1C00
3C18
0430
0860
3060
7CC0
7D80
0300
0200
0600
0DE0
1930
3130
31E0
6040
C380
ENDCHAR
STARTCHAR F50E
ENCODING 62734
SWIDTH 480 0
DWIDTH 12 0
BBX 13 16 1 0
BITMAP
0600
0E18
1430
2460
7E60
0CC0
0980
0300
0200
0600
0DE0
1930
3130
31E0
6040
C380
ENDCHAR
STARTCHAR F50F
ENCODING 62735
SWIDTH 480 0
DWIDTH 12 0
BBX 13 16 1 0
BITMAP
1E00
1E18
1030
3C60
0460
7CC0
7980
0300
0200
0600
0DE0
1930
3130
31E0
6040
C380
ENDCHAR
STARTCHAR F510
ENCODING 62736
SWIDTH 480 0
DWIDTH 12 0
BBX 13 16 1 0
BITMAP
0F00
0F18
0630
0460
0860
18C0
1180
0300
0200
0600
0DE0
1930
3130
31E0
6040
C380
ENDCHAR
STARTCHAR F511
ENCODING 62737
SWIDTH 480 0
DWIDTH 12 0
BBX 13 16 1 0
BITMAP
1C00
3618
3630
3C60
6460
6CC0
3980
0300
0200
0600
0DE0
1930
3130
31E0
6040
C380
ENDCHAR
STARTCHAR F80A
ENCODING 63498
SWIDTH 480 0
DWIDTH 12 0
BBX 7 8 6 11
BITMAP
3C
66
C6
F6
B4
8C
8C
F8
ENDCHAR
STARTCHAR F80B
ENCODING 63499
SWIDTH 480 0
DWIDTH 12 0
BBX 6 8 6 10
BITMAP
18
78
58
10
10
30
30
FC
ENDCHAR
STARTCHAR F80C
ENCODING 63500
SWIDTH 480 0
DWIDTH 12 0
BBX 7 9 5 10
BITMAP
08
3E
06
06
0C
18
70
40
FC
ENDCHAR
STARTCHAR F80D
ENCODING 63501
SWIDTH 480 0
DWIDTH 12 0
BBX 7 8 5 11
BITMAP
3E
02
02
1C
0E
06
06
FC
ENDCHAR
STARTCHAR F80E
ENCODING 63502
SWIDTH 480 0
DWIDTH 12 0
BBX 7 8 5 10
BITMAP
06
0E
16
24
44
FE
0C
08
ENDCHAR
STARTCHAR F80F
ENCODING 63503
SWIDTH 480 0
DWIDTH 12 0
BBX 8 8 5 10
BITMAP
1F
10
30
3C
06
06
06
FC
ENDCHAR
STARTCHAR F810
ENCODING 63504
SWIDTH 480 0
DWIDTH 12 0
BBX 7 8 6 10
BITMAP
1E
30
60
FC
CC
84
CC
F8
ENDCHAR
STARTCHAR F811
ENCODING 63505
SWIDTH 480 0
DWIDTH 12 0
BBX 7 8 6 10
BITMAP
7E
0C
18
10
30
60
40
C0
ENDCHAR
STARTCHAR F812
ENCODING 63506
SWIDTH 480 0
DWIDTH 12 0
BBX 7 9 6 10
BITMAP
08
3E
66
66
7C
7C
C4
8C
F8
ENDCHAR
STARTCHAR F813
ENCODING 63507
SWIDTH 480 0
DWIDTH 12 0
BBX 7 8 6 11
BITMAP
7C
46
C6
C6
7C
0C
18
F0
ENDCHAR
STARTCHAR F814
ENCODING 63508
SWIDTH 480 0
DWIDTH 12 0
BBX 7 9 3 -4
BITMAP
3C
6C
C6
D6
B4
84
8C
D8
70
ENDCHAR
STARTCHAR F815
ENCODING 63509
SWIDTH 480 0
DWIDTH 12 0
BBX 6 9 3 -4
BITMAP
0C
38
68
18
18
10
10
FC
FC
ENDCHAR
STARTCHAR F816
ENCODING 63510
SWIDTH 480 0
DWIDTH 12 0
BBX 7 9 2 -4
BITMAP
1E
36
02
06
0C
38
60
7E
FC
ENDCHAR
STARTCHAR F817
ENCODING 63511
SWIDTH 480 0
DWIDTH 12 0
BBX 6 9 3 -4
BITMAP
3C
6C
04
1C
38
0C
0C
98
F0
ENDCHAR
STARTCHAR F818
ENCODING 63512
SWIDTH 480 0
DWIDTH 12 0
BBX 7 9 2 -4
BITMAP
06
0E
1E
36
64
7E
FE
0C
08
ENDCHAR
STARTCHAR F819
ENCODING 63513
SWIDTH 480 0
DWIDTH 12 0
BBX 8 9 2 -4
BITMAP
1F
1F
30
30
3C
06
06
CC
F8
ENDCHAR
STARTCHAR F81A
ENCODING 63514
SWIDTH 480 0
DWIDTH 12 0
BBX 7 9 3 -4
BITMAP
0E
3C
60
D8
FC
8C
8C
D8
70
ENDCHAR
STARTCHAR F81B
ENCODING 63515
SWIDTH 480 0
DWIDTH 12 0
BBX 7 9 4 -4
BITMAP
FE
FC
18
10
30
60
40
C0
80
ENDCHAR
STARTCHAR F81C
ENCODING 63516
SWIDTH 480 0
DWIDTH 12 0
BBX 7 9 3 -4
BITMAP
3C
66
46
64
78
CC
84
DC
78
ENDCHAR
STARTCHAR F81D
ENCODING 63517
SWIDTH 480 0
DWIDTH 12 0
BBX 7 9 3 -4
BITMAP
3C
6E
46
46
7E
34
0C
F8
C0
ENDCHAR
STARTCHAR FB01
ENCODING 64257
SWIDTH 480 0
DWIDTH 12 0
BBX 16 21 -2 -4
BITMAP
0078
00F3
0183
0180
0180
07F6
07E6
0306
0306
070C
060C
060C
060C
0618
0E18
0C18
0C18
0C00
1C00
F800
F000
ENDCHAR
STARTCHAR FB02
ENCODING 64258
SWIDTH 480 0
DWIDTH 12 0
BBX 16 21 -2 -4
BITMAP
007B
00F3
0183
0187
0186
07F6
07E6
030E
030C
070C
060C
060C
0618
0618
0E18
0C1E
0C0C
0C00
1C00
F800
F000
ENDCHAR
STARTCHAR FFFD
ENCODING 65533
SWIDTH 480 0
DWIDTH 12 0
BBX 12 12 1 0
BITMAP
0200
0700
0F80
10C0
3EE0
7EF0
FDF0
79E0
3FC0
1980
0F00
0600
ENDCHAR
ENDFONT
